<svg width="34" height="33" viewBox="0 0 34 33" fill="none" xmlns="http://www.w3.org/2000/svg">
<path d="M16.9952 29.4873C24.15 29.4873 30.0039 23.6334 30.0039 16.4786C30.0039 9.32386 24.15 3.46995 16.9952 3.46995C9.84046 3.46995 3.98655 9.32386 3.98655 16.4786C3.98655 23.6334 9.84046 29.4873 16.9952 29.4873ZM16.9952 0.217773C25.9387 0.217773 33.2561 7.53516 33.2561 16.4786C33.2561 25.4221 25.9387 32.7395 16.9952 32.7395C8.05177 32.7395 0.734375 25.4221 0.734375 16.4786C0.734375 7.53516 8.05177 0.217773 16.9952 0.217773ZM25.1257 19.5682L23.9874 21.6821L15.3692 16.9665V8.34821H17.8083V15.503L25.1257 19.5682Z" fill="#B40000"/>
</svg>
