<svg width="343" height="310" viewBox="0 0 343 310" fill="none" xmlns="http://www.w3.org/2000/svg">
<g clip-path="url(#clip0_964_13525)">
<path d="M-29.1205 266.676H425.888V266.91H-29.1205V266.676Z" fill="#EBEBEB"/>
<path d="M16.4713 281.793H46.6111V282.028H16.4713V281.793Z" fill="#EBEBEB"/>
<path d="M124.472 284.348H132.38V284.582H124.472V284.348Z" fill="#EBEBEB"/>
<path d="M47.5211 273.076H64.9843V273.311H47.5211V273.076Z" fill="#EBEBEB"/>
<path d="M338.845 274.65H378.148V274.885H338.845V274.65Z" fill="#EBEBEB"/>
<path d="M324.976 274.65H330.737V274.885H324.976V274.65Z" fill="#EBEBEB"/>
<path d="M220.998 278.615H306.248V278.85H220.998V278.615Z" fill="#EBEBEB"/>
<path d="M210.214 224.784H385.929C387.306 224.782 388.625 224.215 389.597 223.21C390.57 222.204 391.116 220.841 391.116 219.421V-35.537C391.104 -36.9497 390.553 -38.3005 389.581 -39.2959C388.61 -40.2914 387.298 -40.8511 385.929 -40.8535H210.214C208.836 -40.8535 207.514 -40.2884 206.54 -39.2826C205.565 -38.2767 205.018 -36.9125 205.018 -35.49V219.421C205.018 220.843 205.565 222.207 206.54 223.213C207.514 224.219 208.836 224.784 210.214 224.784ZM385.929 -40.6657C387.245 -40.6632 388.507 -40.1217 389.437 -39.1602C390.366 -38.1987 390.889 -36.8956 390.889 -35.537V219.421C390.889 220.779 390.366 222.082 389.437 223.044C388.507 224.005 387.245 224.547 385.929 224.549H210.214C208.897 224.547 207.634 224.006 206.703 223.044C205.772 222.083 205.248 220.78 205.245 219.421V-35.537C205.248 -36.8964 205.772 -38.1995 206.703 -39.1608C207.634 -40.122 208.897 -40.6632 210.214 -40.6657H385.929Z" fill="#EBEBEB"/>
<path d="M13.3682 224.784H189.092C190.47 224.782 191.79 224.216 192.764 223.21C193.738 222.205 194.286 220.842 194.289 219.421V-35.537C194.274 -36.9506 193.721 -38.3013 192.748 -39.2965C191.775 -40.2917 190.462 -40.8511 189.092 -40.8535H13.3682C12.0011 -40.8486 10.6909 -40.2878 9.72166 -39.2926C8.75241 -38.2975 8.20216 -36.9481 8.1902 -35.537V219.421C8.1902 220.84 8.73515 222.201 9.70569 223.206C10.6762 224.212 11.9932 224.779 13.3682 224.784ZM189.092 -40.6657C190.409 -40.6632 191.672 -40.122 192.603 -39.1608C193.534 -38.1995 194.059 -36.8964 194.061 -35.537V219.421C194.059 220.78 193.534 222.083 192.603 223.044C191.672 224.006 190.409 224.547 189.092 224.549H13.3682C12.0512 224.547 10.7888 224.006 9.85747 223.044C8.92618 222.083 8.40193 220.78 8.39952 219.421V-35.537C8.40193 -36.8964 8.92618 -38.1995 9.85747 -39.1608C10.7888 -40.122 12.0512 -40.6632 13.3682 -40.6657H189.092Z" fill="#EBEBEB"/>
<path d="M20.5482 17.5527H241.027V236.92H20.5482V17.5527Z" fill="#E0E0E0"/>
<path d="M20.5482 21.5352H237.487V233.087H20.5482V21.5352Z" fill="#F5F5F5"/>
<path d="M235.885 181.857V118.218H229.488V109.812L215.073 102.861V94.2565H212.671V118.218H210.268V181.857H207.065V148.793H199.858V131.444H197.455V181.857H191.859V162.845H187.855V157.886H179.046V140.536H174.241V128.964H168.635V111.606H166.233V128.964H160.627V140.536H155.831V157.886H147.022V162.845H143.018V181.857H138.213V157.886H129.404V105.002H127.002V99.2161H107.792V105.002H103.787V143.016H87.7711V147.14H82.1745V149.62H87.7711V164.498H70.9631V114.912H67.7599V105.002H59.7517V66.9883H57.3493V105.002H51.7435V114.912H20.5482V233.087H237.487V181.857H235.885Z" fill="#E6E6E6"/>
<path d="M37.2197 117.506H39.4857V119.845H37.2197V117.506Z" fill="#F0F0F0"/>
<path d="M37.2197 121.432H39.4857V123.771H37.2197V121.432Z" fill="#F0F0F0"/>
<path d="M37.2197 137.137H39.4857V139.476H37.2197V137.137Z" fill="#F0F0F0"/>
<path d="M37.2197 141.053H39.4857V143.392H37.2197V141.053Z" fill="#F0F0F0"/>
<path d="M37.2197 144.979H39.4857V147.317H37.2197V144.979Z" fill="#F0F0F0"/>
<path d="M37.2197 156.76H39.4857V159.099H37.2197V156.76Z" fill="#F0F0F0"/>
<path d="M37.2197 160.686H39.4857V163.024H37.2197V160.686Z" fill="#F0F0F0"/>
<path d="M40.8233 133.211H43.0893V135.55H40.8233V133.211Z" fill="#F0F0F0"/>
<path d="M40.8234 137.137H43.0893V139.476H40.8234V137.137Z" fill="#F0F0F0"/>
<path d="M40.8234 141.053H43.0893V143.392H40.8234V141.053Z" fill="#F0F0F0"/>
<path d="M40.8234 144.979H43.0893V147.317H40.8234V144.979Z" fill="#F0F0F0"/>
<path d="M40.8233 148.906H43.0893V151.245H40.8233V148.906Z" fill="#F0F0F0"/>
<path d="M40.8233 156.76H43.0893V159.099H40.8233V156.76Z" fill="#F0F0F0"/>
<path d="M40.8233 160.686H43.0893V163.024H40.8233V160.686Z" fill="#F0F0F0"/>
<path d="M44.4271 117.506H46.693V119.845H44.4271V117.506Z" fill="#F0F0F0"/>
<path d="M44.4271 121.432H46.693V123.771H44.4271V121.432Z" fill="#F0F0F0"/>
<path d="M44.4271 125.355H46.693V127.694H44.4271V125.355Z" fill="#F0F0F0"/>
<path d="M44.4271 129.285H46.693V131.624H44.4271V129.285Z" fill="#F0F0F0"/>
<path d="M44.4271 133.211H46.693V135.55H44.4271V133.211Z" fill="#F0F0F0"/>
<path d="M44.4271 137.137H46.693V139.476H44.4271V137.137Z" fill="#F0F0F0"/>
<path d="M44.4271 141.053H46.693V143.392H44.4271V141.053Z" fill="#F0F0F0"/>
<path d="M44.4271 144.979H46.693V147.317H44.4271V144.979Z" fill="#F0F0F0"/>
<path d="M44.4271 148.906H46.693V151.245H44.4271V148.906Z" fill="#F0F0F0"/>
<path d="M44.4271 152.832H46.693V155.171H44.4271V152.832Z" fill="#F0F0F0"/>
<path d="M44.4271 160.686H46.693V163.024H44.4271V160.686Z" fill="#F0F0F0"/>
<path d="M48.0307 117.506H50.2966V119.845H48.0307V117.506Z" fill="#F0F0F0"/>
<path d="M48.0308 121.432H50.2967V123.771H48.0308V121.432Z" fill="#F0F0F0"/>
<path d="M48.0308 125.355H50.2967V127.694H48.0308V125.355Z" fill="#F0F0F0"/>
<path d="M48.0308 129.285H50.2967V131.624H48.0308V129.285Z" fill="#F0F0F0"/>
<path d="M48.0308 133.211H50.2967V135.55H48.0308V133.211Z" fill="#F0F0F0"/>
<path d="M48.0307 137.137H50.2966V139.476H48.0307V137.137Z" fill="#F0F0F0"/>
<path d="M48.0307 141.053H50.2966V143.392H48.0307V141.053Z" fill="#F0F0F0"/>
<path d="M48.0308 176.389H50.2967V178.728H48.0308V176.389Z" fill="#F0F0F0"/>
<path d="M51.6344 117.506H53.9003V119.845H51.6344V117.506Z" fill="#F0F0F0"/>
<path d="M51.6343 121.432H53.9003V123.771H51.6343V121.432Z" fill="#F0F0F0"/>
<path d="M51.6343 125.355H53.9003V127.694H51.6343V125.355Z" fill="#F0F0F0"/>
<path d="M51.6343 129.285H53.9003V131.624H51.6343V129.285Z" fill="#F0F0F0"/>
<path d="M51.6343 133.211H53.9003V135.55H51.6343V133.211Z" fill="#F0F0F0"/>
<path d="M51.6344 137.137H53.9003V139.476H51.6344V137.137Z" fill="#F0F0F0"/>
<path d="M51.6344 141.053H53.9003V143.392H51.6344V141.053Z" fill="#F0F0F0"/>
<path d="M51.6344 144.979H53.9003V147.317H51.6344V144.979Z" fill="#F0F0F0"/>
<path d="M51.6344 168.539H53.9003V170.878H51.6344V168.539Z" fill="#F0F0F0"/>
<path d="M51.6343 172.465H53.9003V174.804H51.6343V172.465Z" fill="#F0F0F0"/>
<path d="M51.6343 176.389H53.9003V178.728H51.6343V176.389Z" fill="#F0F0F0"/>
<path d="M51.6343 180.307H53.9003V182.646H51.6343V180.307Z" fill="#F0F0F0"/>
<path d="M51.6344 196.012H53.9003V198.351H51.6344V196.012Z" fill="#F0F0F0"/>
<path d="M55.2381 117.506H57.504V119.845H55.2381V117.506Z" fill="#F0F0F0"/>
<path d="M55.2381 121.432H57.504V123.771H55.2381V121.432Z" fill="#F0F0F0"/>
<path d="M55.2381 125.355H57.504V127.694H55.2381V125.355Z" fill="#F0F0F0"/>
<path d="M55.2381 129.285H57.504V131.624H55.2381V129.285Z" fill="#F0F0F0"/>
<path d="M55.2381 133.211H57.504V135.55H55.2381V133.211Z" fill="#F0F0F0"/>
<path d="M55.2381 137.137H57.504V139.476H55.2381V137.137Z" fill="#F0F0F0"/>
<path d="M55.2381 141.053H57.504V143.392H55.2381V141.053Z" fill="#F0F0F0"/>
<path d="M55.2381 144.979H57.504V147.317H55.2381V144.979Z" fill="#F0F0F0"/>
<path d="M55.2381 148.906H57.504V151.245H55.2381V148.906Z" fill="#F0F0F0"/>
<path d="M55.2381 152.832H57.504V155.171H55.2381V152.832Z" fill="#F0F0F0"/>
<path d="M55.2381 164.613H57.504V166.952H55.2381V164.613Z" fill="#F0F0F0"/>
<path d="M55.2381 168.539H57.504V170.878H55.2381V168.539Z" fill="#F0F0F0"/>
<path d="M55.2381 172.465H57.504V174.804H55.2381V172.465Z" fill="#F0F0F0"/>
<path d="M55.2381 176.389H57.504V178.728H55.2381V176.389Z" fill="#F0F0F0"/>
<path d="M55.2381 180.307H57.504V182.646H55.2381V180.307Z" fill="#F0F0F0"/>
<path d="M55.2381 196.012H57.504V198.351H55.2381V196.012Z" fill="#F0F0F0"/>
<path d="M58.8417 117.506H61.1076V119.845H58.8417V117.506Z" fill="#F0F0F0"/>
<path d="M58.8417 121.432H61.1077V123.771H58.8417V121.432Z" fill="#F0F0F0"/>
<path d="M58.8417 125.355H61.1077V127.694H58.8417V125.355Z" fill="#F0F0F0"/>
<path d="M58.8417 129.285H61.1077V131.624H58.8417V129.285Z" fill="#F0F0F0"/>
<path d="M58.8417 133.211H61.1077V135.55H58.8417V133.211Z" fill="#F0F0F0"/>
<path d="M58.8417 137.137H61.1076V139.476H58.8417V137.137Z" fill="#F0F0F0"/>
<path d="M58.8417 141.053H61.1076V143.392H58.8417V141.053Z" fill="#F0F0F0"/>
<path d="M58.8417 144.979H61.1076V147.317H58.8417V144.979Z" fill="#F0F0F0"/>
<path d="M58.8417 148.906H61.1077V151.245H58.8417V148.906Z" fill="#F0F0F0"/>
<path d="M58.8417 152.832H61.1077V155.171H58.8417V152.832Z" fill="#F0F0F0"/>
<path d="M58.8417 156.76H61.1077V159.099H58.8417V156.76Z" fill="#F0F0F0"/>
<path d="M58.8417 160.686H61.1077V163.024H58.8417V160.686Z" fill="#F0F0F0"/>
<path d="M58.8417 164.613H61.1077V166.952H58.8417V164.613Z" fill="#F0F0F0"/>
<path d="M58.8417 168.539H61.1076V170.878H58.8417V168.539Z" fill="#F0F0F0"/>
<path d="M58.8417 172.465H61.1077V174.804H58.8417V172.465Z" fill="#F0F0F0"/>
<path d="M58.8417 176.389H61.1077V178.728H58.8417V176.389Z" fill="#F0F0F0"/>
<path d="M58.8417 180.307H61.1077V182.646H58.8417V180.307Z" fill="#F0F0F0"/>
<path d="M58.8417 184.234H61.1077V186.573H58.8417V184.234Z" fill="#F0F0F0"/>
<path d="M62.4454 117.506H64.7113V119.845H62.4454V117.506Z" fill="#F0F0F0"/>
<path d="M62.4454 121.432H64.7113V123.771H62.4454V121.432Z" fill="#F0F0F0"/>
<path d="M62.4454 125.355H64.7113V127.694H62.4454V125.355Z" fill="#F0F0F0"/>
<path d="M62.4454 129.285H64.7113V131.624H62.4454V129.285Z" fill="#F0F0F0"/>
<path d="M62.4454 133.211H64.7113V135.55H62.4454V133.211Z" fill="#F0F0F0"/>
<path d="M62.4454 137.137H64.7113V139.476H62.4454V137.137Z" fill="#F0F0F0"/>
<path d="M62.4454 141.053H64.7113V143.392H62.4454V141.053Z" fill="#F0F0F0"/>
<path d="M62.4454 144.979H64.7113V147.317H62.4454V144.979Z" fill="#F0F0F0"/>
<path d="M62.4454 148.906H64.7113V151.245H62.4454V148.906Z" fill="#F0F0F0"/>
<path d="M62.4454 152.832H64.7113V155.171H62.4454V152.832Z" fill="#F0F0F0"/>
<path d="M62.4454 164.613H64.7113V166.952H62.4454V164.613Z" fill="#F0F0F0"/>
<path d="M62.4454 168.539H64.7113V170.878H62.4454V168.539Z" fill="#F0F0F0"/>
<path d="M62.4454 172.465H64.7113V174.804H62.4454V172.465Z" fill="#F0F0F0"/>
<path d="M62.4454 176.389H64.7113V178.728H62.4454V176.389Z" fill="#F0F0F0"/>
<path d="M66.0399 117.506H68.3059V119.845H66.0399V117.506Z" fill="#F0F0F0"/>
<path d="M66.0399 121.432H68.3059V123.771H66.0399V121.432Z" fill="#F0F0F0"/>
<path d="M66.0399 125.355H68.3059V127.694H66.0399V125.355Z" fill="#F0F0F0"/>
<path d="M66.0399 129.285H68.3059V131.624H66.0399V129.285Z" fill="#F0F0F0"/>
<path d="M66.0399 133.211H68.3059V135.55H66.0399V133.211Z" fill="#F0F0F0"/>
<path d="M66.0399 137.137H68.3059V139.476H66.0399V137.137Z" fill="#F0F0F0"/>
<path d="M66.0399 141.053H68.3059V143.392H66.0399V141.053Z" fill="#F0F0F0"/>
<path d="M66.0399 144.979H68.3059V147.317H66.0399V144.979Z" fill="#F0F0F0"/>
<path d="M66.0399 148.906H68.3059V151.245H66.0399V148.906Z" fill="#F0F0F0"/>
<path d="M66.0399 152.832H68.3059V155.171H66.0399V152.832Z" fill="#F0F0F0"/>
<path d="M66.0399 164.613H68.3059V166.952H66.0399V164.613Z" fill="#F0F0F0"/>
<path d="M66.0399 168.539H68.3059V170.878H66.0399V168.539Z" fill="#F0F0F0"/>
<path d="M66.0399 172.465H68.3059V174.804H66.0399V172.465Z" fill="#F0F0F0"/>
<path d="M106.608 107.312H108.874V109.651H106.608V107.312Z" fill="#F0F0F0"/>
<path d="M106.608 111.24H108.874V113.579H106.608V111.24Z" fill="#F0F0F0"/>
<path d="M106.608 115.164H108.874V117.503H106.608V115.164Z" fill="#F0F0F0"/>
<path d="M106.608 119.092H108.874V121.431H106.608V119.092Z" fill="#F0F0F0"/>
<path d="M106.608 123.02H108.874V125.358H106.608V123.02Z" fill="#F0F0F0"/>
<path d="M106.608 126.945H108.874V129.284H106.608V126.945Z" fill="#F0F0F0"/>
<path d="M106.608 130.863H108.874V133.202H106.608V130.863Z" fill="#F0F0F0"/>
<path d="M106.608 134.789H108.874V137.128H106.608V134.789Z" fill="#F0F0F0"/>
<path d="M106.608 146.566H108.874V148.905H106.608V146.566Z" fill="#F0F0F0"/>
<path d="M106.608 150.494H108.874V152.833H106.608V150.494Z" fill="#F0F0F0"/>
<path d="M110.212 107.312H112.478V109.651H110.212V107.312Z" fill="#F0F0F0"/>
<path d="M110.212 111.24H112.478V113.579H110.212V111.24Z" fill="#F0F0F0"/>
<path d="M110.212 115.164H112.478V117.503H110.212V115.164Z" fill="#F0F0F0"/>
<path d="M110.212 119.092H112.478V121.431H110.212V119.092Z" fill="#F0F0F0"/>
<path d="M110.212 123.02H112.478V125.358H110.212V123.02Z" fill="#F0F0F0"/>
<path d="M110.212 126.945H112.478V129.284H110.212V126.945Z" fill="#F0F0F0"/>
<path d="M110.212 130.863H112.478V133.202H110.212V130.863Z" fill="#F0F0F0"/>
<path d="M110.212 134.789H112.478V137.128H110.212V134.789Z" fill="#F0F0F0"/>
<path d="M110.212 150.494H112.478V152.833H110.212V150.494Z" fill="#F0F0F0"/>
<path d="M113.816 107.312H116.082V109.651H113.816V107.312Z" fill="#F0F0F0"/>
<path d="M113.816 111.24H116.082V113.579H113.816V111.24Z" fill="#F0F0F0"/>
<path d="M113.816 115.164H116.082V117.503H113.816V115.164Z" fill="#F0F0F0"/>
<path d="M113.816 119.092H116.082V121.431H113.816V119.092Z" fill="#F0F0F0"/>
<path d="M113.816 123.02H116.082V125.358H113.816V123.02Z" fill="#F0F0F0"/>
<path d="M113.816 126.945H116.082V129.284H113.816V126.945Z" fill="#F0F0F0"/>
<path d="M113.816 130.863H116.082V133.202H113.816V130.863Z" fill="#F0F0F0"/>
<path d="M113.816 134.789H116.082V137.128H113.816V134.789Z" fill="#F0F0F0"/>
<path d="M117.419 107.312H119.685V109.651H117.419V107.312Z" fill="#F0F0F0"/>
<path d="M117.419 111.24H119.685V113.579H117.419V111.24Z" fill="#F0F0F0"/>
<path d="M117.42 115.164H119.685V117.503H117.42V115.164Z" fill="#F0F0F0"/>
<path d="M117.42 119.092H119.685V121.431H117.42V119.092Z" fill="#F0F0F0"/>
<path d="M117.42 123.02H119.685V125.358H117.42V123.02Z" fill="#F0F0F0"/>
<path d="M117.42 126.945H119.685V129.284H117.42V126.945Z" fill="#F0F0F0"/>
<path d="M117.419 134.789H119.685V137.128H117.419V134.789Z" fill="#F0F0F0"/>
<path d="M117.419 138.715H119.685V141.054H117.419V138.715Z" fill="#F0F0F0"/>
<path d="M117.42 150.494H119.685V152.833H117.42V150.494Z" fill="#F0F0F0"/>
<path d="M117.42 154.418H119.685V156.757H117.42V154.418Z" fill="#F0F0F0"/>
<path d="M117.42 158.346H119.685V160.685H117.42V158.346Z" fill="#F0F0F0"/>
<path d="M117.419 162.273H119.685V164.612H117.419V162.273Z" fill="#F0F0F0"/>
<path d="M117.42 166.197H119.685V168.536H117.42V166.197Z" fill="#F0F0F0"/>
<path d="M117.42 170.115H119.685V172.454H117.42V170.115Z" fill="#F0F0F0"/>
<path d="M117.42 174.043H119.685V176.382H117.42V174.043Z" fill="#F0F0F0"/>
<path d="M121.023 107.312H123.289V109.651H121.023V107.312Z" fill="#F0F0F0"/>
<path d="M121.023 111.24H123.289V113.579H121.023V111.24Z" fill="#F0F0F0"/>
<path d="M121.023 115.164H123.289V117.503H121.023V115.164Z" fill="#F0F0F0"/>
<path d="M121.023 119.092H123.289V121.431H121.023V119.092Z" fill="#F0F0F0"/>
<path d="M121.023 123.02H123.289V125.358H121.023V123.02Z" fill="#F0F0F0"/>
<path d="M121.023 126.945H123.289V129.284H121.023V126.945Z" fill="#F0F0F0"/>
<path d="M121.023 138.715H123.289V141.054H121.023V138.715Z" fill="#F0F0F0"/>
<path d="M121.023 142.643H123.289V144.981H121.023V142.643Z" fill="#F0F0F0"/>
<path d="M121.023 146.566H123.289V148.905H121.023V146.566Z" fill="#F0F0F0"/>
<path d="M121.023 150.494H123.289V152.833H121.023V150.494Z" fill="#F0F0F0"/>
<path d="M121.023 154.418H123.289V156.757H121.023V154.418Z" fill="#F0F0F0"/>
<path d="M121.023 158.346H123.289V160.685H121.023V158.346Z" fill="#F0F0F0"/>
<path d="M121.023 162.273H123.289V164.612H121.023V162.273Z" fill="#F0F0F0"/>
<path d="M121.023 166.197H123.289V168.536H121.023V166.197Z" fill="#F0F0F0"/>
<path d="M121.023 170.115H123.289V172.454H121.023V170.115Z" fill="#F0F0F0"/>
<path d="M121.023 174.043H123.289V176.382H121.023V174.043Z" fill="#F0F0F0"/>
<path d="M121.023 177.969H123.289V180.308H121.023V177.969Z" fill="#F0F0F0"/>
<path d="M121.023 185.824H123.289V188.163H121.023V185.824Z" fill="#F0F0F0"/>
<path d="M124.627 107.312H126.893V109.651H124.627V107.312Z" fill="#F0F0F0"/>
<path d="M124.627 111.24H126.893V113.579H124.627V111.24Z" fill="#F0F0F0"/>
<path d="M124.627 115.164H126.893V117.503H124.627V115.164Z" fill="#F0F0F0"/>
<path d="M124.627 119.092H126.893V121.431H124.627V119.092Z" fill="#F0F0F0"/>
<path d="M124.627 123.02H126.893V125.358H124.627V123.02Z" fill="#F0F0F0"/>
<path d="M124.627 126.945H126.893V129.284H124.627V126.945Z" fill="#F0F0F0"/>
<path d="M124.627 138.715H126.893V141.054H124.627V138.715Z" fill="#F0F0F0"/>
<path d="M124.627 142.643H126.893V144.981H124.627V142.643Z" fill="#F0F0F0"/>
<path d="M124.627 146.566H126.893V148.905H124.627V146.566Z" fill="#F0F0F0"/>
<path d="M124.627 150.494H126.893V152.833H124.627V150.494Z" fill="#F0F0F0"/>
<path d="M124.627 162.273H126.893V164.612H124.627V162.273Z" fill="#F0F0F0"/>
<path d="M124.627 166.197H126.893V168.536H124.627V166.197Z" fill="#F0F0F0"/>
<path d="M124.627 170.115H126.893V172.454H124.627V170.115Z" fill="#F0F0F0"/>
<path d="M124.627 174.043H126.893V176.382H124.627V174.043Z" fill="#F0F0F0"/>
<path d="M124.627 177.969H126.893V180.308H124.627V177.969Z" fill="#F0F0F0"/>
<path d="M124.627 185.824H126.893V188.163H124.627V185.824Z" fill="#F0F0F0"/>
<path d="M124.627 189.748H126.893V192.087H124.627V189.748Z" fill="#F0F0F0"/>
<path d="M157.315 143.814H159.581V146.153H157.315V143.814Z" fill="#F0F0F0"/>
<path d="M157.315 147.742H159.581V150.081H157.315V147.742Z" fill="#F0F0F0"/>
<path d="M157.315 151.668H159.581V154.007H157.315V151.668Z" fill="#F0F0F0"/>
<path d="M157.315 155.586H159.581V157.925H157.315V155.586Z" fill="#F0F0F0"/>
<path d="M157.315 159.514H159.581V161.853H157.315V159.514Z" fill="#F0F0F0"/>
<path d="M157.315 163.436H159.581V165.774H157.315V163.436Z" fill="#F0F0F0"/>
<path d="M157.315 167.363H159.581V169.702H157.315V167.363Z" fill="#F0F0F0"/>
<path d="M157.315 179.145H159.581V181.483H157.315V179.145Z" fill="#F0F0F0"/>
<path d="M157.315 183.068H159.581V185.407H157.315V183.068Z" fill="#F0F0F0"/>
<path d="M157.315 186.996H159.581V189.335H157.315V186.996Z" fill="#F0F0F0"/>
<path d="M160.918 143.814H163.184V146.153H160.918V143.814Z" fill="#F0F0F0"/>
<path d="M160.918 147.742H163.184V150.081H160.918V147.742Z" fill="#F0F0F0"/>
<path d="M160.918 151.668H163.184V154.007H160.918V151.668Z" fill="#F0F0F0"/>
<path d="M160.918 155.586H163.184V157.925H160.918V155.586Z" fill="#F0F0F0"/>
<path d="M160.918 159.514H163.184V161.853H160.918V159.514Z" fill="#F0F0F0"/>
<path d="M160.918 163.436H163.184V165.774H160.918V163.436Z" fill="#F0F0F0"/>
<path d="M160.918 167.363H163.184V169.702H160.918V167.363Z" fill="#F0F0F0"/>
<path d="M164.522 143.814H166.788V146.153H164.522V143.814Z" fill="#F0F0F0"/>
<path d="M164.522 147.742H166.788V150.081H164.522V147.742Z" fill="#F0F0F0"/>
<path d="M164.522 151.668H166.788V154.007H164.522V151.668Z" fill="#F0F0F0"/>
<path d="M164.522 155.586H166.788V157.925H164.522V155.586Z" fill="#F0F0F0"/>
<path d="M164.522 159.514H166.788V161.853H164.522V159.514Z" fill="#F0F0F0"/>
<path d="M164.522 163.436H166.788V165.774H164.522V163.436Z" fill="#F0F0F0"/>
<path d="M164.522 167.363H166.788V169.702H164.522V167.363Z" fill="#F0F0F0"/>
<path d="M168.126 143.814H170.392V146.153H168.126V143.814Z" fill="#F0F0F0"/>
<path d="M168.126 147.742H170.392V150.081H168.126V147.742Z" fill="#F0F0F0"/>
<path d="M168.126 151.668H170.392V154.007H168.126V151.668Z" fill="#F0F0F0"/>
<path d="M168.126 155.586H170.392V157.925H168.126V155.586Z" fill="#F0F0F0"/>
<path d="M168.126 159.514H170.392V161.853H168.126V159.514Z" fill="#F0F0F0"/>
<path d="M168.126 163.436H170.392V165.774H168.126V163.436Z" fill="#F0F0F0"/>
<path d="M168.126 167.363H170.392V169.702H168.126V167.363Z" fill="#F0F0F0"/>
<path d="M168.126 171.289H170.392V173.628H168.126V171.289Z" fill="#F0F0F0"/>
<path d="M168.126 175.215H170.392V177.554H168.126V175.215Z" fill="#F0F0F0"/>
<path d="M168.126 179.145H170.392V181.483H168.126V179.145Z" fill="#F0F0F0"/>
<path d="M168.126 183.068H170.392V185.407H168.126V183.068Z" fill="#F0F0F0"/>
<path d="M171.729 143.814H173.995V146.153H171.729V143.814Z" fill="#F0F0F0"/>
<path d="M171.729 147.742H173.995V150.081H171.729V147.742Z" fill="#F0F0F0"/>
<path d="M171.729 151.668H173.995V154.007H171.729V151.668Z" fill="#F0F0F0"/>
<path d="M171.729 155.586H173.995V157.925H171.729V155.586Z" fill="#F0F0F0"/>
<path d="M171.729 159.514H173.995V161.853H171.729V159.514Z" fill="#F0F0F0"/>
<path d="M171.729 163.436H173.995V165.774H171.729V163.436Z" fill="#F0F0F0"/>
<path d="M171.729 167.363H173.995V169.702H171.729V167.363Z" fill="#F0F0F0"/>
<path d="M171.729 171.289H173.995V173.628H171.729V171.289Z" fill="#F0F0F0"/>
<path d="M171.729 175.215H173.995V177.554H171.729V175.215Z" fill="#F0F0F0"/>
<path d="M171.729 179.145H173.995V181.483H171.729V179.145Z" fill="#F0F0F0"/>
<path d="M171.729 183.068H173.995V185.407H171.729V183.068Z" fill="#F0F0F0"/>
<path d="M171.729 186.996H173.995V189.335H171.729V186.996Z" fill="#F0F0F0"/>
<path d="M171.729 198.766H173.995V201.105H171.729V198.766Z" fill="#F0F0F0"/>
<path d="M171.729 202.689H173.995V205.028H171.729V202.689Z" fill="#F0F0F0"/>
<path d="M175.333 143.814H177.599V146.153H175.333V143.814Z" fill="#F0F0F0"/>
<path d="M175.333 147.742H177.599V150.081H175.333V147.742Z" fill="#F0F0F0"/>
<path d="M175.333 151.668H177.599V154.007H175.333V151.668Z" fill="#F0F0F0"/>
<path d="M175.333 163.436H177.599V165.774H175.333V163.436Z" fill="#F0F0F0"/>
<path d="M175.333 167.363H177.599V169.702H175.333V167.363Z" fill="#F0F0F0"/>
<path d="M175.333 171.289H177.599V173.628H175.333V171.289Z" fill="#F0F0F0"/>
<path d="M175.333 175.215H177.599V177.554H175.333V175.215Z" fill="#F0F0F0"/>
<path d="M175.333 179.145H177.599V181.483H175.333V179.145Z" fill="#F0F0F0"/>
<path d="M175.333 183.068H177.599V185.407H175.333V183.068Z" fill="#F0F0F0"/>
<path d="M175.333 186.996H177.599V189.335H175.333V186.996Z" fill="#F0F0F0"/>
<path d="M175.333 198.766H177.599V201.105H175.333V198.766Z" fill="#F0F0F0"/>
<path d="M175.333 202.689H177.599V205.028H175.333V202.689Z" fill="#F0F0F0"/>
<path d="M175.333 206.617H177.599V208.956H175.333V206.617Z" fill="#F0F0F0"/>
<path d="M213.09 120.256H215.355V122.595H213.09V120.256Z" fill="#F0F0F0"/>
<path d="M213.09 124.182H215.355V126.521H213.09V124.182Z" fill="#F0F0F0"/>
<path d="M213.09 128.111H215.355V130.45H213.09V128.111Z" fill="#F0F0F0"/>
<path d="M213.09 132.035H215.355V134.374H213.09V132.035Z" fill="#F0F0F0"/>
<path d="M213.09 135.963H215.355V138.302H213.09V135.963Z" fill="#F0F0F0"/>
<path d="M213.09 139.891H215.355V142.23H213.09V139.891Z" fill="#F0F0F0"/>
<path d="M213.09 143.814H215.355V146.153H213.09V143.814Z" fill="#F0F0F0"/>
<path d="M213.09 147.742H215.355V150.081H213.09V147.742Z" fill="#F0F0F0"/>
<path d="M213.09 151.668H215.355V154.007H213.09V151.668Z" fill="#F0F0F0"/>
<path d="M213.09 155.586H215.355V157.925H213.09V155.586Z" fill="#F0F0F0"/>
<path d="M213.09 159.514H215.355V161.853H213.09V159.514Z" fill="#F0F0F0"/>
<path d="M213.09 163.436H215.355V165.774H213.09V163.436Z" fill="#F0F0F0"/>
<path d="M213.09 167.363H215.355V169.702H213.09V167.363Z" fill="#F0F0F0"/>
<path d="M213.09 171.289H215.355V173.628H213.09V171.289Z" fill="#F0F0F0"/>
<path d="M213.09 175.215H215.355V177.554H213.09V175.215Z" fill="#F0F0F0"/>
<path d="M213.09 179.145H215.355V181.483H213.09V179.145Z" fill="#F0F0F0"/>
<path d="M213.09 183.068H215.355V185.407H213.09V183.068Z" fill="#F0F0F0"/>
<path d="M213.09 186.996H215.355V189.335H213.09V186.996Z" fill="#F0F0F0"/>
<path d="M213.09 190.922H215.355V193.261H213.09V190.922Z" fill="#F0F0F0"/>
<path d="M213.09 194.84H215.355V197.179H213.09V194.84Z" fill="#F0F0F0"/>
<path d="M213.09 198.766H215.355V201.105H213.09V198.766Z" fill="#F0F0F0"/>
<path d="M213.09 202.689H215.355V205.028H213.09V202.689Z" fill="#F0F0F0"/>
<path d="M213.09 206.617H215.355V208.956H213.09V206.617Z" fill="#F0F0F0"/>
<path d="M216.693 120.256H218.959V122.595H216.693V120.256Z" fill="#F0F0F0"/>
<path d="M216.693 124.182H218.959V126.521H216.693V124.182Z" fill="#F0F0F0"/>
<path d="M216.693 128.111H218.959V130.45H216.693V128.111Z" fill="#F0F0F0"/>
<path d="M216.693 132.035H218.959V134.374H216.693V132.035Z" fill="#F0F0F0"/>
<path d="M216.693 135.963H218.959V138.302H216.693V135.963Z" fill="#F0F0F0"/>
<path d="M216.693 139.891H218.959V142.23H216.693V139.891Z" fill="#F0F0F0"/>
<path d="M216.693 143.814H218.959V146.153H216.693V143.814Z" fill="#F0F0F0"/>
<path d="M216.693 147.742H218.959V150.081H216.693V147.742Z" fill="#F0F0F0"/>
<path d="M216.693 151.668H218.959V154.007H216.693V151.668Z" fill="#F0F0F0"/>
<path d="M216.693 155.586H218.959V157.925H216.693V155.586Z" fill="#F0F0F0"/>
<path d="M216.693 159.514H218.959V161.853H216.693V159.514Z" fill="#F0F0F0"/>
<path d="M216.693 163.436H218.959V165.774H216.693V163.436Z" fill="#F0F0F0"/>
<path d="M216.693 167.363H218.959V169.702H216.693V167.363Z" fill="#F0F0F0"/>
<path d="M216.693 171.289H218.959V173.628H216.693V171.289Z" fill="#F0F0F0"/>
<path d="M216.693 175.215H218.959V177.554H216.693V175.215Z" fill="#F0F0F0"/>
<path d="M216.693 179.145H218.959V181.483H216.693V179.145Z" fill="#F0F0F0"/>
<path d="M216.693 183.068H218.959V185.407H216.693V183.068Z" fill="#F0F0F0"/>
<path d="M216.693 186.996H218.959V189.335H216.693V186.996Z" fill="#F0F0F0"/>
<path d="M216.693 190.922H218.959V193.261H216.693V190.922Z" fill="#F0F0F0"/>
<path d="M220.297 120.256H222.563V122.595H220.297V120.256Z" fill="#F0F0F0"/>
<path d="M220.297 124.182H222.563V126.521H220.297V124.182Z" fill="#F0F0F0"/>
<path d="M220.297 128.111H222.563V130.45H220.297V128.111Z" fill="#F0F0F0"/>
<path d="M220.297 132.035H222.563V134.374H220.297V132.035Z" fill="#F0F0F0"/>
<path d="M220.297 135.963H222.563V138.302H220.297V135.963Z" fill="#F0F0F0"/>
<path d="M220.297 139.891H222.563V142.23H220.297V139.891Z" fill="#F0F0F0"/>
<path d="M220.297 143.814H222.563V146.153H220.297V143.814Z" fill="#F0F0F0"/>
<path d="M220.297 147.742H222.563V150.081H220.297V147.742Z" fill="#F0F0F0"/>
<path d="M220.297 151.668H222.563V154.007H220.297V151.668Z" fill="#F0F0F0"/>
<path d="M220.297 155.586H222.563V157.925H220.297V155.586Z" fill="#F0F0F0"/>
<path d="M220.297 159.514H222.563V161.853H220.297V159.514Z" fill="#F0F0F0"/>
<path d="M220.297 163.436H222.563V165.774H220.297V163.436Z" fill="#F0F0F0"/>
<path d="M220.297 167.363H222.563V169.702H220.297V167.363Z" fill="#F0F0F0"/>
<path d="M220.297 171.289H222.563V173.628H220.297V171.289Z" fill="#F0F0F0"/>
<path d="M220.297 175.215H222.563V177.554H220.297V175.215Z" fill="#F0F0F0"/>
<path d="M220.297 179.145H222.563V181.483H220.297V179.145Z" fill="#F0F0F0"/>
<path d="M220.297 183.068H222.563V185.407H220.297V183.068Z" fill="#F0F0F0"/>
<path d="M220.297 186.996H222.563V189.335H220.297V186.996Z" fill="#F0F0F0"/>
<path d="M220.297 190.922H222.563V193.261H220.297V190.922Z" fill="#F0F0F0"/>
<path d="M223.901 120.256H226.167V122.595H223.901V120.256Z" fill="#F0F0F0"/>
<path d="M223.901 124.182H226.167V126.521H223.901V124.182Z" fill="#F0F0F0"/>
<path d="M223.901 128.111H226.167V130.45H223.901V128.111Z" fill="#F0F0F0"/>
<path d="M223.901 132.035H226.167V134.374H223.901V132.035Z" fill="#F0F0F0"/>
<path d="M223.901 135.963H226.167V138.302H223.901V135.963Z" fill="#F0F0F0"/>
<path d="M223.901 139.891H226.167V142.23H223.901V139.891Z" fill="#F0F0F0"/>
<path d="M223.901 143.814H226.167V146.153H223.901V143.814Z" fill="#F0F0F0"/>
<path d="M223.901 147.742H226.167V150.081H223.901V147.742Z" fill="#F0F0F0"/>
<path d="M223.901 151.668H226.167V154.007H223.901V151.668Z" fill="#F0F0F0"/>
<path d="M223.901 155.586H226.167V157.925H223.901V155.586Z" fill="#F0F0F0"/>
<path d="M223.901 159.514H226.167V161.853H223.901V159.514Z" fill="#F0F0F0"/>
<path d="M223.901 163.436H226.167V165.774H223.901V163.436Z" fill="#F0F0F0"/>
<path d="M223.901 167.363H226.167V169.702H223.901V167.363Z" fill="#F0F0F0"/>
<path d="M223.901 171.289H226.167V173.628H223.901V171.289Z" fill="#F0F0F0"/>
<path d="M223.901 175.215H226.167V177.554H223.901V175.215Z" fill="#F0F0F0"/>
<path d="M227.504 120.256H229.77V122.595H227.504V120.256Z" fill="#F0F0F0"/>
<path d="M227.504 124.182H229.77V126.521H227.504V124.182Z" fill="#F0F0F0"/>
<path d="M227.504 128.111H229.77V130.45H227.504V128.111Z" fill="#F0F0F0"/>
<path d="M227.504 132.035H229.77V134.374H227.504V132.035Z" fill="#F0F0F0"/>
<path d="M227.504 135.963H229.77V138.302H227.504V135.963Z" fill="#F0F0F0"/>
<path d="M227.504 139.891H229.77V142.23H227.504V139.891Z" fill="#F0F0F0"/>
<path d="M227.504 143.814H229.77V146.153H227.504V143.814Z" fill="#F0F0F0"/>
<path d="M227.504 147.742H229.77V150.081H227.504V147.742Z" fill="#F0F0F0"/>
<path d="M227.504 151.668H229.77V154.007H227.504V151.668Z" fill="#F0F0F0"/>
<path d="M227.504 155.586H229.77V157.925H227.504V155.586Z" fill="#F0F0F0"/>
<path d="M227.504 159.514H229.77V161.853H227.504V159.514Z" fill="#F0F0F0"/>
<path d="M227.504 163.436H229.77V165.774H227.504V163.436Z" fill="#F0F0F0"/>
<path d="M227.504 167.363H229.77V169.702H227.504V167.363Z" fill="#F0F0F0"/>
<path d="M231.108 120.256H233.374V122.595H231.108V120.256Z" fill="#F0F0F0"/>
<path d="M231.108 124.182H233.374V126.521H231.108V124.182Z" fill="#F0F0F0"/>
<path d="M231.108 128.111H233.374V130.45H231.108V128.111Z" fill="#F0F0F0"/>
<path d="M231.108 132.035H233.374V134.374H231.108V132.035Z" fill="#F0F0F0"/>
<path d="M231.108 135.963H233.374V138.302H231.108V135.963Z" fill="#F0F0F0"/>
<path d="M231.108 139.891H233.374V142.23H231.108V139.891Z" fill="#F0F0F0"/>
<path d="M231.108 143.814H233.374V146.153H231.108V143.814Z" fill="#F0F0F0"/>
<path d="M231.108 147.742H233.374V150.081H231.108V147.742Z" fill="#F0F0F0"/>
<path d="M231.108 151.668H233.374V154.007H231.108V151.668Z" fill="#F0F0F0"/>
<path d="M231.108 155.586H233.374V157.925H231.108V155.586Z" fill="#F0F0F0"/>
<path d="M231.108 159.514H233.374V161.853H231.108V159.514Z" fill="#F0F0F0"/>
<path d="M231.108 163.436H233.374V165.774H231.108V163.436Z" fill="#F0F0F0"/>
<path d="M20.8121 119.092H23.078V121.431H20.8121V119.092Z" fill="#F0F0F0"/>
<path d="M20.8121 123.02H23.078V125.358H20.8121V123.02Z" fill="#F0F0F0"/>
<path d="M20.8121 126.945H23.078V129.284H20.8121V126.945Z" fill="#F0F0F0"/>
<path d="M20.8121 130.863H23.078V133.202H20.8121V130.863Z" fill="#F0F0F0"/>
<path d="M20.8121 134.789H23.078V137.128H20.8121V134.789Z" fill="#F0F0F0"/>
<path d="M20.8121 138.715H23.078V141.054H20.8121V138.715Z" fill="#F0F0F0"/>
<path d="M20.8121 142.643H23.078V144.981H20.8121V142.643Z" fill="#F0F0F0"/>
<path d="M20.8121 146.566H23.078V148.905H20.8121V146.566Z" fill="#F0F0F0"/>
<path d="M20.8121 150.494H23.078V152.833H20.8121V150.494Z" fill="#F0F0F0"/>
<path d="M20.8121 154.418H23.078V156.757H20.8121V154.418Z" fill="#F0F0F0"/>
<path d="M20.8121 158.346H23.078V160.685H20.8121V158.346Z" fill="#F0F0F0"/>
<path d="M20.8121 162.273H23.078V164.612H20.8121V162.273Z" fill="#F0F0F0"/>
<path d="M20.8121 166.197H23.078V168.536H20.8121V166.197Z" fill="#F0F0F0"/>
<path d="M20.8121 170.115H23.078V172.454H20.8121V170.115Z" fill="#F0F0F0"/>
<path d="M20.8121 174.043H23.078V176.382H20.8121V174.043Z" fill="#F0F0F0"/>
<path d="M20.8121 177.969H23.078V180.308H20.8121V177.969Z" fill="#F0F0F0"/>
<path d="M20.8121 181.896H23.078V184.235H20.8121V181.896Z" fill="#F0F0F0"/>
<path d="M20.8121 189.748H23.078V192.087H20.8121V189.748Z" fill="#F0F0F0"/>
<path d="M20.8121 193.674H23.078V196.013H20.8121V193.674Z" fill="#F0F0F0"/>
<path d="M20.8121 197.598H23.078V199.937H20.8121V197.598Z" fill="#F0F0F0"/>
<path d="M20.8121 201.525H23.078V203.864H20.8121V201.525Z" fill="#F0F0F0"/>
<path d="M20.8121 205.445H23.078V207.784H20.8121V205.445Z" fill="#F0F0F0"/>
<path d="M24.4158 119.092H26.6817V121.431H24.4158V119.092Z" fill="#F0F0F0"/>
<path d="M24.4158 123.02H26.6817V125.358H24.4158V123.02Z" fill="#F0F0F0"/>
<path d="M24.4158 126.945H26.6817V129.284H24.4158V126.945Z" fill="#F0F0F0"/>
<path d="M24.4158 130.863H26.6817V133.202H24.4158V130.863Z" fill="#F0F0F0"/>
<path d="M24.4158 134.789H26.6817V137.128H24.4158V134.789Z" fill="#F0F0F0"/>
<path d="M24.4158 138.715H26.6817V141.054H24.4158V138.715Z" fill="#F0F0F0"/>
<path d="M24.4158 142.643H26.6817V144.981H24.4158V142.643Z" fill="#F0F0F0"/>
<path d="M24.4158 146.566H26.6817V148.905H24.4158V146.566Z" fill="#F0F0F0"/>
<path d="M24.4158 150.494H26.6817V152.833H24.4158V150.494Z" fill="#F0F0F0"/>
<path d="M24.4158 154.418H26.6817V156.757H24.4158V154.418Z" fill="#F0F0F0"/>
<path d="M24.4158 158.346H26.6817V160.685H24.4158V158.346Z" fill="#F0F0F0"/>
<path d="M24.4158 162.273H26.6817V164.612H24.4158V162.273Z" fill="#F0F0F0"/>
<path d="M24.4158 166.197H26.6817V168.536H24.4158V166.197Z" fill="#F0F0F0"/>
<path d="M24.4158 170.115H26.6817V172.454H24.4158V170.115Z" fill="#F0F0F0"/>
<path d="M24.4158 174.043H26.6817V176.382H24.4158V174.043Z" fill="#F0F0F0"/>
<path d="M24.4158 177.969H26.6817V180.308H24.4158V177.969Z" fill="#F0F0F0"/>
<path d="M24.4158 201.525H26.6817V203.864H24.4158V201.525Z" fill="#F0F0F0"/>
<path d="M24.4158 205.445H26.6817V207.784H24.4158V205.445Z" fill="#F0F0F0"/>
<path d="M28.0104 119.092H30.2763V121.431H28.0104V119.092Z" fill="#F0F0F0"/>
<path d="M28.0104 123.02H30.2763V125.358H28.0104V123.02Z" fill="#F0F0F0"/>
<path d="M28.0104 126.945H30.2763V129.284H28.0104V126.945Z" fill="#F0F0F0"/>
<path d="M28.0104 130.863H30.2763V133.202H28.0104V130.863Z" fill="#F0F0F0"/>
<path d="M28.0103 134.789H30.2762V137.128H28.0103V134.789Z" fill="#F0F0F0"/>
<path d="M28.0103 138.715H30.2762V141.054H28.0103V138.715Z" fill="#F0F0F0"/>
<path d="M28.0104 142.643H30.2763V144.981H28.0104V142.643Z" fill="#F0F0F0"/>
<path d="M28.0104 146.566H30.2763V148.905H28.0104V146.566Z" fill="#F0F0F0"/>
<path d="M28.0104 150.494H30.2763V152.833H28.0104V150.494Z" fill="#F0F0F0"/>
<path d="M28.0104 154.418H30.2763V156.757H28.0104V154.418Z" fill="#F0F0F0"/>
<path d="M28.0104 158.346H30.2763V160.685H28.0104V158.346Z" fill="#F0F0F0"/>
<path d="M28.0103 162.273H30.2762V164.612H28.0103V162.273Z" fill="#F0F0F0"/>
<path d="M28.0104 166.197H30.2763V168.536H28.0104V166.197Z" fill="#F0F0F0"/>
<path d="M28.0104 170.115H30.2763V172.454H28.0104V170.115Z" fill="#F0F0F0"/>
<path d="M28.0104 174.043H30.2763V176.382H28.0104V174.043Z" fill="#F0F0F0"/>
<path d="M28.0104 177.969H30.2763V180.308H28.0104V177.969Z" fill="#F0F0F0"/>
<path d="M28.0104 185.824H30.2763V188.163H28.0104V185.824Z" fill="#F0F0F0"/>
<path d="M28.0103 189.748H30.2762V192.087H28.0103V189.748Z" fill="#F0F0F0"/>
<path d="M28.0104 193.674H30.2763V196.013H28.0104V193.674Z" fill="#F0F0F0"/>
<path d="M28.0104 197.598H30.2763V199.937H28.0104V197.598Z" fill="#F0F0F0"/>
<path d="M28.0104 205.445H30.2763V207.784H28.0104V205.445Z" fill="#F0F0F0"/>
<path d="M90.8652 146.566H93.1311V148.905H90.8652V146.566Z" fill="#F0F0F0"/>
<path d="M90.8652 150.494H93.1311V152.833H90.8652V150.494Z" fill="#F0F0F0"/>
<path d="M90.8652 154.418H93.1311V156.757H90.8652V154.418Z" fill="#F0F0F0"/>
<path d="M90.8652 158.346H93.1311V160.685H90.8652V158.346Z" fill="#F0F0F0"/>
<path d="M90.8652 162.273H93.1312V164.612H90.8652V162.273Z" fill="#F0F0F0"/>
<path d="M90.8652 166.197H93.1311V168.536H90.8652V166.197Z" fill="#F0F0F0"/>
<path d="M90.8652 170.115H93.1311V172.454H90.8652V170.115Z" fill="#F0F0F0"/>
<path d="M90.8652 174.043H93.1311V176.382H90.8652V174.043Z" fill="#F0F0F0"/>
<path d="M90.8652 177.969H93.1311V180.308H90.8652V177.969Z" fill="#F0F0F0"/>
<path d="M90.8652 181.896H93.1311V184.235H90.8652V181.896Z" fill="#F0F0F0"/>
<path d="M90.8652 185.824H93.1311V188.163H90.8652V185.824Z" fill="#F0F0F0"/>
<path d="M90.8652 189.748H93.1312V192.087H90.8652V189.748Z" fill="#F0F0F0"/>
<path d="M90.8652 193.674H93.1311V196.013H90.8652V193.674Z" fill="#F0F0F0"/>
<path d="M90.8652 201.525H93.1311V203.864H90.8652V201.525Z" fill="#F0F0F0"/>
<path d="M90.8652 205.445H93.1311V207.784H90.8652V205.445Z" fill="#F0F0F0"/>
<path d="M90.8652 209.369H93.1311V211.708H90.8652V209.369Z" fill="#F0F0F0"/>
<path d="M90.8652 213.297H93.1311V215.636H90.8652V213.297Z" fill="#F0F0F0"/>
<path d="M90.8652 221.148H93.1311V223.487H90.8652V221.148Z" fill="#F0F0F0"/>
<path d="M90.8652 225.076H93.1311V227.415H90.8652V225.076Z" fill="#F0F0F0"/>
<path d="M90.8652 229.002H93.1311V231.341H90.8652V229.002Z" fill="#F0F0F0"/>
<path d="M94.4689 146.566H96.7348V148.905H94.4689V146.566Z" fill="#F0F0F0"/>
<path d="M94.4689 150.494H96.7348V152.833H94.4689V150.494Z" fill="#F0F0F0"/>
<path d="M94.4689 154.418H96.7348V156.757H94.4689V154.418Z" fill="#F0F0F0"/>
<path d="M94.4689 158.346H96.7348V160.685H94.4689V158.346Z" fill="#F0F0F0"/>
<path d="M94.4689 162.273H96.7348V164.612H94.4689V162.273Z" fill="#F0F0F0"/>
<path d="M94.4689 166.197H96.7348V168.536H94.4689V166.197Z" fill="#F0F0F0"/>
<path d="M94.4689 170.115H96.7348V172.454H94.4689V170.115Z" fill="#F0F0F0"/>
<path d="M94.4689 174.043H96.7348V176.382H94.4689V174.043Z" fill="#F0F0F0"/>
<path d="M94.4689 177.969H96.7348V180.308H94.4689V177.969Z" fill="#F0F0F0"/>
<path d="M94.4689 181.896H96.7348V184.235H94.4689V181.896Z" fill="#F0F0F0"/>
<path d="M94.4689 185.824H96.7348V188.163H94.4689V185.824Z" fill="#F0F0F0"/>
<path d="M94.4689 189.748H96.7348V192.087H94.4689V189.748Z" fill="#F0F0F0"/>
<path d="M94.4689 193.674H96.7348V196.013H94.4689V193.674Z" fill="#F0F0F0"/>
<path d="M94.4689 205.445H96.7348V207.784H94.4689V205.445Z" fill="#F0F0F0"/>
<path d="M94.4689 209.369H96.7348V211.708H94.4689V209.369Z" fill="#F0F0F0"/>
<path d="M94.4689 217.223H96.7348V219.562H94.4689V217.223Z" fill="#F0F0F0"/>
<path d="M94.4689 221.148H96.7348V223.487H94.4689V221.148Z" fill="#F0F0F0"/>
<path d="M94.4689 225.076H96.7348V227.415H94.4689V225.076Z" fill="#F0F0F0"/>
<path d="M94.4689 229.002H96.7348V231.341H94.4689V229.002Z" fill="#F0F0F0"/>
<path d="M98.0725 146.566H100.338V148.905H98.0725V146.566Z" fill="#F0F0F0"/>
<path d="M98.0725 150.494H100.338V152.833H98.0725V150.494Z" fill="#F0F0F0"/>
<path d="M98.0725 154.418H100.338V156.757H98.0725V154.418Z" fill="#F0F0F0"/>
<path d="M98.0725 158.346H100.338V160.685H98.0725V158.346Z" fill="#F0F0F0"/>
<path d="M98.0725 162.273H100.338V164.612H98.0725V162.273Z" fill="#F0F0F0"/>
<path d="M98.0725 166.197H100.338V168.536H98.0725V166.197Z" fill="#F0F0F0"/>
<path d="M98.0725 170.115H100.338V172.454H98.0725V170.115Z" fill="#F0F0F0"/>
<path d="M98.0725 174.043H100.338V176.382H98.0725V174.043Z" fill="#F0F0F0"/>
<path d="M98.0725 177.969H100.338V180.308H98.0725V177.969Z" fill="#F0F0F0"/>
<path d="M98.0725 181.896H100.338V184.235H98.0725V181.896Z" fill="#F0F0F0"/>
<path d="M98.0725 185.824H100.338V188.163H98.0725V185.824Z" fill="#F0F0F0"/>
<path d="M98.0725 189.748H100.338V192.087H98.0725V189.748Z" fill="#F0F0F0"/>
<path d="M98.0725 193.674H100.338V196.013H98.0725V193.674Z" fill="#F0F0F0"/>
<path d="M98.0725 197.598H100.338V199.937H98.0725V197.598Z" fill="#F0F0F0"/>
<path d="M98.0725 205.445H100.338V207.784H98.0725V205.445Z" fill="#F0F0F0"/>
<path d="M98.0725 213.297H100.338V215.636H98.0725V213.297Z" fill="#F0F0F0"/>
<path d="M98.0725 217.223H100.338V219.562H98.0725V217.223Z" fill="#F0F0F0"/>
<path d="M98.0725 221.148H100.338V223.487H98.0725V221.148Z" fill="#F0F0F0"/>
<path d="M98.0725 225.076H100.338V227.415H98.0725V225.076Z" fill="#F0F0F0"/>
<path d="M98.0725 229.002H100.338V231.341H98.0725V229.002Z" fill="#F0F0F0"/>
<path d="M76.1866 168.951H78.4525V171.29H76.1866V168.951Z" fill="#F0F0F0"/>
<path d="M76.1866 172.877H78.4525V175.216H76.1866V172.877Z" fill="#F0F0F0"/>
<path d="M76.1866 176.805H78.4525V179.144H76.1866V176.805Z" fill="#F0F0F0"/>
<path d="M76.1866 180.719H78.4525V183.058H76.1866V180.719Z" fill="#F0F0F0"/>
<path d="M76.1866 184.646H78.4525V186.985H76.1866V184.646Z" fill="#F0F0F0"/>
<path d="M76.1866 188.574H78.4526V190.913H76.1866V188.574Z" fill="#F0F0F0"/>
<path d="M76.1866 200.354H78.4525V202.692H76.1866V200.354Z" fill="#F0F0F0"/>
<path d="M76.1866 204.279H78.4525V206.618H76.1866V204.279Z" fill="#F0F0F0"/>
<path d="M76.1866 208.207H78.4525V210.546H76.1866V208.207Z" fill="#F0F0F0"/>
<path d="M76.1866 212.131H78.4526V214.47H76.1866V212.131Z" fill="#F0F0F0"/>
<path d="M76.1866 216.059H78.4525V218.397H76.1866V216.059Z" fill="#F0F0F0"/>
<path d="M76.1866 219.977H78.4525V222.315H76.1866V219.977Z" fill="#F0F0F0"/>
<path d="M76.1866 223.898H78.4525V226.237H76.1866V223.898Z" fill="#F0F0F0"/>
<path d="M79.7903 168.951H82.0562V171.29H79.7903V168.951Z" fill="#F0F0F0"/>
<path d="M79.7903 172.877H82.0562V175.216H79.7903V172.877Z" fill="#F0F0F0"/>
<path d="M79.7903 176.805H82.0562V179.144H79.7903V176.805Z" fill="#F0F0F0"/>
<path d="M79.7903 180.719H82.0562V183.058H79.7903V180.719Z" fill="#F0F0F0"/>
<path d="M79.7903 184.646H82.0562V186.985H79.7903V184.646Z" fill="#F0F0F0"/>
<path d="M79.7903 188.574H82.0562V190.913H79.7903V188.574Z" fill="#F0F0F0"/>
<path d="M79.7903 200.354H82.0562V202.692H79.7903V200.354Z" fill="#F0F0F0"/>
<path d="M79.7903 204.279H82.0562V206.618H79.7903V204.279Z" fill="#F0F0F0"/>
<path d="M79.7903 208.207H82.0562V210.546H79.7903V208.207Z" fill="#F0F0F0"/>
<path d="M79.7903 212.131H82.0562V214.47H79.7903V212.131Z" fill="#F0F0F0"/>
<path d="M79.7903 216.059H82.0562V218.397H79.7903V216.059Z" fill="#F0F0F0"/>
<path d="M79.7903 219.977H82.0562V222.315H79.7903V219.977Z" fill="#F0F0F0"/>
<path d="M79.7903 227.826H82.0562V230.165H79.7903V227.826Z" fill="#F0F0F0"/>
<path d="M199.485 151.668H201.751V154.007H199.485V151.668Z" fill="#F0F0F0"/>
<path d="M199.485 155.586H201.751V157.925H199.485V155.586Z" fill="#F0F0F0"/>
<path d="M199.485 159.514H201.751V161.853H199.485V159.514Z" fill="#F0F0F0"/>
<path d="M199.485 163.436H201.751V165.774H199.485V163.436Z" fill="#F0F0F0"/>
<path d="M199.485 167.363H201.751V169.702H199.485V167.363Z" fill="#F0F0F0"/>
<path d="M199.485 171.289H201.751V173.628H199.485V171.289Z" fill="#F0F0F0"/>
<path d="M199.485 175.215H201.751V177.554H199.485V175.215Z" fill="#F0F0F0"/>
<path d="M199.485 179.145H201.751V181.483H199.485V179.145Z" fill="#F0F0F0"/>
<path d="M199.485 183.068H201.751V185.407H199.485V183.068Z" fill="#F0F0F0"/>
<path d="M199.485 186.996H201.751V189.335H199.485V186.996Z" fill="#F0F0F0"/>
<path d="M199.485 190.922H201.751V193.261H199.485V190.922Z" fill="#F0F0F0"/>
<path d="M199.485 198.766H201.751V201.105H199.485V198.766Z" fill="#F0F0F0"/>
<path d="M199.485 202.689H201.751V205.028H199.485V202.689Z" fill="#F0F0F0"/>
<path d="M199.485 206.617H201.751V208.956H199.485V206.617Z" fill="#F0F0F0"/>
<path d="M199.485 210.543H201.751V212.882H199.485V210.543Z" fill="#F0F0F0"/>
<path d="M199.485 214.471H201.751V216.81H199.485V214.471Z" fill="#F0F0F0"/>
<path d="M199.485 218.396H201.751V220.735H199.485V218.396Z" fill="#F0F0F0"/>
<path d="M199.485 222.322H201.751V224.661H199.485V222.322Z" fill="#F0F0F0"/>
<path d="M199.485 226.25H201.751V228.589H199.485V226.25Z" fill="#F0F0F0"/>
<path d="M203.079 151.668H205.345V154.007H203.079V151.668Z" fill="#F0F0F0"/>
<path d="M203.079 155.586H205.345V157.925H203.079V155.586Z" fill="#F0F0F0"/>
<path d="M203.079 159.514H205.345V161.853H203.079V159.514Z" fill="#F0F0F0"/>
<path d="M203.079 163.436H205.345V165.774H203.079V163.436Z" fill="#F0F0F0"/>
<path d="M203.079 167.363H205.345V169.702H203.079V167.363Z" fill="#F0F0F0"/>
<path d="M203.079 171.289H205.345V173.628H203.079V171.289Z" fill="#F0F0F0"/>
<path d="M203.079 175.215H205.345V177.554H203.079V175.215Z" fill="#F0F0F0"/>
<path d="M203.079 179.145H205.345V181.483H203.079V179.145Z" fill="#F0F0F0"/>
<path d="M203.079 183.068H205.345V185.407H203.079V183.068Z" fill="#F0F0F0"/>
<path d="M203.079 186.996H205.345V189.335H203.079V186.996Z" fill="#F0F0F0"/>
<path d="M203.079 190.922H205.345V193.261H203.079V190.922Z" fill="#F0F0F0"/>
<path d="M203.079 194.84H205.345V197.179H203.079V194.84Z" fill="#F0F0F0"/>
<path d="M203.079 198.766H205.345V201.105H203.079V198.766Z" fill="#F0F0F0"/>
<path d="M203.079 202.689H205.345V205.028H203.079V202.689Z" fill="#F0F0F0"/>
<path d="M203.079 206.617H205.345V208.956H203.079V206.617Z" fill="#F0F0F0"/>
<path d="M203.079 210.543H205.345V212.882H203.079V210.543Z" fill="#F0F0F0"/>
<path d="M203.079 214.471H205.345V216.81H203.079V214.471Z" fill="#F0F0F0"/>
<path d="M203.079 218.396H205.345V220.735H203.079V218.396Z" fill="#F0F0F0"/>
<path d="M203.079 222.322H205.345V224.661H203.079V222.322Z" fill="#F0F0F0"/>
<path d="M203.079 226.25H205.345V228.589H203.079V226.25Z" fill="#F0F0F0"/>
<path d="M181.73 166.949H183.996V169.288H181.73V166.949Z" fill="#F0F0F0"/>
<path d="M181.73 170.877H183.996V173.216H181.73V170.877Z" fill="#F0F0F0"/>
<path d="M181.73 174.805H183.996V177.144H181.73V174.805Z" fill="#F0F0F0"/>
<path d="M181.73 178.729H183.996V181.067H181.73V178.729Z" fill="#F0F0F0"/>
<path d="M181.73 182.654H183.996V184.993H181.73V182.654Z" fill="#F0F0F0"/>
<path d="M181.73 186.582H183.996V188.921H181.73V186.582Z" fill="#F0F0F0"/>
<path d="M181.73 190.51H183.996V192.849H181.73V190.51Z" fill="#F0F0F0"/>
<path d="M181.73 194.428H183.996V196.767H181.73V194.428Z" fill="#F0F0F0"/>
<path d="M181.73 198.354H183.996V200.692H181.73V198.354Z" fill="#F0F0F0"/>
<path d="M181.73 202.275H183.996V204.614H181.73V202.275Z" fill="#F0F0F0"/>
<path d="M185.334 166.949H187.6V169.288H185.334V166.949Z" fill="#F0F0F0"/>
<path d="M185.334 170.877H187.6V173.216H185.334V170.877Z" fill="#F0F0F0"/>
<path d="M185.334 174.805H187.6V177.144H185.334V174.805Z" fill="#F0F0F0"/>
<path d="M185.334 178.729H187.6V181.067H185.334V178.729Z" fill="#F0F0F0"/>
<path d="M185.334 182.654H187.6V184.993H185.334V182.654Z" fill="#F0F0F0"/>
<path d="M185.334 186.582H187.6V188.921H185.334V186.582Z" fill="#F0F0F0"/>
<path d="M185.334 190.51H187.6V192.849H185.334V190.51Z" fill="#F0F0F0"/>
<path d="M185.334 194.428H187.6V196.767H185.334V194.428Z" fill="#F0F0F0"/>
<path d="M185.334 198.354H187.6V200.692H185.334V198.354Z" fill="#F0F0F0"/>
<path d="M163.903 17.9844H167.707V236.919H163.903V17.9844Z" fill="#E0E0E0"/>
<path d="M92.2757 17.9844H96.0796V236.919H92.2757V17.9844Z" fill="#E0E0E0"/>
<path d="M20.6574 17.9844H24.4612V236.919H20.6574V17.9844Z" fill="#E0E0E0"/>
<path d="M291.369 215.578H267.909C266.845 215.578 265.824 216.015 265.071 216.791C264.319 217.568 263.896 218.622 263.896 219.72V266.526H295.373V219.758C295.378 219.212 295.278 218.67 295.079 218.163C294.88 217.657 294.586 217.197 294.214 216.808C293.842 216.419 293.399 216.111 292.911 215.9C292.422 215.689 291.898 215.579 291.369 215.578Z" fill="#F0F0F0"/>
<path d="M263.896 222.512H295.373V226.166H263.896V222.512Z" fill="#E6E6E6"/>
<path d="M277.473 260.395H269.629C269.057 260.395 268.508 260.629 268.104 261.047C267.699 261.464 267.472 262.03 267.472 262.621V266.566H279.639V262.621C279.639 262.328 279.583 262.037 279.474 261.767C279.365 261.496 279.205 261.25 279.004 261.043C278.803 260.836 278.564 260.673 278.301 260.561C278.039 260.45 277.757 260.393 277.473 260.395Z" fill="#E0E0E0"/>
<path d="M267.436 266.565H276.154C276.525 266.565 276.882 266.413 277.145 266.142C277.408 265.87 277.555 265.502 277.555 265.119C277.553 264.737 277.404 264.371 277.142 264.102C276.879 263.833 276.524 263.682 276.154 263.682H267.436C267.066 263.682 266.711 263.833 266.448 264.102C266.185 264.371 266.037 264.737 266.034 265.119C266.034 265.502 266.182 265.87 266.445 266.142C266.708 266.413 267.064 266.565 267.436 266.565Z" fill="#E6E6E6"/>
<path d="M198.384 309.094C100.937 309.094 21.9405 304.334 21.9405 298.461C21.9405 292.589 100.937 287.828 198.384 287.828C295.83 287.828 374.827 292.589 374.827 298.461C374.827 304.334 295.83 309.094 198.384 309.094Z" fill="#F5F5F5"/>
<path d="M95.4426 277.882L121.66 275.224V237.182H132.053V275.205L158.343 277.882C159.604 278.01 160.773 278.618 161.624 279.586C162.475 280.555 162.947 281.816 162.948 283.123V287.191H90.8016V283.123C90.801 281.809 91.2771 280.542 92.136 279.572C92.9949 278.602 94.1746 277.999 95.4426 277.882Z" fill="#263238"/>
<path opacity="0.2" d="M95.4426 277.882L121.66 275.224V237.182H132.053V275.205L158.343 277.882C159.604 278.01 160.773 278.618 161.624 279.586C162.475 280.555 162.947 281.816 162.948 283.123V287.191H90.8016V283.123C90.801 281.809 91.2771 280.542 92.136 279.572C92.9949 278.602 94.1746 277.999 95.4426 277.882Z" fill="white"/>
<path d="M160.208 299.252C156.454 299.252 153.411 296.111 153.411 292.235C153.411 288.36 156.454 285.219 160.208 285.219C163.963 285.219 167.006 288.36 167.006 292.235C167.006 296.111 163.963 299.252 160.208 299.252Z" fill="#263238"/>
<path d="M93.6044 299.252C89.85 299.252 86.8066 296.111 86.8066 292.235C86.8066 288.36 89.85 285.219 93.6044 285.219C97.3587 285.219 100.402 288.36 100.402 292.235C100.402 296.111 97.3587 299.252 93.6044 299.252Z" fill="#263238"/>
<path d="M133.836 211.482H119.867V241.475C119.867 242.504 120.263 243.49 120.968 244.218C121.673 244.945 122.629 245.354 123.626 245.354H130.078C131.075 245.354 132.031 244.945 132.735 244.218C133.44 243.49 133.836 242.504 133.836 241.475V211.482Z" fill="#263238"/>
<path opacity="0.3" d="M133.836 211.482H119.867V241.475C119.867 242.504 120.263 243.49 120.968 244.218C121.673 244.945 122.629 245.354 123.626 245.354H130.078C131.075 245.354 132.031 244.945 132.735 244.218C133.44 243.49 133.836 242.504 133.836 241.475V211.482Z" fill="white"/>
<path d="M102.013 152.033C102.013 152.033 100.029 202.756 113.716 211.482H98.0908C98.0908 211.482 85.9876 194.208 89.4092 152.033H102.013Z" fill="#263238"/>
<path opacity="0.3" d="M102.013 152.033C102.013 152.033 100.029 202.756 113.716 211.482H98.0908C98.0908 211.482 85.9876 194.208 89.4092 152.033H102.013Z" fill="white"/>
<path d="M92.7763 215.371H162.775V209.087C162.775 207.841 162.295 206.647 161.442 205.766C160.589 204.885 159.431 204.391 158.225 204.391H97.3264C96.1196 204.391 94.9623 204.885 94.1089 205.766C93.2556 206.647 92.7763 207.841 92.7763 209.087V215.371Z" fill="#263238"/>
<path d="M163.867 215.371H91.6933C90.6831 215.371 89.8642 214.526 89.8642 213.483V211.774C89.8642 210.731 90.6831 209.886 91.6933 209.886H163.867C164.877 209.886 165.696 210.731 165.696 211.774V213.483C165.696 214.526 164.877 215.371 163.867 215.371Z" fill="#263238"/>
<path opacity="0.6" d="M163.867 215.371H91.6933C90.6831 215.371 89.8642 214.526 89.8642 213.483V211.774C89.8642 210.731 90.6831 209.886 91.6933 209.886H163.867C164.877 209.886 165.696 210.731 165.696 211.774V213.483C165.696 214.526 164.877 215.371 163.867 215.371Z" fill="white"/>
<path d="M85.578 124.84H110.603C117.931 124.84 123.872 130.971 123.872 138.535V148.642C123.872 156.206 117.931 162.337 110.603 162.337H85.578C78.2503 162.337 72.31 156.206 72.31 148.642V138.535C72.31 130.971 78.2503 124.84 85.578 124.84Z" fill="#263238"/>
<path d="M186.508 83.3978L191.504 69.806C191.504 69.806 189.356 67.7583 190.831 65.6824C192.305 63.6065 201.514 57.7734 203.189 58.7972C204.863 59.8211 208.603 63.6911 206.583 65.8421C204.563 67.9931 195.663 71.5719 195.663 71.5719L191.24 89.4188L186.508 83.3978Z" fill="#E4897B"/>
<path d="M151.627 109.24C151.627 109.24 174.377 104.421 176.807 103.266C179.237 102.111 188.374 74.4668 188.374 74.4668L195.39 77.8483C195.39 77.8483 189.748 105.596 183.978 112.19C178.209 118.784 153.584 124.401 153.584 124.401L151.627 109.24Z" fill="#B40000"/>
<path opacity="0.2" d="M153.638 124.372L154.057 124.269C155.294 123.978 159.18 123.039 163.794 121.639C171.283 119.394 180.729 116.003 184.024 112.199C189.784 105.624 195.435 77.8483 195.435 77.8483L188.428 74.4668C188.428 74.4668 179.282 102.12 176.807 103.266C174.332 104.412 151.627 109.24 151.627 109.24L153.638 124.372Z" fill="black"/>
<path d="M188.31 73.9199L186.863 76.8036L195.872 80.0067L195.526 76.4842L188.31 73.9199Z" fill="#B40000"/>
<path opacity="0.2" d="M153.465 123.986C154.721 123.798 158.661 123.168 163.375 122.107C160.691 117.316 152.828 114.855 152.828 114.855L153.465 123.986Z" fill="black"/>
<path d="M119.594 90.0959C119.594 90.0959 118.257 103.087 122.916 106.28C127.575 109.474 150.517 105.735 153.119 100.503C155.722 95.2715 145.93 81.0879 145.93 81.0879L119.594 90.0959Z" fill="#263238"/>
<path d="M212.407 261.031L206.419 262.524L203.389 253.995L200.641 246.237L207.457 243.24L210.077 252.652L212.407 261.031Z" fill="#E4897B"/>
<path opacity="0.2" d="M210.077 252.652L203.389 253.995L200.641 246.237L207.457 243.24L210.077 252.652Z" fill="black"/>
<path d="M209.477 248.154L201.177 251.339C201.177 251.339 179.037 194.2 174.487 194.041C169.937 193.881 123.608 215.823 111.996 203.631C100.384 191.439 117.174 162.038 117.174 162.038C117.174 162.038 145.102 157.924 147.204 164.434C147.722 166.352 148.117 168.304 148.387 170.276C148.706 172.267 148.924 173.939 148.924 173.939C149.789 173.714 177.826 166.246 188.874 173.939C200.113 181.764 209.477 248.154 209.477 248.154Z" fill="#B40000"/>
<path opacity="0.6" d="M209.477 248.154L201.177 251.339C201.177 251.339 179.037 194.2 174.487 194.041C169.937 193.881 123.608 215.823 111.996 203.631C100.384 191.439 117.174 162.038 117.174 162.038C117.174 162.038 145.102 157.924 147.204 164.434C147.722 166.352 148.117 168.304 148.387 170.276C148.706 172.267 148.924 173.939 148.924 173.939C149.789 173.714 177.826 166.246 188.874 173.939C200.113 181.764 209.477 248.154 209.477 248.154Z" fill="white"/>
<path d="M161.737 285.405L155.777 283.836L156.923 274.997L157.988 266.9L165.359 267.586L163.448 277.026L161.737 285.405Z" fill="#E4897B"/>
<path opacity="0.2" d="M163.403 277.215L156.887 275.168L157.97 266.986L165.35 267.634L163.403 277.215Z" fill="black"/>
<path d="M197.747 248.162L209.841 243.926L210.36 249.036L201.187 252.38L197.747 248.162Z" fill="#B40000"/>
<path d="M132.053 206.524C132.053 206.524 133.945 206.571 163.239 205.162C163.239 205.162 158.862 242.96 156.468 271.261L165.232 272.802C165.232 272.802 186.162 212.207 185.935 202.579C185.707 192.951 175.014 190.133 175.014 190.133C175.014 190.133 154.148 202.579 132.053 206.524Z" fill="#B40000"/>
<path opacity="0.6" d="M132.053 206.524C132.053 206.524 133.945 206.571 163.239 205.162C163.239 205.162 158.862 242.96 156.468 271.261L165.232 272.802C165.232 272.802 186.162 212.207 185.935 202.579C185.707 192.951 175.014 190.133 175.014 190.133C175.014 190.133 154.148 202.579 132.053 206.524Z" fill="white"/>
<path opacity="0.1" d="M132.053 206.524C132.053 206.524 133.945 206.571 163.239 205.162C163.239 205.162 158.862 242.96 156.468 271.261L165.232 272.802C165.232 272.802 186.162 212.207 185.935 202.579C185.707 192.951 175.014 190.133 175.014 190.133C175.014 190.133 154.148 202.579 132.053 206.524Z" fill="black"/>
<path d="M155.194 268.518L167.234 269.936L164.904 274.802L155.158 273.515L155.194 268.518Z" fill="#B40000"/>
<path opacity="0.1" d="M148.924 173.939L132.59 177.452C132.59 177.452 141.617 172.304 148.387 170.275C148.706 172.267 148.924 173.939 148.924 173.939Z" fill="black"/>
<path d="M117.847 157.557L117.174 162.037L147.204 164.432L147.996 159.125L117.847 157.557Z" fill="#263238"/>
<path opacity="0.2" d="M117.847 157.557L117.174 162.037L147.204 164.432L147.996 159.125L117.847 157.557Z" fill="black"/>
<path d="M127.319 165.066L125.834 164.908L126.611 157.106L128.096 157.264L127.319 165.066Z" fill="#B40000"/>
<path d="M140.66 164.284L134.085 163.848L134.406 158.701L140.981 159.138L140.66 164.284Z" fill="white"/>
<path d="M145.744 165.884L144.26 165.727L145.037 157.924L146.521 158.082L145.744 165.884Z" fill="#B40000"/>
<path opacity="0.6" d="M127.319 165.066L125.834 164.908L126.611 157.106L128.096 157.264L127.319 165.066Z" fill="white"/>
<path opacity="0.6" d="M145.744 165.884L144.26 165.727L145.037 157.924L146.521 158.082L145.744 165.884Z" fill="white"/>
<path d="M152.173 108.816C146.548 110.42 140.711 111.083 134.883 110.78C125.237 110.272 113.752 115.072 113.752 115.072L117.884 157.529L148.042 159.098C148.042 159.098 158.134 123.676 152.173 108.816Z" fill="#B40000"/>
<path d="M147.323 84.8356C147.323 84.8356 145.63 64.227 128.94 71.6852C108.01 81.0783 124.645 106.196 134.883 101.048C145.12 95.9007 147.323 84.8356 147.323 84.8356Z" fill="#263238"/>
<path opacity="0.2" d="M142.645 111.934L142.163 123.581L138.423 118.105C138.423 118.105 139.76 130.983 138.978 138C138.978 138 138.259 125.423 136.566 118.105L132.589 123.581L126.884 112.009C126.884 112.009 136.12 108.581 142.645 111.934Z" fill="black"/>
<path d="M137.476 114.133L128.84 111.615C134.164 107.858 131.479 99.4043 131.479 99.4043L140.033 102.504C139.64 103.731 139.336 104.987 139.123 106.261C138.213 111.766 140.634 112.207 140.634 112.207L137.476 114.133Z" fill="#E4897B"/>
<path opacity="0.2" d="M140.033 102.454C139.64 103.682 139.336 104.938 139.123 106.212C135.028 104.512 131.488 99.3359 131.488 99.3359L140.033 102.454Z" fill="black"/>
<path d="M134.446 76.0434C142.026 74.315 145.366 77.922 147.641 85.8686C150.489 95.7783 149.862 103.424 139.933 103.443C126.447 103.462 121.869 78.9177 134.446 76.0434Z" fill="#E4897B"/>
<path d="M142.654 86.5547C143.508 87.584 144.479 88.5019 145.548 89.2881C145.395 89.6642 145.144 89.9891 144.823 90.2263C144.501 90.4635 144.122 90.6038 143.728 90.6313L142.654 86.5547Z" fill="#DE5753"/>
<path d="M137.877 86.9656C138.031 87.6044 137.822 88.2149 137.403 88.3182C136.985 88.4216 136.539 87.9895 136.384 87.3789C136.23 86.7684 136.439 86.139 136.857 86.0263C137.276 85.9136 137.722 86.3269 137.877 86.9656Z" fill="#263238"/>
<path d="M136.694 86.0739L137.904 85.1914C137.904 85.1914 137.513 86.5339 136.694 86.0739Z" fill="#263238"/>
<path d="M145.539 84.8816C145.694 85.5204 145.484 86.1309 145.066 86.2343C144.647 86.3376 144.156 85.9055 144.047 85.2949C143.937 84.6844 144.101 84.055 144.52 83.9423C144.938 83.8296 145.384 84.2429 145.539 84.8816Z" fill="#263238"/>
<path d="M144.356 83.9891L145.603 83.1348C145.603 83.1348 145.175 84.4397 144.356 83.9891Z" fill="#263238"/>
<path d="M133.609 83.8567C133.67 83.8579 133.73 83.8419 133.783 83.8104C133.836 83.779 133.879 83.7333 133.909 83.6783C134.209 83.1951 134.61 82.7874 135.082 82.4851C135.554 82.1827 136.086 81.9935 136.639 81.9311C136.726 81.9194 136.805 81.8741 136.861 81.8044C136.917 81.7346 136.945 81.6457 136.939 81.5554C136.93 81.4648 136.887 81.3816 136.819 81.3236C136.751 81.2656 136.663 81.2376 136.575 81.2454C135.905 81.3124 135.258 81.5389 134.687 81.9073C134.115 82.2756 133.634 82.7757 133.281 83.3683C133.261 83.4083 133.248 83.452 133.245 83.497C133.241 83.5419 133.246 83.5872 133.26 83.6301C133.273 83.673 133.295 83.7126 133.324 83.7467C133.352 83.7808 133.387 83.8086 133.427 83.8286C133.484 83.8521 133.547 83.8617 133.609 83.8567Z" fill="#263238"/>
<path d="M142.081 80.317C142.143 80.3159 142.203 80.2964 142.254 80.2607C142.701 80.0392 143.191 79.9243 143.687 79.9243C144.183 79.9243 144.673 80.0392 145.12 80.2607C145.16 80.2774 145.202 80.2857 145.245 80.2852C145.287 80.2847 145.329 80.2755 145.368 80.258C145.407 80.2405 145.442 80.2151 145.472 80.1833C145.501 80.1515 145.524 80.114 145.539 80.073C145.555 80.0317 145.563 79.9875 145.563 79.9429C145.563 79.8983 145.554 79.8543 145.537 79.8133C145.52 79.7723 145.495 79.7351 145.465 79.704C145.434 79.6728 145.397 79.6483 145.357 79.6317C144.813 79.3707 144.219 79.2418 143.62 79.2548C143.02 79.2678 142.431 79.4225 141.899 79.7068C141.862 79.7307 141.831 79.7618 141.806 79.7984C141.781 79.835 141.763 79.8763 141.754 79.92C141.745 79.9636 141.744 80.0087 141.751 80.0527C141.759 80.0967 141.775 80.1387 141.799 80.1762C141.831 80.2215 141.874 80.258 141.923 80.2826C141.972 80.3071 142.026 80.3189 142.081 80.317Z" fill="#263238"/>
<path d="M128.995 91.1081C128.995 91.1081 131.161 83.8754 129.559 79.0379C129.559 79.0379 143.209 69.2785 147.323 84.8335C147.323 84.8335 145.803 70.5372 132.708 73.2048C119.613 75.8725 123.899 95.5135 131.88 99.8343C131.88 99.8343 127.666 95.6262 128.995 91.1081Z" fill="#263238"/>
<path d="M130.587 92.5274C130.321 91.6387 129.724 90.8953 128.927 90.4603C128.131 90.0254 127.199 89.9344 126.338 90.2073C124.044 91.0057 123.999 96.2377 130.087 96.0968C130.97 96.031 131.261 95.0823 130.587 92.5274Z" fill="#E4897B"/>
<path d="M145.102 93.5995C144.9 94.5587 144.766 95.5319 144.702 96.5114H144.21C141.944 96.7086 140.834 96.0229 140.288 95.2151C140.027 94.8137 139.865 94.3526 139.815 93.8719C139.777 93.6009 139.777 93.3256 139.815 93.0547C141.276 93.574 142.827 93.763 144.365 93.6089C144.802 93.6371 145.102 93.5995 145.102 93.5995Z" fill="#263238"/>
<path d="M144.329 93.6554L144.192 94.5097C142.063 94.6881 140.552 94.5097 139.815 93.9183C139.777 93.6475 139.777 93.3724 139.815 93.1016C141.264 93.6152 142.803 93.804 144.329 93.6554Z" fill="white"/>
<path d="M144.21 96.5557C141.944 96.7529 140.834 96.0676 140.288 95.2602C141.147 95.2024 142.01 95.3009 142.836 95.5512C143.385 95.7283 143.866 96.0799 144.21 96.5557Z" fill="#DE5753"/>
<path d="M134.419 76.6726C134.419 76.6726 134.127 90.2268 126.228 91.8612C118.329 93.4956 126.956 74.4276 126.956 74.4276C126.956 74.4276 138.696 66.5186 146.522 72.0981C154.348 77.6776 147.304 84.8352 147.304 84.8352C147.304 84.8352 145.675 74.7658 134.419 76.6726Z" fill="#263238"/>
<path d="M131.406 89.0793C131.46 89.0787 131.511 89.0588 131.552 89.0229C137.158 84.4766 134.391 75.7786 134.364 75.6941C134.343 75.6353 134.302 75.5869 134.247 75.559C134.193 75.531 134.131 75.5256 134.073 75.5438C134.016 75.565 133.97 75.6085 133.944 75.6649C133.919 75.7213 133.916 75.7858 133.936 75.8443C133.936 75.9289 136.621 84.2982 131.27 88.6566C131.248 88.6777 131.231 88.7031 131.219 88.7314C131.207 88.7597 131.201 88.7901 131.201 88.8209C131.201 88.8517 131.207 88.8822 131.219 88.9105C131.231 88.9388 131.248 88.9642 131.27 88.9853C131.285 89.01 131.305 89.0312 131.328 89.0474C131.352 89.0636 131.379 89.0744 131.406 89.0793Z" fill="#263238"/>
<path d="M123.944 94.6425C124.945 97.4041 127.521 98.954 129.696 98.118C131.871 97.282 132.817 94.3607 131.816 91.5991C130.815 88.8376 128.24 87.2877 126.065 88.1331C123.89 88.9785 122.943 91.8903 123.944 94.6425Z" fill="#B40000"/>
<path opacity="0.4" d="M123.944 94.6425C124.945 97.4041 127.521 98.954 129.696 98.118C131.871 97.282 132.817 94.3607 131.816 91.5991C130.815 88.8376 128.24 87.2877 126.065 88.1331C123.89 88.9785 122.943 91.8903 123.944 94.6425Z" fill="black"/>
<path d="M126.492 90.1235C126.492 90.1235 123.225 75.0287 130.551 71.0742C129.717 71.1869 128.89 71.3532 128.076 71.5721C127.166 71.8538 121.278 77.9782 124.236 91.5418L126.492 90.1235Z" fill="#B40000"/>
<path opacity="0.2" d="M126.492 90.1235C126.492 90.1235 123.225 75.0287 130.551 71.0742C129.717 71.1869 128.89 71.3532 128.076 71.5721C127.166 71.8538 121.278 77.9782 124.236 91.5418L126.492 90.1235Z" fill="black"/>
<path d="M140.143 98.7635L140.689 98.679L140.543 97.7396C136.524 98.3776 132.417 97.4791 128.995 95.2129L128.458 95.9643C131.9 98.3184 136.048 99.3123 140.143 98.7635Z" fill="#B40000"/>
<g opacity="0.2">
<path d="M140.143 98.7635L140.689 98.679L140.543 97.7396C136.524 98.3776 132.417 97.4791 128.995 95.2129L128.458 95.9643C131.9 98.3184 136.048 99.3123 140.143 98.7635Z" fill="black"/>
</g>
<path d="M124.254 94.2665C124.909 96.0887 126.62 97.0844 128.048 96.5584C129.477 96.0324 130.114 94.0786 129.45 92.2563C128.786 90.4341 127.084 89.4384 125.655 89.9644C124.226 90.4904 123.589 92.4442 124.254 94.2665Z" fill="#B40000"/>
<path d="M140.998 99.1035L141.735 99.0002C141.864 98.9829 141.988 98.9395 142.1 98.8724C142.213 98.8053 142.311 98.716 142.39 98.6095C142.468 98.503 142.526 98.3815 142.559 98.252C142.592 98.1225 142.599 97.9875 142.581 97.8549C142.566 97.7213 142.524 97.5923 142.46 97.4753C142.395 97.3583 142.309 97.2558 142.206 97.1736C142.102 97.0915 141.984 97.0314 141.858 96.9969C141.732 96.9623 141.6 96.954 141.471 96.9724L140.743 97.0757C140.484 97.1131 140.249 97.254 140.089 97.4682C139.929 97.6823 139.857 97.9526 139.888 98.221C139.924 98.4888 140.061 98.7311 140.268 98.8961C140.476 99.0611 140.738 99.1356 140.998 99.1035Z" fill="#B40000"/>
<path opacity="0.4" d="M140.998 99.1035L141.735 99.0002C141.864 98.9829 141.988 98.9395 142.1 98.8724C142.213 98.8053 142.311 98.716 142.39 98.6095C142.468 98.503 142.526 98.3815 142.559 98.252C142.592 98.1225 142.599 97.9875 142.581 97.8549C142.566 97.7213 142.524 97.5923 142.46 97.4753C142.395 97.3583 142.309 97.2558 142.206 97.1736C142.102 97.0915 141.984 97.0314 141.858 96.9969C141.732 96.9623 141.6 96.954 141.471 96.9724L140.743 97.0757C140.484 97.1131 140.249 97.254 140.089 97.4682C139.929 97.6823 139.857 97.9526 139.888 98.221C139.924 98.4888 140.061 98.7311 140.268 98.8961C140.476 99.0611 140.738 99.1356 140.998 99.1035Z" fill="black"/>
<path d="M131.161 108.355L136.566 113.832L134.4 120.557L126.884 112.009L131.161 108.355Z" fill="#B40000"/>
<path d="M138.978 109.502L138.104 113.719L140.898 119.684L142.645 111.935L138.978 109.502Z" fill="#B40000"/>
<path d="M132.316 113.108L129.177 101.245C129.177 101.245 130.697 98.2952 130.369 97.6753C130.041 97.0553 128.403 89.09 127.239 88.2258C126.074 87.3616 121.278 88.8364 120.796 89.6442C120.313 90.452 125.391 101.245 125.391 101.245L127.211 114.104L132.316 113.108Z" fill="#E4897B"/>
<path d="M113.752 115.071C105.107 124.201 122.425 144.884 132.353 144.001C142.281 143.118 132.098 105.621 132.098 105.621L125.728 106.701C125.728 106.701 127.957 122.933 127.257 124.201C126.556 125.469 116.619 112.037 113.752 115.071Z" fill="#B40000"/>
<path opacity="0.2" d="M113.752 115.071C105.107 124.201 122.425 144.884 132.353 144.001C142.281 143.118 132.098 105.621 132.098 105.621L125.728 106.701C125.728 106.701 127.957 122.933 127.257 124.201C126.556 125.469 116.619 112.037 113.752 115.071Z" fill="black"/>
<path d="M132.589 104.447L133.527 107.547L124.672 108.355V105.65L132.589 104.447Z" fill="#B40000"/>
<path opacity="0.6" d="M146.012 128.975H149.598C149.995 128.975 150.317 129.307 150.317 129.717V136.705C150.317 137.115 149.995 137.447 149.598 137.447H146.012C145.615 137.447 145.293 137.115 145.293 136.705V129.717C145.293 129.307 145.615 128.975 146.012 128.975Z" fill="white"/>
<path opacity="0.2" d="M145.939 129.537H150.016V135.295H145.939V129.537Z" fill="black"/>
<path d="M147.432 126.938H148.333V130.328H147.432V126.938Z" fill="#263238"/>
<path d="M222.308 273.036C221.4 272.6 220.422 272.342 219.423 272.275C219.423 272.275 215.965 270.18 212.544 262.018H208.694C208.041 262.022 207.406 262.235 206.875 262.627C206.344 263.019 205.943 263.57 205.728 264.206C205.663 264.381 205.626 264.565 205.618 264.751C205.664 265.711 205.764 266.668 205.919 267.616C206.482 270.791 207.232 273.928 208.166 277.009L208.822 276.84L207.639 270.903C207.238 268.893 209.295 270.838 210.241 272.867C211.188 274.896 212.653 276.953 216.912 275.948C221.871 274.689 223.864 273.956 222.308 273.036Z" fill="#B40000"/>
<path d="M211.843 259.887C211.843 259.887 216.657 270.276 219.423 272.277C219.423 272.277 215.71 274.559 211.843 269.459C206.847 262.883 205.618 264.715 205.618 264.715C205.723 263.581 205.927 262.458 206.228 261.362C206.974 259.258 211.843 259.887 211.843 259.887Z" fill="#E4897B"/>
<path d="M169.327 297.785C168.54 297.145 167.65 296.655 166.697 296.338C166.697 296.338 163.821 293.455 162.374 284.691L158.634 283.752C157.999 283.601 157.335 283.655 156.731 283.907C156.127 284.159 155.613 284.597 155.258 285.161C155.156 285.317 155.076 285.488 155.021 285.668C154.839 286.598 154.715 287.539 154.648 288.486C154.473 291.696 154.489 294.915 154.694 298.123H155.367L155.576 292.074C155.658 290.017 157.196 292.412 157.66 294.619C158.125 296.827 159.062 299.166 163.43 299.231C168.517 299.288 170.628 299.062 169.327 297.785Z" fill="#B40000"/>
<path d="M162.183 282.447C162.183 282.447 164.467 293.718 166.733 296.339C166.733 296.339 162.602 297.654 160.017 291.765C156.668 284.156 155.058 285.64 155.058 285.64C155.418 284.564 155.871 283.523 156.414 282.531C157.597 280.653 162.183 282.447 162.183 282.447Z" fill="#E4897B"/>
<path d="M77.5698 55.0957H109.338C111.887 55.0957 113.952 57.2279 113.952 59.858V73.882C113.952 76.5121 111.887 78.6443 109.338 78.6443H77.5698C75.0217 78.6443 72.956 76.5121 72.956 73.882V59.858C72.956 57.2279 75.0217 55.0957 77.5698 55.0957Z" fill="#B40000"/>
<path d="M102.968 75.959L112.542 89.3912L97.0988 76.8607L102.968 75.959Z" fill="#B40000"/>
<path d="M102.614 66.8652C102.612 67.1409 102.689 67.411 102.837 67.641C102.984 67.8711 103.194 68.0507 103.441 68.1571C103.687 68.2635 103.959 68.2918 104.221 68.2385C104.483 68.1851 104.724 68.0525 104.913 67.8576C105.102 67.6626 105.23 67.414 105.282 67.1435C105.333 66.8729 105.306 66.5926 105.203 66.3382C105.1 66.0838 104.926 65.8668 104.703 65.7148C104.48 65.5627 104.218 65.4825 103.951 65.4844C103.596 65.4844 103.256 65.6299 103.005 65.8888C102.754 66.1478 102.614 66.499 102.614 66.8652Z" fill="white"/>
<path d="M95.6154 66.8652C95.6136 67.1409 95.6913 67.411 95.8386 67.641C95.9859 67.8711 96.1961 68.0507 96.4426 68.1571C96.6891 68.2635 96.9606 68.2918 97.2227 68.2385C97.4848 68.1851 97.7256 68.0525 97.9146 67.8576C98.1035 67.6626 98.2319 67.414 98.2836 67.1435C98.3353 66.8729 98.3078 66.5926 98.2048 66.3382C98.1017 66.0838 97.9277 65.8668 97.7048 65.7148C97.4819 65.5627 97.2203 65.4825 96.9531 65.4844C96.5983 65.4844 96.2581 65.6299 96.0072 65.8888C95.7563 66.1478 95.6154 66.499 95.6154 66.8652Z" fill="white"/>
<path d="M88.6174 66.8652C88.6156 67.1409 88.6933 67.411 88.8406 67.641C88.9879 67.8711 89.1982 68.0507 89.4446 68.1571C89.6911 68.2635 89.9626 68.2918 90.2247 68.2385C90.4869 68.1851 90.7277 68.0525 90.9166 67.8576C91.1055 67.6626 91.2339 67.414 91.2856 67.1435C91.3373 66.8729 91.3098 66.5926 91.2068 66.3382C91.1037 66.0838 90.9297 65.8668 90.7068 65.7148C90.4839 65.5627 90.2223 65.4825 89.9551 65.4844C89.6004 65.4844 89.2601 65.6299 89.0092 65.8888C88.7583 66.1478 88.6174 66.499 88.6174 66.8652Z" fill="white"/>
<path d="M81.6194 66.8652C81.6176 67.1409 81.6952 67.411 81.8425 67.641C81.9898 67.8711 82.2001 68.0507 82.4466 68.1571C82.693 68.2635 82.9646 68.2918 83.2267 68.2385C83.4888 68.1851 83.7296 68.0525 83.9185 67.8576C84.1074 67.6626 84.2359 67.414 84.2875 67.1435C84.3392 66.8729 84.3118 66.5926 84.2087 66.3382C84.1057 66.0838 83.9316 65.8668 83.7088 65.7148C83.4859 65.5627 83.2242 65.4825 82.9571 65.4844C82.6023 65.4844 82.262 65.6299 82.0112 65.8888C81.7603 66.1478 81.6194 66.499 81.6194 66.8652Z" fill="white"/>
<path d="M196.857 43.9827L219.526 31.386C220.136 31.0466 220.898 31.2824 221.227 31.9126L228.464 45.7709C228.793 46.4011 228.564 47.1871 227.954 47.5264L205.285 60.1232C204.675 60.4625 203.913 60.2268 203.584 59.5966L196.348 45.7383C196.018 45.1081 196.247 44.3221 196.857 43.9827Z" fill="#B40000"/>
<path opacity="0.7" d="M196.857 43.9827L219.526 31.386C220.136 31.0466 220.898 31.2824 221.227 31.9126L228.464 45.7709C228.793 46.4011 228.564 47.1871 227.954 47.5264L205.285 60.1232C204.675 60.4625 203.913 60.2268 203.584 59.5966L196.348 45.7383C196.018 45.1081 196.247 44.3221 196.857 43.9827Z" fill="white"/>
<path opacity="0.2" d="M221.817 33.0586L214.764 46.7256C214.493 47.2462 214.079 47.6723 213.574 47.9498C213.068 48.2274 212.494 48.344 211.925 48.2848L197.173 46.7819L212.189 49.0645C212.845 49.1646 213.515 49.0431 214.099 48.7181C214.682 48.3931 215.149 47.882 215.428 47.261L221.817 33.0586Z" fill="black"/>
<path d="M262.258 141.41H296.802V148.718H262.258V141.41Z" fill="white"/>
<path opacity="0.1" d="M262.258 141.41H296.802V148.718H262.258V141.41Z" fill="black"/>
<path opacity="0.1" d="M282.251 141.41H296.802V148.718H282.251V141.41Z" fill="black"/>
<path opacity="0.1" d="M296.802 142.461H266.052L296.802 143.362V142.461Z" fill="black"/>
<path opacity="0.1" d="M262.258 143.73L288.912 144.416H262.258V143.73Z" fill="black"/>
<path opacity="0.1" d="M295.391 145.775L282.251 145.221L262.931 145.775L282.251 146.084L295.391 145.775Z" fill="black"/>
<path opacity="0.1" d="M296.802 147.328H274.033L296.802 147.882V147.328Z" fill="black"/>
<path opacity="0.1" d="M262.312 147.883L277.519 148.174H262.258L262.312 147.883Z" fill="black"/>
<path d="M267.063 134.102H301.607V141.409H267.063V134.102Z" fill="white"/>
<path opacity="0.1" d="M267.063 134.102H301.607V141.409H267.063V134.102Z" fill="black"/>
<path opacity="0.1" d="M287.056 134.102H301.607V141.409H287.056V134.102Z" fill="black"/>
<path opacity="0.1" d="M301.607 135.152H270.857L301.607 136.044V135.152Z" fill="black"/>
<path opacity="0.1" d="M267.063 136.42L293.717 137.105H267.063V136.42Z" fill="black"/>
<path opacity="0.1" d="M300.205 138.47L287.065 137.906L267.745 138.47L287.065 138.779L300.205 138.47Z" fill="black"/>
<path opacity="0.1" d="M301.607 140.008H278.838L301.607 140.571V140.008Z" fill="black"/>
<path opacity="0.1" d="M267.117 140.572L282.324 140.863H267.063L267.117 140.572Z" fill="black"/>
<path d="M263.122 126.785H297.667V134.093H263.122V126.785Z" fill="white"/>
<path opacity="0.1" d="M263.122 126.785H297.667V134.093H263.122V126.785Z" fill="black"/>
<path opacity="0.1" d="M283.115 126.785H297.667V134.093H283.115V126.785Z" fill="black"/>
<path opacity="0.1" d="M297.667 127.836H266.917L297.667 128.737V127.836Z" fill="black"/>
<path opacity="0.1" d="M263.122 129.104L289.777 129.789H263.122V129.104Z" fill="black"/>
<path opacity="0.1" d="M296.256 131.152L283.115 130.598L263.796 131.152L283.115 131.461L296.256 131.152Z" fill="black"/>
<path opacity="0.1" d="M297.667 132.701H274.898L297.667 133.255V132.701Z" fill="black"/>
<path opacity="0.1" d="M263.168 133.256L278.374 133.547H263.122L263.168 133.256Z" fill="black"/>
<path d="M240.108 148.566L239.216 145.062H202.306L185.316 146.819L184.67 148.566H240.108Z" fill="#263238"/>
<path opacity="0.4" d="M202.306 145.062V148.566H240.108L239.216 145.062H202.306Z" fill="black"/>
<path d="M209.722 128.296C209.673 128.721 209.712 129.152 209.838 129.56C209.963 129.967 210.171 130.343 210.449 130.661C210.727 130.978 211.067 131.231 211.447 131.402C211.827 131.572 212.238 131.657 212.653 131.65H269.183C270.067 131.63 270.914 131.279 271.565 130.661C272.217 130.044 272.628 129.204 272.723 128.296L276.081 90.9399C276.117 90.575 276.093 90.2065 276.008 89.8502C275.851 89.1943 275.483 88.6128 274.964 88.2015C274.444 87.7901 273.805 87.5732 273.151 87.5865H216.584C215.7 87.6063 214.853 87.9576 214.202 88.5747C213.55 89.1918 213.139 90.0325 213.044 90.9399L209.722 128.296Z" fill="#263238"/>
<path opacity="0.4" d="M212.853 131.649H269.183C270.067 131.629 270.914 131.278 271.565 130.661C272.217 130.044 272.628 129.203 272.723 128.296L276.081 90.9392C276.117 90.5744 276.093 90.2058 276.008 89.8496H219.678C218.794 89.8694 217.947 90.2207 217.296 90.8378C216.644 91.4549 216.233 92.2956 216.138 93.203L212.78 130.559C212.744 130.924 212.768 131.293 212.853 131.649Z" fill="black"/>
<path d="M251.692 108.742H239.999L243.111 143.299L224.619 146.164V148.569H263.568V146.164L255.587 143.299L251.692 108.742Z" fill="#263238"/>
<path opacity="0.1" d="M239.999 108.742L248.662 148.024L255.587 147.808L251.692 108.742H239.999Z" fill="white"/>
<path d="M240.053 299.241H245.623L255.642 155.291H248.243L240.053 299.241Z" fill="#263238"/>
<path opacity="0.4" d="M240.044 299.24H245.623L255.151 162.448L255.642 155.525H248.243L247.843 162.448L240.044 299.24Z" fill="white"/>
<path opacity="0.2" d="M247.843 162.101H255.151L255.642 155.525H248.243L247.843 162.101Z" fill="black"/>
<path d="M199.139 299.241H204.708L205.618 155.291H198.229L199.139 299.241Z" fill="#263238"/>
<path opacity="0.5" d="M198.22 155.525L198.365 178.755L199.13 299.24H204.708L205.473 178.755L205.618 155.525H198.22Z" fill="white"/>
<path opacity="0.2" d="M198.22 155.525L198.365 179.008H205.473L205.618 155.525H198.22Z" fill="black"/>
<path d="M139.952 299.241H145.521L155.54 155.291H148.142L139.952 299.241Z" fill="#263238"/>
<path opacity="0.5" d="M139.942 299.24H145.521L155.049 162.448L155.54 155.525H148.142L147.741 162.448L139.942 299.24Z" fill="white"/>
<path opacity="0.2" d="M147.741 162.101H155.049L155.54 155.525H148.142L147.741 162.101Z" fill="black"/>
<path d="M303.827 299.241H309.397L301.207 155.291H293.808L303.827 299.241Z" fill="#263238"/>
<path opacity="0.5" d="M293.808 155.525L294.299 162.448L303.827 299.24H309.397L301.607 162.448L301.207 155.525H293.808Z" fill="white"/>
<path opacity="0.2" d="M301.206 155.525H293.808L294.299 162.101H301.607L301.206 155.525Z" fill="black"/>
<path d="M307.067 151.703H142.281V156.879C142.281 157.145 142.332 157.409 142.431 157.655C142.53 157.901 142.674 158.125 142.857 158.313C143.039 158.502 143.256 158.651 143.495 158.753C143.733 158.855 143.989 158.908 144.247 158.908H305.101C305.623 158.908 306.123 158.694 306.491 158.313C306.86 157.933 307.067 157.417 307.067 156.879V151.703Z" fill="#B40000"/>
<path opacity="0.6" d="M307.067 151.703H142.281V156.879C142.281 157.145 142.332 157.409 142.431 157.655C142.53 157.901 142.674 158.125 142.857 158.313C143.039 158.502 143.256 158.651 143.495 158.753C143.733 158.855 143.989 158.908 144.247 158.908H305.101C305.623 158.908 306.123 158.694 306.491 158.313C306.86 157.933 307.067 157.417 307.067 156.879V151.703Z" fill="white"/>
<path opacity="0.2" d="M142.281 151.693H307.067V155.3H142.281V151.693Z" fill="black"/>
<path d="M138.823 152.643H310.525C311.046 152.643 311.546 152.43 311.915 152.049C312.284 151.669 312.491 151.153 312.491 150.614C312.491 150.075 312.284 149.558 311.915 149.176C311.547 148.794 311.047 148.579 310.525 148.576H138.823C138.301 148.579 137.801 148.794 137.433 149.176C137.064 149.558 136.857 150.075 136.857 150.614C136.857 151.153 137.065 151.669 137.433 152.049C137.802 152.43 138.302 152.643 138.823 152.643Z" fill="#B40000"/>
<path opacity="0.6" d="M138.823 152.643H310.525C311.046 152.643 311.546 152.43 311.915 152.049C312.284 151.669 312.491 151.153 312.491 150.614C312.491 150.075 312.284 149.558 311.915 149.176C311.547 148.794 311.047 148.579 310.525 148.576H138.823C138.301 148.579 137.801 148.794 137.433 149.176C137.064 149.558 136.857 150.075 136.857 150.614C136.857 151.153 137.065 151.669 137.433 152.049C137.802 152.43 138.302 152.643 138.823 152.643Z" fill="white"/>
<path d="M179.446 142.311L177.335 139.043C177.127 138.722 176.845 138.458 176.515 138.277C176.185 138.095 175.816 138 175.442 138H172.767C172.545 138.001 172.324 138.036 172.111 138.103L162.565 141.09C162.023 141.257 161.561 141.63 161.273 142.133L159.899 144.509L179.446 142.311Z" fill="#B40000"/>
<path opacity="0.2" d="M159.899 144.509L173.813 142.95L179.464 142.311L177.353 139.043C177.145 138.722 176.863 138.458 176.533 138.277C176.203 138.095 175.835 138 175.46 138H172.785C172.56 138.001 172.336 138.036 172.121 138.103L171.911 138.169L162.584 141.09C162.038 141.256 161.573 141.629 161.282 142.133L159.899 144.509Z" fill="black"/>
<path opacity="0.2" d="M159.899 144.51L173.813 142.951L171.911 138.17L162.584 141.091C162.038 141.257 161.573 141.629 161.282 142.134L159.899 144.51Z" fill="black"/>
<path d="M153.292 148.255V148.565H182.795L181.703 144.16C181.501 143.351 181.043 142.634 180.402 142.124C179.76 141.613 178.973 141.338 178.163 141.342H165.077C164.642 141.34 164.21 141.419 163.803 141.577L162.165 142.206L155.667 144.705C154.966 144.973 154.362 145.458 153.937 146.093C153.512 146.728 153.287 147.483 153.292 148.255Z" fill="#B40000"/>
<path opacity="0.2" d="M153.292 148.257V148.567H165.405L164.759 143.805C164.717 143.509 164.612 143.227 164.451 142.979C164.29 142.731 164.078 142.524 163.829 142.372C163.58 142.219 163.302 142.127 163.014 142.1C162.726 142.073 162.436 142.113 162.165 142.217L155.667 144.716C154.968 144.983 154.364 145.467 153.94 146.1C153.515 146.734 153.289 147.487 153.292 148.257Z" fill="black"/>
<path d="M163.521 145.334L159.662 133.395C159.625 133.274 159.562 133.162 159.478 133.068C159.394 132.974 159.291 132.901 159.177 132.852C159.062 132.804 158.939 132.782 158.815 132.788C158.691 132.794 158.571 132.828 158.461 132.888C158.293 132.987 158.161 133.139 158.082 133.322C158.004 133.504 157.983 133.707 158.024 133.902L161.273 146.64C161.273 146.64 163.43 147.541 163.521 145.334Z" fill="#263238"/>
<path opacity="0.2" d="M179.446 147.579H181.157L180.829 145.842H179.119L179.446 147.579Z" fill="black"/>
<path opacity="0.2" d="M176.898 147.516H178.609L178.281 145.779H176.571L176.898 147.516Z" fill="black"/>
</g>
<defs>
<clipPath id="clip0_964_13525">
<rect width="343" height="309.335" fill="white" transform="matrix(-1 0 0 1 343 0)"/>
</clipPath>
</defs>
</svg>
