<svg width="19" height="19" viewBox="0 0 19 19" fill="none" xmlns="http://www.w3.org/2000/svg">
<path d="M17.8472 12.664L13.4306 10.685L13.4184 10.6793C13.1892 10.5813 12.939 10.5419 12.6907 10.5648C12.4424 10.5878 12.2037 10.6722 11.9963 10.8106C11.9718 10.8267 11.9484 10.8443 11.9259 10.8631L9.64407 12.8084C8.19845 12.1062 6.70595 10.625 6.00376 9.19809L7.95188 6.88153C7.97063 6.85809 7.98845 6.83465 8.00532 6.80934C8.14072 6.60244 8.22287 6.36527 8.24446 6.11894C8.26605 5.87261 8.22641 5.62477 8.12907 5.39747V5.38622L6.14438 0.962154C6.0157 0.665215 5.79444 0.417856 5.51362 0.257003C5.2328 0.0961496 4.9075 0.0304299 4.58626 0.069654C3.31592 0.236817 2.14986 0.860687 1.30588 1.82474C0.461903 2.7888 -0.00228837 4.02711 8.4831e-06 5.3084C8.4831e-06 12.7522 6.05626 18.8084 13.5 18.8084C14.7813 18.8107 16.0196 18.3465 16.9837 17.5025C17.9477 16.6585 18.5716 15.4925 18.7388 14.2222C18.7781 13.901 18.7125 13.5758 18.5518 13.295C18.3911 13.0142 18.144 12.7929 17.8472 12.664ZM13.5 17.3084C10.3185 17.3049 7.26825 16.0395 5.01856 13.7898C2.76888 11.5402 1.50348 8.48993 1.50001 5.3084C1.49648 4.39293 1.82631 3.50746 2.42789 2.81738C3.02947 2.1273 3.86167 1.67978 4.76907 1.5584C4.7687 1.56214 4.7687 1.56591 4.76907 1.56965L6.73782 5.9759L4.80001 8.29528C4.78034 8.31791 4.76247 8.34205 4.74657 8.36747C4.60549 8.58395 4.52273 8.83321 4.5063 9.09109C4.48988 9.34896 4.54035 9.60671 4.65282 9.83934C5.5022 11.5765 7.25251 13.3137 9.00845 14.1622C9.24279 14.2736 9.50203 14.3223 9.76083 14.3036C10.0196 14.2848 10.2692 14.1993 10.485 14.0553C10.5091 14.0391 10.5322 14.0215 10.5544 14.0028L12.8334 12.0584L17.2397 14.0318C17.2397 14.0318 17.2472 14.0318 17.25 14.0318C17.1301 14.9405 16.6833 15.7744 15.9931 16.3775C15.3028 16.9805 14.4166 17.3115 13.5 17.3084Z" fill="#B40000"/>
</svg>
