<svg width="20" height="16" viewBox="0 0 20 16" fill="none" xmlns="http://www.w3.org/2000/svg">
<path d="M19 0.308594H1C0.801088 0.308594 0.610322 0.387612 0.46967 0.528264C0.329018 0.668916 0.25 0.859681 0.25 1.05859V13.8086C0.25 14.2064 0.408035 14.5879 0.68934 14.8693C0.970644 15.1506 1.35218 15.3086 1.75 15.3086H18.25C18.6478 15.3086 19.0294 15.1506 19.3107 14.8693C19.592 14.5879 19.75 14.2064 19.75 13.8086V1.05859C19.75 0.859681 19.671 0.668916 19.5303 0.528264C19.3897 0.387612 19.1989 0.308594 19 0.308594ZM17.0716 1.80859L10 8.29141L2.92844 1.80859H17.0716ZM18.25 13.8086H1.75V2.76391L9.49281 9.86172C9.63118 9.98874 9.81217 10.0592 10 10.0592C10.1878 10.0592 10.3688 9.98874 10.5072 9.86172L18.25 2.76391V13.8086Z" fill="#B40000"/>
</svg>
