<svg width="49" height="48" viewBox="0 0 49 48" fill="none" xmlns="http://www.w3.org/2000/svg">
<circle cx="24.1562" cy="24" r="24" fill="white"/>
<path d="M31.1563 17L17.1562 31" stroke="#B40000" stroke-width="2" stroke-linecap="round" stroke-linejoin="round"/>
<path d="M18.6562 21C20.037 21 21.1562 19.8807 21.1562 18.5C21.1562 17.1193 20.037 16 18.6562 16C17.2755 16 16.1562 17.1193 16.1562 18.5C16.1562 19.8807 17.2755 21 18.6562 21Z" stroke="#B40000" stroke-width="2" stroke-linecap="round" stroke-linejoin="round"/>
<path d="M29.6562 32C31.037 32 32.1562 30.8807 32.1562 29.5C32.1562 28.1193 31.037 27 29.6562 27C28.2755 27 27.1562 28.1193 27.1562 29.5C27.1562 30.8807 28.2755 32 29.6562 32Z" stroke="#B40000" stroke-width="2" stroke-linecap="round" stroke-linejoin="round"/>
</svg>
