<svg width="50" height="50" viewBox="0 0 50 50" fill="none" xmlns="http://www.w3.org/2000/svg">
<circle cx="25" cy="25" r="24.5" fill="white" stroke="#FFB5B5"/>
<path d="M27.3 39L18.3333 29.6667V27H23C24.1778 27 25.1947 26.6164 26.0507 25.8493C26.9058 25.0831 27.4222 24.1333 27.6 23H17V20.3333H27.2C26.8222 19.5556 26.2613 18.9164 25.5173 18.416C24.7724 17.9164 23.9333 17.6667 23 17.6667H17V15H33V17.6667H28.6667C28.9778 18.0444 29.2556 18.4556 29.5 18.9C29.7444 19.3444 29.9333 19.8222 30.0667 20.3333H33V23H30.3C30.1222 24.8889 29.3444 26.472 27.9667 27.7493C26.5889 29.0276 24.9333 29.6667 23 29.6667H22.0333L31 39H27.3Z" fill="#B40000"/>
</svg>
