<svg width="40" height="41" viewBox="0 0 40 41" fill="none" xmlns="http://www.w3.org/2000/svg">
<g clip-path="url(#clip0_258_171)">
<path d="M35.8387 38.9999L32.1724 22.668H30.5059L34.2555 39.3331C34.3389 39.5831 34.4222 39.7497 34.5889 39.8331C34.7556 39.9165 34.8388 39.9165 35.0055 39.9165C35.0888 39.9165 35.0888 39.9165 35.1721 39.9165C35.672 39.9165 35.9219 39.4165 35.8387 38.9999Z" fill="#344A5E"/>
<path d="M21.5905 22.5834L17.9242 38.9986C17.8408 39.4152 18.0908 39.8319 18.5075 39.9152C18.5908 39.9152 18.5908 39.9152 18.6741 39.9152C18.8407 39.9152 19.0074 39.9152 19.0907 39.8318C19.2573 39.7485 19.424 39.4985 19.424 39.3319L23.1737 22.5H21.5905V22.5834Z" fill="#344A5E"/>
<path d="M26.2572 22.668L25.9238 37.5833C25.9238 37.9999 26.2572 38.4166 26.6738 38.4166C27.0904 38.4166 27.4237 38.0833 27.507 37.6667L27.8404 22.668H26.2572Z" fill="#344A5E"/>
<path d="M18.0898 2.33594L36.6714 2.83589L36.1715 23.8341L17.5898 23.2507L18.0898 2.33594Z" fill="#E8EAE9"/>
<path d="M37.7553 2.33649C37.7553 2.58647 37.6719 2.83645 37.422 3.00308C37.2553 3.25305 37.0054 3.33641 36.7554 3.33641L18.0904 2.7531C17.8404 2.7531 17.5904 2.66975 17.4238 2.41977C17.2572 2.25314 17.1738 2.00316 17.1738 1.66983C17.1738 1.08653 17.6738 0.669922 18.1737 0.669922L36.7555 1.25323C37.3387 1.33658 37.7553 1.83654 37.7553 2.33649Z" fill="#666666"/>
<path d="M37.1713 24.4166C37.1713 24.6666 37.088 24.9165 36.838 25.0832C36.6714 25.2498 36.4214 25.3331 36.1714 25.3331L17.5064 24.8332C17.2564 24.8332 17.0064 24.7498 16.8398 24.4998C16.6732 24.3332 16.5898 24.0832 16.5898 23.7499C16.5898 23.1666 17.0898 22.75 17.5898 22.75L36.1715 23.3333C36.7547 23.4167 37.1713 23.9166 37.1713 24.4166Z" fill="#666666"/>
<path d="M12.5079 3.50252C12.4245 3.83585 12.1745 4.08583 12.0079 4.08583C11.8413 4.00248 11.7579 3.7525 11.8413 3.41925C11.9246 3.08599 12.1746 2.83594 12.3413 2.83594C12.5912 2.83594 12.6745 3.16919 12.5079 3.50252Z" fill="#FFD15C"/>
<path d="M8.50689 3.50384C8.59024 3.83717 8.84022 4.08715 9.00684 4.08715C9.25682 4.0038 9.25682 3.67054 9.17347 3.33721C9.09012 3.00388 8.84014 2.75391 8.67351 2.75391C8.42353 2.83726 8.42353 3.17051 8.50689 3.50384Z" fill="#FFD15C"/>
<path d="M8.3412 6.25279L9.25776 5.4195C9.25776 5.4195 9.00778 4.41959 9.00778 4.16961C9.00778 3.91964 8.42447 2.41977 8.67445 1.66983C8.92443 0.9199 8.84108 0.336592 10.091 0.253318C11.3409 0.170044 11.5908 0.669922 12.0074 1.0866C12.424 1.58656 12.3408 3.08643 12.3408 3.33641C12.3408 3.58638 12.0908 4.91963 11.7575 5.50286V5.91946L12.674 7.50268V9.0859L11.7575 9.16925L7.75781 8.33597L8.3412 6.25279Z" fill="#FFD15C"/>
<path d="M12.6742 7.50302L11.6742 6.00315V5.58655C11.6742 5.58655 10.341 6.75309 9.25781 5.41992C9.25781 5.41992 10.0077 7.33639 12.7575 7.83635L12.6742 7.50302Z" fill="#F7B64C"/>
<path d="M18.8398 12.2526C18.8398 12.2526 19.6731 11.9192 19.7564 11.8359C19.923 11.7526 20.0064 11.586 20.2564 11.5026C20.5063 11.4193 20.8397 11.1693 21.0063 11.1693C21.1729 11.1693 21.4229 11.0859 21.5062 11.0859C21.5896 11.0859 22.2562 11.3359 22.2562 11.3359C22.2562 11.3359 22.2562 11.6692 22.0062 11.6692C21.9229 11.6692 21.2563 11.5026 21.1729 11.5026C21.0896 11.5026 21.4229 11.586 21.4229 11.586C21.4229 11.586 22.0895 11.6693 22.1728 11.6693C22.1728 11.6693 22.1728 11.6693 22.2562 11.6693C22.3395 11.586 22.5062 11.6693 22.5062 11.8359C22.5062 11.9193 22.5062 11.9193 22.4228 12.0026C22.3395 12.0026 22.2562 12.0859 22.2562 12.0859C22.2562 12.0859 22.1728 12.0859 22.0896 12.0859C22.0063 12.0859 22.0896 12.2526 22.0896 12.3359C22.0896 12.4193 22.0062 12.4193 22.0062 12.4193C21.9229 12.4193 21.8396 12.4193 21.8396 12.4193C21.8396 12.4193 21.8396 12.5859 21.7562 12.6692C21.6729 12.7526 21.6729 12.6692 21.6729 12.6692C21.6729 12.6692 21.7562 12.9192 21.3395 13.0858C21.0062 13.2525 20.0897 13.2525 19.923 13.2525C19.7564 13.1691 19.0065 13.6691 19.0065 13.6691L18.8398 12.2526Z" fill="#FFD15C"/>
<path d="M9.59085 39.9169C9.75747 39.9169 9.84082 39.8335 9.92418 39.7503C10.0075 39.6669 10.0075 39.3336 9.92418 39.0837C9.75755 38.6671 9.75755 38.8337 9.75755 38.8337L7.50775 38.917C7.50775 38.917 7.4244 39.2504 7.50775 39.5004C7.5911 39.7503 7.84108 39.8337 8.09106 39.8337C8.50758 39.8336 9.25752 39.9169 9.59085 39.9169Z" fill="#344A5E"/>
<path d="M7.59178 37.5005C7.59178 37.5005 7.50842 38.0838 7.42515 38.5004C7.3418 38.917 7.42515 39.3337 7.5085 39.5003C7.67513 39.6669 8.34179 39.5837 8.75839 39.5837C9.175 39.5837 9.42497 39.667 9.67495 39.5837C9.92493 39.5837 9.84158 38.8337 9.67495 38.4171C9.50833 38.0005 9.25835 37.6672 9.25835 37.2506C9.25835 36.834 9.25835 36.834 9.25835 36.834L7.59178 37.5005Z" fill="#415A6B"/>
<path d="M15.0908 39.3333L15.3408 39.5C15.3408 39.5 15.4241 39.5833 15.3408 39.7499C15.3408 39.7499 15.1741 39.7499 14.9242 39.9166C14.5908 39.9999 14.1742 39.9999 13.6743 39.9999C13.1743 39.9166 13.0077 39.6666 12.841 39.5C12.6743 39.3333 12.4244 39.25 12.4244 39.25V39.4166H11.4245C11.4245 39.4166 11.2578 38.9167 11.5911 38.5833C11.9244 38.25 11.9244 38.25 11.9244 38.25C12.0077 38.2501 15.0908 39.3333 15.0908 39.3333Z" fill="#344A5E"/>
<path d="M13.507 37.1677C13.507 37.1677 13.9236 37.501 14.0903 37.8343C14.257 38.1675 14.2569 38.5842 14.5903 38.7509C14.9236 38.9175 15.3402 39.2508 15.3402 39.4174C15.3402 39.4174 14.9236 39.4174 14.5069 39.5841C14.0903 39.7507 13.4237 39.7507 13.1737 39.5007C12.9237 39.3341 12.7571 39.0008 12.3404 38.9174C11.9238 38.7508 11.5071 38.9174 11.4238 38.7508C11.3405 38.5008 11.4238 37.5842 11.6738 37.2509C12.0071 37.0011 13.507 37.1677 13.507 37.1677Z" fill="#415A6B"/>
<path d="M13.8411 8.66925L14.5077 8.08594C14.5077 8.08594 14.7577 9.08585 14.7577 9.83578C14.7577 10.5857 14.5911 10.919 14.7577 11.169C14.9243 11.419 15.5076 12.0856 15.5076 12.5023C15.5076 12.9189 15.591 13.0022 15.841 12.9189C16.0909 12.8355 17.0075 12.6689 17.2575 12.5855C17.4241 12.5022 19.174 12.0022 19.174 12.0022C19.174 12.0022 19.0906 13.7521 20.0072 14.0021C20.0072 14.0021 17.3408 14.9186 16.8409 15.002C16.3409 15.0853 15.341 15.4186 15.091 15.4186C14.8411 15.4186 14.3411 15.3352 14.0911 15.002C13.8411 14.6687 13.5078 14.0854 13.5078 13.8354C13.5912 13.5855 13.8411 8.66925 13.8411 8.66925Z" fill="#344A5E"/>
<path d="M13.7566 17.3364C13.7566 17.3364 11.6734 18.5862 9.42361 18.3363C7.17381 18.0863 6.92383 18.0863 6.92383 18.0029C6.92383 17.9196 8.09037 10.1703 8.50705 7.08726H8.92365C9.17363 7.75384 9.84021 8.08717 10.5069 8.08717C11.2568 8.08717 11.8401 7.67057 12.0901 7.00391H12.2567L13.2566 13.67L13.7566 17.3364Z" fill="#B40000"/>
<path d="M6.50822 17.9192C9.4246 18.5858 12.0077 18.5858 13.7576 17.3359C13.7576 17.3359 14.6741 20.0023 14.6741 20.419C14.6741 20.8357 14.5075 20.7524 14.5075 21.4189C14.5075 22.0855 14.5075 26.5851 14.4242 27.4184C14.3408 28.2517 14.1742 29.3349 14.2575 29.6682C14.3409 30.0015 14.5909 31.0847 14.5909 32.0846C14.5909 33.0846 14.0909 36.2509 14.0076 36.5842C13.9242 36.9176 14.0909 37.5008 14.0909 37.5008C14.0909 37.5008 13.2576 37.2508 12.841 37.6674C12.4244 38.0008 11.7578 38.084 11.5078 37.6674C11.5078 37.6674 11.5078 35.8342 11.6744 35.001C11.841 34.1677 11.6744 31.418 11.6744 30.7514C11.6744 30.0848 11.6744 29.5015 11.5911 28.6682C11.5077 27.8349 11.2577 25.9185 11.1744 25.6685C11.0911 25.4185 10.6745 24.002 10.6745 24.002C10.6745 24.002 10.5911 25.0019 10.3412 25.9185C10.0912 26.835 9.67458 28.2516 9.59123 28.5016C9.50788 28.8349 9.2579 30.918 9.2579 31.668C9.2579 32.4179 9.50788 33.5012 9.59123 34.1677C9.67458 34.751 9.67458 36.8341 9.67458 37.1675C9.67458 37.5008 9.67458 37.6674 9.67458 37.6674C9.67458 37.6674 9.4246 37.3341 8.84129 37.3341C8.25799 37.3341 7.75803 37.8341 7.75803 37.8341C7.75803 37.8341 7.09145 37.0841 7.09145 36.6675C7.09145 36.2509 6.75812 35.751 6.67484 34.9177C6.59149 34.0844 6.59149 31.0014 6.67484 29.9181C6.7582 28.8348 6.50822 26.2518 6.34151 24.6686C6.25824 23.1688 6.00826 19.5025 6.50822 17.9192Z" fill="#344A5E"/>
<path d="M11.6738 6.00391C11.6738 6.00391 12.1738 6.92047 12.1738 7.8371C12.2571 8.75366 12.5071 12.4201 12.6737 13.5866C12.8404 14.8365 13.3403 17.8362 13.3403 18.6695C13.4237 19.5028 13.257 20.1694 13.8403 20.4194C14.4236 20.6693 14.8402 20.4194 14.8402 20.4194C14.8402 20.4194 14.2569 19.1695 14.1736 18.4195C14.1736 17.6696 13.6737 15.0865 13.6737 15.0865C13.6737 15.0865 14.007 11.7534 14.257 11.0035C14.4236 10.1702 14.5069 8.08708 14.5069 8.08708C14.5069 8.08708 12.5071 6.92054 12.1738 6.50386C11.8405 6.08726 11.6738 6.00391 11.6738 6.00391Z" fill="#415A6B"/>
<path d="M5.84016 15.0018C5.50683 15.0852 5.25686 15.5851 5.17358 16.0851C5.09023 16.585 5.00696 17.1683 5.00696 17.1683C5.00696 17.1683 3.67371 15.7518 3.25711 15.3351C2.84051 14.9185 2.42382 14.0852 2.2572 13.6686C2.17385 13.3353 2.50718 12.3354 2.75715 11.9188C3.00713 11.5022 3.84042 9.66899 4.25702 8.75243C4.67363 7.83587 5.09031 7.08594 5.09031 7.08594C5.09031 7.08594 5.50691 8.1692 5.59026 9.08576C5.67362 9.58572 5.59026 10.419 5.59026 11.0022C5.59026 11.0022 5.42364 11.3356 5.34029 11.5855C5.25693 11.9189 4.42373 13.0021 4.42373 13.0021C4.42373 13.0021 4.42373 13.0854 4.50708 13.3354C4.59043 13.5854 4.75706 13.752 5.00703 13.9187C5.09039 14.002 5.17366 14.1687 5.34036 14.252C5.67346 14.6685 5.84016 15.0018 5.84016 15.0018Z" fill="#344A5E"/>
<path d="M25.1721 8.16823L20.2559 12.9178C20.1725 13.0012 20.1725 13.1678 20.2559 13.2511C20.3392 13.3345 20.5059 13.3345 20.5892 13.2511L25.3388 8.4182C25.5054 8.25158 25.2554 8.0016 25.1721 8.16823Z" fill="#344A5E"/>
<path d="M20.8391 13.0871H20.9225C21.1724 12.9205 21.4224 12.7538 21.589 12.5038C21.7557 12.3372 21.839 12.0872 21.9224 11.8373C21.7558 11.8373 21.589 11.8373 21.4224 11.7539C21.3391 11.7539 21.3391 11.7539 21.2558 11.7539C21.1724 11.7539 21.1724 11.7539 21.1724 11.8373C21.1724 11.9206 21.1724 11.9206 21.1724 12.0039C21.1724 12.0872 21.2558 12.0872 21.2558 12.1705C21.1724 12.1705 21.1724 12.1705 21.0892 12.1705C21.0058 12.1705 20.9225 12.2539 20.9225 12.2539C20.9225 12.3372 20.9225 12.4205 20.9225 12.5038C20.8392 12.5038 20.6726 12.5038 20.5892 12.5038C20.5059 12.5872 20.5059 12.6705 20.5059 12.7538C20.5891 12.9204 20.6724 13.0038 20.8391 13.0871Z" fill="#FFD15C"/>
<path d="M8.84114 3.33651C8.84114 3.33651 8.92449 2.50323 8.84114 2.08662C8.75779 1.67002 9.34109 0.920086 9.7577 1.17006C10.1743 1.42004 10.841 1.42004 11.0909 1.08671C11.3409 0.753382 12.0909 1.33669 12.0909 1.92C12.0909 2.50331 12.0909 3.08654 12.0909 3.25324H12.1742C12.2576 3.08661 12.5075 2.33668 12.4242 1.92C12.4242 1.33669 11.8409 -0.0798262 10.341 0.00352584C8.84114 0.0868779 8.42453 1.33677 8.34118 2.0867C8.25783 2.50323 8.59116 3.00318 8.84114 3.33651Z" fill="#415A6B"/>
<path d="M9.17475 5.41992C9.17475 5.41992 8.84142 6.50319 8.92478 7.41975C9.00813 8.33631 9.00813 12.6693 9.00813 13.1692C9.00813 13.6692 8.42482 17.9188 8.17484 18.5854C7.92486 19.1687 7.34155 20.5852 6.42499 20.5852C5.50843 20.5852 4.5918 20.0019 4.5918 20.0019C4.5918 20.0019 5.67506 13.3359 5.50836 11.9193C5.50836 11.9193 5.75833 10.1694 5.59171 9.25287C5.42508 8.33631 5.09175 7.25304 5.09175 7.25304C5.09175 7.25304 7.00822 6.50311 7.67489 6.41976C8.34155 6.3364 8.59152 5.6699 9.17475 5.41992Z" fill="#415A6B"/>
</g>
<defs>
<clipPath id="clip0_258_171">
<rect width="40" height="40" fill="white" transform="translate(0 0.5)"/>
</clipPath>
</defs>
</svg>
