<svg width="75" height="75" viewBox="0 0 75 75" fill="none" xmlns="http://www.w3.org/2000/svg">
<path d="M46.0341 40.8516L54.6243 49.4417C55.9612 50.7787 55.9612 52.9462 54.6243 54.2832C53.2873 55.6201 51.1198 55.6201 49.7828 54.2832L42.9297 47.43" stroke="#B40000" stroke-width="2" stroke-miterlimit="10" stroke-linecap="round" stroke-linejoin="round"/>
<path d="M42.9296 47.4297L49.0412 53.5413C50.3782 54.8783 50.3782 57.0458 49.0412 58.3828C47.7042 59.7197 45.5367 59.7197 44.1998 58.3828L39.7969 53.9799" stroke="#B40000" stroke-width="2" stroke-miterlimit="10" stroke-linecap="round" stroke-linejoin="round"/>
<path d="M39.7983 53.9805L42.483 56.6651C43.8199 58.0021 43.8199 60.1696 42.483 61.5065C41.146 62.8435 38.9785 62.8435 37.6415 61.5065L36.3867 60.2518" stroke="#B40000" stroke-width="2" stroke-miterlimit="10" stroke-linecap="round" stroke-linejoin="round"/>
<path d="M58.4319 21.8797L57.7055 22.2422C55.0902 23.5473 52.0521 23.7154 49.3087 22.7067C45.4284 21.2801 41.1195 21.6103 37.5019 23.6114L31.1258 27.1386C29.0419 28.2913 28.4078 30.9906 29.7602 32.9507C30.8029 34.4617 32.7353 35.0766 34.4593 34.4458L42.4894 31.508C44.2248 30.8731 46.171 31.3027 47.4778 32.6095L59.468 44.5997C60.805 45.9367 60.805 48.1042 59.468 49.4412C58.131 50.7781 55.9635 50.7781 54.6266 49.4412L45.1578 39.9724" stroke="#B40000" stroke-width="2" stroke-miterlimit="10" stroke-linecap="round" stroke-linejoin="round"/>
<path d="M37.4998 23.6115C33.8821 21.6103 29.5732 21.2801 25.693 22.7068C22.9497 23.7155 19.9117 23.5474 17.2962 22.2423L16.5977 21.8937" stroke="#B40000" stroke-width="2" stroke-miterlimit="10" stroke-linecap="round" stroke-linejoin="round"/>
<path d="M59.6406 44.4638L65.8593 41.1543" stroke="#B40000" stroke-width="2" stroke-miterlimit="10" stroke-linecap="round" stroke-linejoin="round"/>
<path d="M14.6677 43.9145L9.48828 39.8125" stroke="#B40000" stroke-width="2" stroke-miterlimit="10" stroke-linecap="round" stroke-linejoin="round"/>
<path d="M29.0908 48.0551L25.5004 51.6454C24.1635 52.9824 21.9959 52.9824 20.659 51.6454C19.322 50.3085 19.322 48.141 20.659 46.804L24.2493 43.2137C25.5863 41.8767 27.7538 41.8767 29.0908 43.2137C30.4277 44.5506 30.4277 46.7182 29.0908 48.0551Z" stroke="#B40000" stroke-width="2" stroke-miterlimit="10" stroke-linecap="round" stroke-linejoin="round"/>
<path d="M33.9345 52.8969L30.3442 56.4872C29.0072 57.8242 26.8397 57.8242 25.5027 56.4872C24.1658 55.1503 24.1658 52.9828 25.5027 51.6458L29.0931 48.0555C30.43 46.7185 32.5975 46.7185 33.9345 48.0555C35.2715 49.3924 35.2715 51.5599 33.9345 52.8969Z" stroke="#B40000" stroke-width="2" stroke-miterlimit="10" stroke-linecap="round" stroke-linejoin="round"/>
<path d="M37.2539 59.2582L35.9887 60.5234C34.6517 61.8604 32.4842 61.8604 31.1473 60.5234C29.8103 59.1865 29.8103 57.0189 31.1473 55.682L32.4124 54.4168C33.7494 53.0798 35.9169 53.0798 37.2539 54.4168C38.5909 55.7537 38.5909 57.9213 37.2539 59.2582Z" stroke="#B40000" stroke-width="2" stroke-miterlimit="10" stroke-linecap="round" stroke-linejoin="round"/>
<path d="M17.4171 40.3659L15.8191 41.9639C14.4822 43.3009 14.4822 45.4684 15.8191 46.8054C17.1561 48.1423 19.3236 48.1423 20.6606 46.8054L22.2586 45.2073C23.5955 43.8704 23.5955 41.7029 22.2586 40.3659C20.9216 39.0291 18.7541 39.0291 17.4171 40.3659Z" stroke="#B40000" stroke-width="2" stroke-miterlimit="10" stroke-linecap="round" stroke-linejoin="round"/>
<path d="M73.5362 41.0603L67.1351 43.3629L57.2227 18.7069L68.8481 12.4922L73.5362 41.0603Z" stroke="#B40000" stroke-width="2" stroke-miterlimit="10" stroke-linecap="round" stroke-linejoin="round"/>
<path d="M1.46484 41.0603L7.86592 43.3629L17.7784 18.7069L6.15293 12.4922L1.46484 41.0603Z" stroke="#B40000" stroke-width="2" stroke-miterlimit="10" stroke-linecap="round" stroke-linejoin="round"/>
</svg>
