<svg width="75" height="75" viewBox="0 0 75 75" fill="none" xmlns="http://www.w3.org/2000/svg">
<g clip-path="url(#clip0_1142_13053)">
<path d="M74.2622 37.0081L62.3119 8.40567L50.7812 13.2234C50.9259 11.8634 50.9259 9.93924 50.1881 8.55035C48.5388 5.46875 44.6904 4.29688 41.6088 5.94618C38.5272 7.59549 37.3553 11.4439 39.0046 14.5255C39.5833 15.6105 40.4514 16.4931 41.522 17.0862L29.1956 22.2222C28.9207 21.3542 28.5012 20.5295 27.9659 19.7917C28.125 19.7049 28.2552 19.6036 28.3854 19.4734C28.6892 19.1696 28.8773 18.7645 28.8773 18.3304L28.8194 13.5561H29.8032C30.0347 13.5561 30.2517 13.4549 30.4109 13.2957C30.5845 13.1366 30.6713 12.9051 30.6713 12.6736L30.4977 0L28.7616 0.0289352L28.9207 11.82L5.72917 11.9936L5.57002 0L3.83391 0.0289352L3.99306 12.8906C4.00752 13.3681 4.38368 13.7297 4.86111 13.7442H5.87384C5.87384 13.7876 5.93171 18.5185 5.93171 18.5185C5.94618 19.0394 6.2066 19.5168 6.62616 19.8206L5.98958 20.8333C5.74363 21.224 5.41088 22.1933 5.41088 22.1933H5.39641L2.86458 31.6406L3.53009 33.695L2.5897 34.1146C1.72164 34.5052 1.0272 35.2141 0.694444 36.1111C0.36169 37.0081 0.390625 37.9919 0.78125 38.86L13.6429 67.5926L25.6944 62.1962C26.1285 62.0081 26.4323 61.603 26.4757 61.1256C26.5191 60.6481 26.3021 60.1852 25.9115 59.9248C24.3634 58.8397 23.2928 57.6678 22.9745 56.713C22.1644 54.3113 23.452 51.6927 25.8681 50.8825C28.2697 50.0723 30.8883 51.36 31.6985 53.776C32.0891 54.919 32.0023 56.1777 31.467 57.2627C31.2355 57.7257 31.3223 58.2755 31.684 58.6371C32.0312 59.0133 32.581 59.1291 33.044 58.912L43.0556 54.4271C43.533 54.2245 43.9381 53.8773 44.2274 53.4433L45.7465 52.8212C45.9201 54.2535 46.4554 55.6134 47.309 56.7853C47.1499 56.8721 47.0197 56.9878 46.8895 57.1181C46.5712 57.4219 46.3976 57.8414 46.3976 58.2755L46.4699 63.0353H45.4861C45.2546 63.0353 45.0376 63.1366 44.8785 63.2957C44.7049 63.4549 44.6181 63.6863 44.6325 63.9178L44.7917 74.8409H46.5278L46.3686 64.7859L69.5602 64.5978L69.7193 74.8553H71.4554L71.2963 63.7297C71.2818 63.2523 70.9057 62.8762 70.4282 62.8617H69.4155C69.4155 62.8328 69.43 62.7893 69.43 62.7604L69.3576 58.1019C69.3576 57.581 69.0972 57.0891 68.6632 56.7998C68.9959 56.2645 69.2564 55.8594 69.2998 55.7726C69.5457 55.3964 69.7338 54.9769 69.8495 54.5284L69.8785 54.4271H69.8929L72.4248 44.9653L71.4988 42.0428L72.338 41.6956C74.1609 40.9433 75.0289 38.8744 74.2766 37.0515C74.2766 37.037 74.2622 37.0226 74.2622 37.0081ZM13.6574 29.1667L13.5127 29.4126C12.5289 31.1487 10.7494 31.9155 10.735 31.9155L10.0984 32.1759C10.0984 32.1759 11.0966 38.2089 11.3715 39.9595C11.5307 41.0012 11.3426 42.0718 10.8218 42.9832C10.4456 43.5185 9.83796 43.8368 9.18692 43.8368C8.73843 43.8223 8.55035 43.5909 8.47801 43.4606L5.65683 34.6499L5.12153 32.9861L4.67303 31.5972L7.11806 22.4971C7.19039 22.2367 7.30613 21.9907 7.45081 21.7593C7.45081 21.7593 7.89931 21.0359 8.40567 20.2546L25.9983 20.11C26.7506 20.9057 27.3003 21.875 27.6042 22.9311L13.6574 29.1667ZM26.8229 18.3883H26.794V18.3594L8.02951 18.5041C7.89931 18.5185 7.78357 18.4751 7.68229 18.4028V18.2292L7.62442 13.86C7.72569 13.8021 7.84143 13.7587 7.95718 13.7587L26.7506 13.614C26.8808 13.5995 26.9965 13.6429 27.0978 13.7153L27.1701 18.287C27.0689 18.3449 26.9387 18.3883 26.8229 18.3883ZM42.3466 52.8357L33.478 56.8142C34.3316 53.4144 32.2772 49.9711 28.8773 49.1175C25.4774 48.2639 22.0341 50.3183 21.1806 53.7182C20.8767 54.89 20.9346 56.1343 21.3108 57.2772C21.8027 58.7095 23.1192 59.9826 24.32 60.9086L14.4965 65.3067L2.34375 38.151C2.1412 37.7025 2.12674 37.1962 2.31481 36.7332C2.48843 36.2703 2.83565 35.9086 3.28414 35.706L4.05093 35.3588L6.88657 44.1985C7.3206 45.0231 8.15972 45.5584 9.10012 45.5729C9.10012 45.5729 11.3571 45.6163 12.283 43.8947V43.8657C13.0064 42.5926 13.2812 41.1169 13.0498 39.6701C12.8328 38.2812 12.2396 34.6499 11.9936 33.1887C13.151 32.5521 14.1348 31.6262 14.8582 30.5266L29.5428 23.9439C29.5428 23.9439 29.9479 23.7124 30.2662 23.7847C30.4543 23.8571 30.6279 24.0741 30.7147 24.2622L35.2575 34.6499C35.4456 35.1273 35.923 35.4167 36.4294 35.3877C36.9358 35.3588 37.3698 35.0116 37.5289 34.5341C37.9196 33.2176 38.8744 32.1615 40.1476 31.6406C42.4045 30.6279 45.0665 31.6262 46.0793 33.8831C47.0197 35.9664 46.2529 38.4115 44.2853 39.5833C43.0266 40.2922 40.8275 40.1186 39.945 40.0174C39.4821 39.9595 39.0191 40.162 38.7297 40.5382C38.7297 40.5527 38.3102 41.0301 38.5851 41.8547L42.8819 51.4323C43.0411 51.794 42.9832 52.228 42.7373 52.5318C42.6505 52.662 42.5058 52.7778 42.3466 52.8357ZM67.6215 58.3478L67.6939 62.717C67.5926 62.7894 67.4769 62.8328 67.3466 62.8183L48.5532 62.963C48.423 62.9774 48.3073 62.934 48.206 62.8617L48.1337 58.3623L67.6215 58.3478ZM68.1713 54.0799C68.099 54.3403 67.9832 54.5862 67.8385 54.8177V54.8466C67.8385 54.8466 67.4045 55.5556 66.8981 56.3368L66.7245 56.6117H49.4358L49.2911 56.467C48.1771 55.2807 47.5116 53.7326 47.4248 52.0978L59.9537 46.875C59.6788 47.3669 59.4184 47.8877 59.1725 48.4086L60.7494 49.1464C61.0677 48.4664 61.4149 47.8009 61.7766 47.1644C62.1383 46.5278 62.6302 45.978 63.1944 45.515C63.614 45.1678 64.0625 44.8929 64.5544 44.6615L65.191 44.401L65.0897 43.7211C65.0752 43.7066 65.0318 43.3883 64.945 42.9109C64.6846 41.3484 64.1348 37.963 63.9178 36.6319C63.7587 35.5903 63.9468 34.5197 64.4676 33.6082C64.8438 33.0729 65.4514 32.7402 66.1024 32.7402C66.5509 32.7546 66.739 32.9861 66.8113 33.1308L69.3576 41.059L69.8929 42.7228L70.6163 44.9942L68.1713 54.0799ZM72.6707 39.0914C72.4826 39.5399 72.1209 39.9016 71.6725 40.0897L70.9635 40.3935L68.3883 32.3785C67.9543 31.5538 67.1152 31.033 66.1892 31.0041C63.9612 31.0619 62.9919 32.6968 62.9919 32.6968C62.2685 33.9699 61.9936 35.4456 62.2251 36.8924C62.4421 38.2957 63.0353 41.9126 63.2812 43.3738C62.9485 43.5619 62.6302 43.7789 62.3264 44.0104L44.6759 51.3889C44.6325 51.1574 40.6105 42.1007 40.6105 42.1007C42.0428 42.202 43.6921 42.1296 44.9219 41.4786L45.4716 41.1458C46.1372 40.6973 46.7159 40.1331 47.1643 39.4676L47.3524 39.1782C47.6852 38.6285 47.9311 38.0353 48.0903 37.4132C48.1047 37.3843 48.1047 37.3553 48.1047 37.3264H48.1192C48.2784 36.7622 48.3507 36.1834 48.3507 35.5903C48.3507 34.9537 48.2494 34.3027 48.0613 33.695C47.0197 30.353 43.4606 28.5012 40.1186 29.5428C38.5127 30.0492 37.1672 31.1777 36.386 32.6823L35.3588 30.3819C35.026 29.5573 32.8125 24.6962 32.3206 23.5677C32.2049 23.3507 32.0747 23.1337 31.9155 22.9456L43.3594 18.2292C43.8368 18.0266 44.1262 17.5492 44.0972 17.0428C44.0828 16.5365 43.7355 16.1024 43.2581 15.9578C40.8275 15.2199 39.4531 12.6591 40.191 10.2141C40.2633 9.98264 40.3501 9.76562 40.4514 9.54861C41.0156 8.36227 42.0573 7.46528 43.3304 7.11806C45.4138 6.52488 47.6273 7.45081 48.6545 9.36053C49.3345 10.6337 49.103 12.8183 48.9728 13.7008C48.9149 14.1782 49.103 14.6412 49.4792 14.9306C49.8553 15.2199 50.3472 15.2922 50.7812 15.1042L61.3715 10.6771L72.6562 37.6736C72.8588 38.1221 72.8588 38.6429 72.6707 39.0914Z" fill="#B40000"/>
<path d="M19.8904 67.9831L18.3477 68.7793L20.3514 72.6618L21.8941 71.8656L19.8904 67.9831Z" fill="#B40000"/>
<path d="M7.82794 68.0531L5.82422 71.9355L7.36693 72.7317L9.37065 68.8492L7.82794 68.0531Z" fill="#B40000"/>
<path d="M13.0091 70.5403L12.9023 74.9082L14.6379 74.9506L14.7447 70.5827L13.0091 70.5403Z" fill="#B40000"/>
<path d="M56.5974 2.44991L55.0547 3.24609L57.0584 7.12858L58.6011 6.3324L56.5974 2.44991Z" fill="#B40000"/>
<path d="M69.5858 2.50814L67.582 6.39062L69.1247 7.18681L71.1285 3.30433L69.5858 2.50814Z" fill="#B40000"/>
<path d="M62.2122 0.186783L62.1055 4.55469L63.8411 4.5971L63.9478 0.2292L62.2122 0.186783Z" fill="#B40000"/>
</g>
<defs>
<clipPath id="clip0_1142_13053">
<rect width="75" height="75" fill="white"/>
</clipPath>
</defs>
</svg>
