<svg width="16" height="24" viewBox="0 0 16 24" fill="none" xmlns="http://www.w3.org/2000/svg">
<path d="M9.95328 1.5176L8.26093 10.4093L14.3918 10.4299L6.04655 22.4839L7.73893 12.7016L1.60843 12.6802L9.95328 1.5176ZM9.95443 0.017625C9.91393 0.017625 9.87345 0.0191016 9.8337 0.0220781C9.56895 0.0434766 9.39343 0.131977 9.18533 0.271852C9.06814 0.349978 8.96249 0.444144 8.87145 0.551602C8.84411 0.583853 8.81832 0.617391 8.79418 0.652102L0.389302 11.7757C0.057427 12.2306 0.00867699 12.831 0.263677 13.3328C0.518302 13.8345 1.03318 14.1525 1.59755 14.1566L5.9273 14.1881L4.56605 22.2083C4.43668 22.8975 4.80418 23.5845 5.45105 23.8613C5.63904 23.942 5.84154 23.9836 6.04615 23.9835C6.51753 23.9835 6.9049 23.763 7.19555 23.3648L15.6109 11.3107C15.9428 10.8558 15.9912 10.2547 15.7366 9.7537C15.4819 9.25195 14.9671 8.93393 14.4027 8.92983L10.0729 8.92233L11.4196 1.87045C11.4481 1.755 11.4625 1.6365 11.4623 1.51758C11.4623 0.706078 10.8162 0.0445781 10.0077 0.0183281C9.9897 0.0175781 9.97205 0.0175781 9.95445 0.0175781L9.95443 0.017625Z" fill="#FFB606"/>
</svg>
