<svg width="14" height="16" viewBox="0 0 14 16" fill="none" xmlns="http://www.w3.org/2000/svg">
<g clip-path="url(#clip0_234_526)">
<path d="M3.09205 1.29395C2.9307 1.39355 2.89843 1.51367 2.89843 1.99414V2.4043H2.40196C2.12891 2.4043 1.8484 2.41895 1.77641 2.43652C1.34945 2.54492 1.00441 2.95215 0.915042 3.45312C0.875325 3.67578 0.875325 13.499 0.915042 13.7188C1.00689 14.2227 1.34945 14.627 1.77641 14.7354C1.96259 14.7822 12.52 14.7822 12.7086 14.7354C13.1306 14.6299 13.4806 14.2139 13.57 13.7188C13.6097 13.4961 13.6097 3.66992 13.57 3.45312C13.4782 2.94922 13.1331 2.54199 12.7086 2.43652C12.6367 2.41895 12.3537 2.4043 12.0831 2.4043H11.5866V1.99414C11.5866 1.50781 11.5543 1.39062 11.388 1.29102C11.2639 1.21777 11.1646 1.21777 11.0405 1.29102C10.8742 1.39062 10.8419 1.50781 10.8419 1.99414V2.4043H9.2284H7.61488V1.99414C7.61488 1.50781 7.58261 1.39062 7.41629 1.29102C7.29217 1.21777 7.19288 1.21777 7.06876 1.29102C6.90245 1.39062 6.87017 1.50781 6.87017 1.99414V2.4043H5.25665H3.64313V1.99414C3.64313 1.63965 3.63569 1.56641 3.59349 1.4668C3.50164 1.25293 3.27823 1.17676 3.09205 1.29395ZM2.89843 3.69336C2.89843 4.04785 2.90588 4.12109 2.94808 4.2207C3.00517 4.35254 3.14667 4.45508 3.27078 4.45508C3.3949 4.45508 3.53639 4.35254 3.59349 4.2207C3.63569 4.12109 3.64313 4.04785 3.64313 3.69336V3.2832H5.25665H6.87017V3.69336C6.87017 4.17969 6.90245 4.29688 7.06876 4.39648C7.19288 4.46973 7.29217 4.46973 7.41629 4.39648C7.58261 4.29688 7.61488 4.17969 7.61488 3.69336V3.2832H9.2284H10.8419V3.69336C10.8419 4.04785 10.8494 4.12109 10.8916 4.2207C10.9487 4.35254 11.0902 4.45508 11.2143 4.45508C11.3384 4.45508 11.4799 4.35254 11.537 4.2207C11.5792 4.12109 11.5866 4.04785 11.5866 3.69336V3.2832H12.0707C12.6342 3.2832 12.7136 3.30957 12.803 3.51758C12.8501 3.62598 12.8526 3.6875 12.8526 4.54297V5.45117H7.24253H1.63244V4.53418C1.63492 3.50293 1.6374 3.48242 1.8211 3.35352C1.91542 3.28613 1.93777 3.2832 2.40941 3.2832H2.89843V3.69336ZM12.8526 9.93359C12.8526 13.4902 12.8526 13.54 12.803 13.6543C12.7707 13.7305 12.7186 13.792 12.654 13.8301C12.5572 13.8887 12.52 13.8887 7.24004 13.8887H1.92535L1.82606 13.8242C1.76648 13.7832 1.70691 13.7129 1.6796 13.6484C1.63492 13.543 1.63244 13.417 1.63244 9.93359V6.33008H7.24253H12.8526V9.93359Z" fill="#FFB606"/>
<path d="M3.48903 7.85645C3.38229 7.9209 3.29541 8.09375 3.29541 8.23438C3.29541 8.38086 3.38229 8.54785 3.494 8.61523C3.58088 8.66797 3.64046 8.67383 4.06494 8.67383C4.48942 8.67383 4.54899 8.66797 4.63587 8.61523C4.74758 8.54785 4.83446 8.38086 4.83446 8.23438C4.83446 8.08789 4.74758 7.9209 4.63587 7.85352C4.54899 7.80078 4.4919 7.79492 4.05997 7.79492C3.63301 7.79785 3.57095 7.80371 3.48903 7.85645Z" fill="#FFB606"/>
<path d="M6.66677 7.85645C6.56003 7.9209 6.47314 8.09375 6.47314 8.23438C6.47314 8.38086 6.56003 8.54785 6.67173 8.61523C6.75861 8.66797 6.81819 8.67383 7.24267 8.67383C7.66715 8.67383 7.72673 8.66797 7.81361 8.61523C7.92531 8.54785 8.0122 8.38086 8.0122 8.23438C8.0122 8.08789 7.92531 7.9209 7.81361 7.85352C7.72673 7.80078 7.66963 7.79492 7.23771 7.79492C6.81074 7.79785 6.74868 7.80371 6.66677 7.85645Z" fill="#FFB606"/>
<path d="M9.84255 7.85645C9.73581 7.9209 9.64893 8.09375 9.64893 8.23438C9.64893 8.38086 9.73581 8.54785 9.84751 8.61523C9.93439 8.66797 9.99397 8.67383 10.4185 8.67383C10.8429 8.67383 10.9025 8.66797 10.9894 8.61523C11.1011 8.54785 11.188 8.38086 11.188 8.23438C11.188 8.08789 11.1011 7.9209 10.9894 7.85352C10.9025 7.80078 10.8454 7.79492 10.4135 7.79492C9.98652 7.79785 9.92447 7.80371 9.84255 7.85645Z" fill="#FFB606"/>
<path d="M3.48903 9.73145C3.38229 9.7959 3.29541 9.96875 3.29541 10.1094C3.29541 10.2559 3.38229 10.4229 3.494 10.4902C3.58088 10.543 3.64046 10.5488 4.06494 10.5488C4.48942 10.5488 4.54899 10.543 4.63587 10.4902C4.74758 10.4229 4.83446 10.2559 4.83446 10.1094C4.83446 9.96289 4.74758 9.7959 4.63587 9.72852C4.54899 9.67578 4.4919 9.66992 4.05997 9.66992C3.63301 9.67285 3.57095 9.67871 3.48903 9.73145Z" fill="#FFB606"/>
<path d="M6.66677 9.73145C6.56003 9.7959 6.47314 9.96875 6.47314 10.1094C6.47314 10.2559 6.56003 10.4229 6.67173 10.4902C6.75861 10.543 6.81819 10.5488 7.24267 10.5488C7.66715 10.5488 7.72673 10.543 7.81361 10.4902C7.92531 10.4229 8.0122 10.2559 8.0122 10.1094C8.0122 9.96289 7.92531 9.7959 7.81361 9.72852C7.72673 9.67578 7.66963 9.66992 7.23771 9.66992C6.81074 9.67285 6.74868 9.67871 6.66677 9.73145Z" fill="#FFB606"/>
<path d="M9.84255 9.73145C9.73581 9.7959 9.64893 9.96875 9.64893 10.1094C9.64893 10.2559 9.73581 10.4229 9.84751 10.4902C9.93439 10.543 9.99397 10.5488 10.4185 10.5488C10.8429 10.5488 10.9025 10.543 10.9894 10.4902C11.1011 10.4229 11.188 10.2559 11.188 10.1094C11.188 9.96289 11.1011 9.7959 10.9894 9.72852C10.9025 9.67578 10.8454 9.66992 10.4135 9.66992C9.98652 9.67285 9.92447 9.67871 9.84255 9.73145Z" fill="#FFB606"/>
<path d="M3.48903 11.6064C3.38229 11.6709 3.29541 11.8438 3.29541 11.9844C3.29541 12.1309 3.38229 12.2979 3.494 12.3652C3.58088 12.418 3.64046 12.4238 4.06494 12.4238C4.48942 12.4238 4.54899 12.418 4.63587 12.3652C4.74758 12.2979 4.83446 12.1309 4.83446 11.9844C4.83446 11.8379 4.74758 11.6709 4.63587 11.6035C4.54899 11.5508 4.4919 11.5449 4.05997 11.5449C3.63301 11.5479 3.57095 11.5537 3.48903 11.6064Z" fill="#FFB606"/>
<path d="M6.66677 11.6064C6.56003 11.6709 6.47314 11.8438 6.47314 11.9844C6.47314 12.1309 6.56003 12.2979 6.67173 12.3652C6.75861 12.418 6.81819 12.4238 7.24267 12.4238C7.66715 12.4238 7.72673 12.418 7.81361 12.3652C7.92531 12.2979 8.0122 12.1309 8.0122 11.9844C8.0122 11.8379 7.92531 11.6709 7.81361 11.6035C7.72673 11.5508 7.66963 11.5449 7.23771 11.5449C6.81074 11.5479 6.74868 11.5537 6.66677 11.6064Z" fill="#FFB606"/>
<path d="M9.84255 11.6064C9.73581 11.6709 9.64893 11.8438 9.64893 11.9844C9.64893 12.1309 9.73581 12.2979 9.84751 12.3652C9.93439 12.418 9.99397 12.4238 10.4185 12.4238C10.8429 12.4238 10.9025 12.418 10.9894 12.3652C11.1011 12.2979 11.188 12.1309 11.188 11.9844C11.188 11.8379 11.1011 11.6709 10.9894 11.6035C10.9025 11.5508 10.8454 11.5449 10.4135 11.5449C9.98652 11.5479 9.92447 11.5537 9.84255 11.6064Z" fill="#FFB606"/>
</g>
<defs>
<clipPath id="clip0_234_526">
<rect width="12.7096" height="15" fill="white" transform="translate(0.88916 0.5)"/>
</clipPath>
</defs>
</svg>
