<svg width="18" height="19" viewBox="0 0 18 19" fill="none" xmlns="http://www.w3.org/2000/svg">
<path d="M2.26234 17.4202C1.79918 17.4202 1.40255 17.2555 1.07244 16.9259C0.742897 16.5958 0.578125 16.1992 0.578125 15.736V2.26234C0.578125 1.79918 0.742897 1.40255 1.07244 1.07244C1.40255 0.742897 1.79918 0.578125 2.26234 0.578125H12.3676C12.8308 0.578125 13.2274 0.742897 13.5575 1.07244C13.887 1.40255 14.0518 1.79918 14.0518 2.26234V7.39918C14.0518 7.63777 13.971 7.83763 13.8093 7.99876C13.6482 8.16044 13.4483 8.24128 13.2097 8.24128C12.9711 8.24128 12.7712 8.16044 12.6101 7.99876C12.4484 7.83763 12.3676 7.63777 12.3676 7.39918V2.26234H8.15707V7.42023C8.15707 7.58865 8.0869 7.71132 7.94655 7.78823C7.8062 7.8657 7.66584 7.86234 7.52549 7.77812L6.05181 6.89391L4.57812 7.77812C4.43777 7.86234 4.29742 7.8657 4.15707 7.78823C4.01672 7.71132 3.94655 7.58865 3.94655 7.42023V2.26234H2.26234V15.736H7.12549C7.36409 15.736 7.56423 15.8169 7.72591 15.9785C7.88704 16.1397 7.9676 16.3395 7.9676 16.5781C7.9676 16.8167 7.88704 17.0166 7.72591 17.1777C7.56423 17.3394 7.36409 17.4202 7.12549 17.4202H2.26234ZM13.2097 18.2623C12.0448 18.2623 11.0519 17.8519 10.2312 17.0312C9.40984 16.2098 8.99918 15.2167 8.99918 14.0518C8.99918 12.8869 9.40984 11.8938 10.2312 11.0724C11.0519 10.2517 12.0448 9.84128 13.2097 9.84128C14.3746 9.84128 15.3677 10.2517 16.1891 11.0724C17.0098 11.8938 17.4202 12.8869 17.4202 14.0518C17.4202 15.2167 17.0098 16.2098 16.1891 17.0312C15.3677 17.8519 14.3746 18.2623 13.2097 18.2623ZM12.8097 15.7571L14.9571 14.4097C15.0974 14.3255 15.1676 14.2062 15.1676 14.0518C15.1676 13.8974 15.0974 13.7781 14.9571 13.6939L12.8097 12.3465C12.6694 12.2483 12.5256 12.2413 12.3785 12.3255C12.2309 12.4097 12.1571 12.536 12.1571 12.7044V15.3992C12.1571 15.5676 12.2309 15.6939 12.3785 15.7781C12.5256 15.8623 12.6694 15.8553 12.8097 15.7571ZM7.12549 2.26234H2.26234H12.3676H7.12549Z" fill="#FFB606"/>
</svg>
