<svg width="27" height="18" viewBox="0 0 27 18" fill="none" xmlns="http://www.w3.org/2000/svg">
<path d="M14.439 17.5668C14.439 17.5668 12.743 17.5376 12.2987 16.3267C11.9054 15.2557 12.8202 14.8989 12.8202 14.8989C12.8202 14.8989 11.4472 14.8644 11.0046 13.5811C10.5883 12.3715 11.782 11.8887 11.782 11.8887C11.782 11.8887 10.4504 11.6258 10.1248 10.358C9.84991 9.29073 11.0561 8.56848 11.0561 8.56848L2.30563 8.11212C1.61901 8.07631 0.477825 7.67526 0.542657 6.41836C0.607488 5.16147 1.81298 4.93573 2.4695 4.96997L17.1624 5.73624C17.8791 5.77362 17.9119 5.14519 17.1952 5.10781L15.2844 5.00816C12.5665 4.86642 10.949 3.49847 10.5065 3.0261C10.064 2.55373 9.85874 1.94188 10.0728 1.22649C10.4351 0.0128345 11.4991 0.337392 12.3961 0.733903C14.5584 1.68854 17.6719 2.42875 19.1493 2.68224C23.3219 3.39766 26.3949 6.71996 26.2001 10.5379C25.9858 14.702 22.0056 17.9583 17.2564 17.7138L14.439 17.5668Z" fill="#FFDC5D"/>
</svg>
