<svg width="21" height="23" viewBox="0 0 21 23" fill="none" xmlns="http://www.w3.org/2000/svg">
<path d="M2 17.5C2.26522 17.5 2.51957 17.3946 2.70711 17.2071C2.89464 17.0196 3 16.7652 3 16.5C3 16.2348 2.89464 15.9804 2.70711 15.7929C2.51957 15.6054 2.26522 15.5 2 15.5C1.73478 15.5 1.48043 15.6054 1.29289 15.7929C1.10536 15.9804 1 16.2348 1 16.5C1 16.7652 1.10536 17.0196 1.29289 17.2071C1.48043 17.3946 1.73478 17.5 2 17.5Z" fill="black" stroke="black" stroke-width="1.5" stroke-linecap="round" stroke-linejoin="round"/>
<path d="M20 6.85296V16.147C20.0001 16.2541 19.9714 16.3593 19.9171 16.4516C19.8627 16.5439 19.7847 16.62 19.691 16.672L11.291 21.338C11.202 21.3873 11.1018 21.4133 11 21.4133C10.8982 21.4133 10.798 21.3873 10.709 21.338L2.309 16.672C2.21532 16.62 2.13725 16.5439 2.08292 16.4516C2.02858 16.3593 1.99995 16.2541 2 16.147V6.85296C2.00013 6.74601 2.02884 6.64103 2.08317 6.5489C2.1375 6.45677 2.21547 6.38083 2.309 6.32896L10.709 1.66196C10.798 1.61258 10.8982 1.58667 11 1.58667C11.1018 1.58667 11.202 1.61258 11.291 1.66196L19.691 6.32896C19.7845 6.38083 19.8625 6.45677 19.9168 6.5489C19.9712 6.64103 19.9999 6.74601 20 6.85296Z" stroke="black" stroke-width="1.5" stroke-linecap="round" stroke-linejoin="round"/>
<path d="M2.52734 6.79408L10.7073 11.3381C10.7965 11.3876 10.8968 11.4136 10.9988 11.4136C11.1009 11.4136 11.2012 11.3876 11.2903 11.3381L19.4993 6.77808M10.9993 20.5001V11.5001" stroke="black" stroke-width="1.5" stroke-linecap="round" stroke-linejoin="round"/>
</svg>
