<svg width="42" height="42" viewBox="0 0 42 42" fill="none" xmlns="http://www.w3.org/2000/svg">
<g clip-path="url(#clip0_110_111)">
<path d="M20.885 41.7699C32.4194 41.7699 41.7699 32.4194 41.7699 20.885C41.7699 9.35052 32.4194 0 20.885 0C9.35052 0 0 9.35052 0 20.885C0 32.4194 9.35052 41.7699 20.885 41.7699Z" fill="#3B5998"/>
<path d="M26.1364 21.7018H22.4097V35.3546H16.7635V21.7018H14.0781V16.9037H16.7635V13.7988C16.7635 11.5784 17.8182 8.10156 22.46 8.10156L26.6423 8.11906V12.7765H23.6077C23.11 12.7765 22.4101 13.0252 22.4101 14.0843V16.9082H26.6297L26.1364 21.7018Z" fill="white"/>
</g>
<defs>
<clipPath id="clip0_110_111">
<rect width="41.7699" height="41.7699" fill="white"/>
</clipPath>
</defs>
</svg>
