<svg width="42" height="41" viewBox="0 0 42 41" fill="none" xmlns="http://www.w3.org/2000/svg">
<path d="M21.0126 40.1076C32.5269 40.1076 41.8611 31.1292 41.8611 20.0538C41.8611 8.9784 32.5269 0 21.0126 0C9.49826 0 0.164062 8.9784 0.164062 20.0538C0.164062 31.1292 9.49826 40.1076 21.0126 40.1076Z" fill="#007AB9"/>
<path d="M33.4683 21.669V29.9368H28.4849V22.2231C28.4849 20.2863 27.7654 18.9636 25.961 18.9636C24.5841 18.9636 23.7661 19.8541 23.4049 20.7164C23.2737 21.0245 23.2399 21.4524 23.2399 21.8846V29.9364H18.2561C18.2561 29.9364 18.323 16.872 18.2561 15.5197H23.2402V17.5627C23.2302 17.5788 23.2161 17.5945 23.2072 17.6099H23.2402V17.5627C23.9025 16.5825 25.0836 15.1812 27.7316 15.1812C31.0102 15.1812 33.4683 17.2417 33.4683 21.669ZM13.0427 8.57031C11.338 8.57031 10.2227 9.64668 10.2227 11.0609C10.2227 12.445 11.3056 13.5525 12.9773 13.5525H13.0096C14.7478 13.5525 15.8285 12.445 15.8285 11.0609C15.7955 9.64668 14.7478 8.57031 13.0427 8.57031ZM10.5189 29.9368H15.5007V15.5197H10.5189V29.9368Z" fill="#F1F2F2"/>
</svg>
