<svg width="43" height="42" viewBox="0 0 43 42" fill="none" xmlns="http://www.w3.org/2000/svg">
<circle cx="21.7096" cy="20.8485" r="20.8485" fill="black"/>
<path d="M31.1384 14.074L32.9683 12.3725V12H26.6291L22.1112 22.9302L16.9713 12H10.3244V12.3725L12.462 14.8737C12.6703 15.0586 12.7793 15.3288 12.7516 15.601V25.4306C12.8175 25.7844 12.699 26.1485 12.4429 26.4058L10.0349 29.2424V29.6102H16.8624V29.2377L14.4544 26.4058C14.1935 26.1476 14.0702 25.79 14.1228 25.4306V16.9283L20.116 29.6148H20.8126L25.9659 16.9283V27.0346C25.9659 27.3012 25.9659 27.356 25.7863 27.5306L23.9325 29.274V29.6473H32.9262V29.2749L31.1393 27.5742C30.9826 27.4591 30.9014 27.2659 30.9348 27.0783V14.57C30.9014 14.3815 30.9817 14.1883 31.1384 14.074Z" fill="white"/>
</svg>
