<svg width="39" height="4" viewBox="0 0 39 4" fill="none" xmlns="http://www.w3.org/2000/svg">
<path d="M1.69133 1.64109e-07C2.68623 1.20398e-07 3.38266 0.8 3.38266 1.7C3.38266 2.6 2.68623 3.5 1.69133 3.5C0.69643 3.5 -3.47908e-08 2.7 -7.39304e-08 1.8C-1.1307e-07 0.9 0.79592 2.03449e-07 1.69133 1.64109e-07Z" fill="#B40000"/>
<path d="M29.5488 1.64109e-07C30.5437 1.20398e-07 31.2401 0.8 31.2401 1.7C31.2401 2.6 30.5437 3.5 29.5488 3.5C28.5539 3.5 27.8574 2.7 27.8574 1.8C27.8574 0.9 28.6533 2.03449e-07 29.5488 1.64109e-07Z" fill="#B40000"/>
<path d="M8.65617 1.64109e-07C9.65107 1.20398e-07 10.3475 0.8 10.3475 1.7C10.3475 2.6 9.55158 3.5 8.65617 3.5C7.76076 3.5 6.96484 2.7 6.96484 1.8C6.96484 0.9 7.66127 2.07821e-07 8.65617 1.64109e-07Z" fill="#B40000"/>
<path d="M36.5117 1.64109e-07C37.5066 1.20398e-07 38.203 0.8 38.203 1.7C38.203 2.6 37.4071 3.5 36.5117 3.5C35.6162 3.5 34.8203 2.7 34.8203 1.8C34.8203 0.9 35.5167 2.07821e-07 36.5117 1.64109e-07Z" fill="#B40000"/>
<path d="M15.621 1.64109e-07C16.6159 1.20398e-07 17.3123 0.8 17.3123 1.7C17.3123 2.6 16.5164 3.5 15.621 3.5C14.6261 3.5 13.9297 2.7 13.9297 1.8C13.9297 0.9 14.6261 2.07821e-07 15.621 1.64109e-07Z" fill="#B40000"/>
<path d="M22.5839 1.64109e-07C23.5788 1.20398e-07 24.2752 0.8 24.2752 1.7C24.2752 2.6 23.4793 3.5 22.5839 3.5C21.589 3.5 20.8926 2.7 20.8926 1.8C20.8926 0.9 21.589 2.07821e-07 22.5839 1.64109e-07Z" fill="#B40000"/>
</svg>
