<svg width="43" height="42" viewBox="0 0 43 42" fill="none" xmlns="http://www.w3.org/2000/svg">
<g clip-path="url(#clip0_110_115)">
<path d="M21.6184 0C33.1334 0 42.467 9.3349 42.467 20.8486C42.467 32.3635 33.1334 41.697 21.6184 41.697C10.1035 41.697 0.77002 32.3634 0.77002 20.8486C0.77002 9.3349 10.1036 0 21.6184 0Z" fill="#26A6D1"/>
<path d="M34.6532 14.0447C33.7425 14.4381 32.7625 14.7026 31.7345 14.8226C32.7848 14.2114 33.59 13.2458 33.9692 12.0928C32.9867 12.6596 31.8999 13.0701 30.7416 13.2902C29.8151 12.3325 28.4951 11.7344 27.0332 11.7344C24.2291 11.7344 21.954 13.9405 21.954 16.6637C21.954 17.0507 21.9984 17.4273 22.0856 17.7883C17.8637 17.5824 14.1188 15.6187 11.6145 12.6361C11.1766 13.3645 10.9264 14.2101 10.9264 15.1144C10.9264 16.824 11.8229 18.3355 13.1859 19.2177C12.352 19.1917 11.5701 18.9714 10.8835 18.6001V18.6627C10.8835 21.0524 12.6347 23.0448 14.9593 23.4982C14.5332 23.6103 14.0849 23.6716 13.621 23.6716C13.294 23.6716 12.9761 23.6416 12.6659 23.583C13.3122 25.5427 15.1886 26.9682 17.4129 27.0074C15.6734 28.3312 13.4829 29.1183 11.1023 29.1183C10.6918 29.1183 10.2879 29.0948 9.88916 29.0493C12.1395 30.4487 14.8082 31.2657 17.6787 31.2657C27.024 31.2657 32.1345 23.7498 32.1345 17.2346L32.1202 16.5961C33.1104 15.9028 33.9718 15.035 34.6532 14.0447Z" fill="white"/>
</g>
<defs>
<clipPath id="clip0_110_115">
<rect width="41.697" height="41.697" fill="white" transform="translate(0.77002)"/>
</clipPath>
</defs>
</svg>
