<svg width="43" height="42" viewBox="0 0 43 42" fill="none" xmlns="http://www.w3.org/2000/svg">
<g clip-path="url(#clip0_110_119)">
<path d="M21.3155 41.697C32.8298 41.697 42.164 32.3628 42.164 20.8485C42.164 9.33418 32.8298 0 21.3155 0C9.80122 0 0.467041 9.33418 0.467041 20.8485C0.467041 32.3628 9.80122 41.697 21.3155 41.697Z" fill="#D22215"/>
<path d="M28.2912 12.4062H14.3408C11.6037 12.4062 9.38501 14.6251 9.38501 17.362V24.3358C9.38501 27.0728 11.6038 29.2916 14.3408 29.2916H28.2912C31.0282 29.2916 33.2469 27.0728 33.2469 24.3358V17.362C33.2469 14.6251 31.0281 12.4062 28.2912 12.4062ZM24.9395 21.1882L18.4146 24.3002C18.2406 24.3831 18.0397 24.2565 18.0397 24.0639V17.6453C18.0397 17.4499 18.2459 17.3232 18.4201 17.4116L24.945 20.7181C25.1393 20.8164 25.1358 21.0947 24.9395 21.1882Z" fill="white"/>
</g>
<defs>
<clipPath id="clip0_110_119">
<rect width="41.697" height="41.697" fill="white" transform="translate(0.467041)"/>
</clipPath>
</defs>
</svg>
