<svg width="24" height="24" viewBox="0 0 24 24" fill="none" xmlns="http://www.w3.org/2000/svg">
<g clip-path="url(#clip0_1378_14539)">
<path d="M12 24C18.6274 24 24 18.6274 24 12C24 5.37258 18.6274 0 12 0C5.37258 0 0 5.37258 0 12C0 18.6274 5.37258 24 12 24Z" fill="#3B5998"/>
<path d="M15.0172 12.4694H12.876V20.314H9.63181V12.4694H8.08887V9.71253H9.63181V7.92851C9.63181 6.65275 10.2378 4.65503 12.9049 4.65503L15.3079 4.66508V7.34111H13.5644C13.2784 7.34111 12.8762 7.48401 12.8762 8.09258V9.7151H15.3007L15.0172 12.4694Z" fill="white"/>
</g>
<defs>
<clipPath id="clip0_1378_14539">
<rect width="24" height="24" fill="white"/>
</clipPath>
</defs>
</svg>
