<svg width="24" height="24" viewBox="0 0 24 24" fill="none" xmlns="http://www.w3.org/2000/svg">
<path d="M12 24C18.6274 24 24 18.6274 24 12C24 5.37258 18.6274 0 12 0C5.37258 0 0 5.37258 0 12C0 18.6274 5.37258 24 12 24Z" fill="#007AB9"/>
<path d="M19.1688 12.9656V17.9129H16.3004V13.2971C16.3004 12.1382 15.8863 11.3467 14.8478 11.3467C14.0552 11.3467 13.5844 11.8796 13.3765 12.3955C13.301 12.5799 13.2815 12.836 13.2815 13.0946V17.9127H10.413C10.413 17.9127 10.4515 10.0951 10.413 9.28588H13.2817V10.5084C13.276 10.518 13.2678 10.5274 13.2627 10.5366H13.2817V10.5084C13.6629 9.92184 14.3427 9.08331 15.8669 9.08331C17.754 9.08331 19.1688 10.3163 19.1688 12.9656ZM7.41222 5.12744C6.43101 5.12744 5.78906 5.77153 5.78906 6.61776C5.78906 7.44603 6.4124 8.10873 7.37457 8.10873H7.39318C8.39365 8.10873 9.0157 7.44603 9.0157 6.61776C8.99666 5.77153 8.39365 5.12744 7.41222 5.12744ZM5.95955 17.9129H8.82703V9.28588H5.95955V17.9129Z" fill="#F1F2F2"/>
</svg>
