<svg width="13" height="14" viewBox="0 0 13 14" fill="none" xmlns="http://www.w3.org/2000/svg">
<path d="M10.5273 13.6204C9.97179 13.6204 9.49957 13.426 9.11068 13.0371C8.72179 12.6482 8.52734 12.176 8.52734 11.6204C8.52734 11.5427 8.5329 11.462 8.54401 11.3784C8.55512 11.2953 8.57179 11.2204 8.59401 11.1538L3.89401 8.42044C3.70512 8.58711 3.49401 8.71755 3.26068 8.81178C3.02734 8.90644 2.7829 8.95378 2.52734 8.95378C1.97179 8.95378 1.49957 8.75933 1.11068 8.37044C0.721788 7.98155 0.527344 7.50933 0.527344 6.95378C0.527344 6.39822 0.721788 5.926 1.11068 5.53711C1.49957 5.14822 1.97179 4.95378 2.52734 4.95378C2.7829 4.95378 3.02734 5.00089 3.26068 5.09511C3.49401 5.18978 3.70512 5.32044 3.89401 5.48711L8.59401 2.75378C8.57179 2.68711 8.55512 2.61222 8.54401 2.52911C8.5329 2.44555 8.52734 2.36489 8.52734 2.28711C8.52734 1.73155 8.72179 1.25933 9.11068 0.870443C9.49957 0.481554 9.97179 0.287109 10.5273 0.287109C11.0829 0.287109 11.5551 0.481554 11.944 0.870443C12.3329 1.25933 12.5273 1.73155 12.5273 2.28711C12.5273 2.84266 12.3329 3.31489 11.944 3.70378C11.5551 4.09266 11.0829 4.28711 10.5273 4.28711C10.2718 4.28711 10.0273 4.23978 9.79401 4.14511C9.56068 4.05089 9.34957 3.92044 9.16068 3.75378L4.46068 6.48711C4.4829 6.55378 4.49957 6.62866 4.51068 6.71178C4.52179 6.79533 4.52734 6.876 4.52734 6.95378C4.52734 7.03155 4.52179 7.112 4.51068 7.19511C4.49957 7.27867 4.4829 7.35378 4.46068 7.42044L9.16068 10.1538C9.34957 9.98711 9.56068 9.85644 9.79401 9.76178C10.0273 9.66755 10.2718 9.62044 10.5273 9.62044C11.0829 9.62044 11.5551 9.81489 11.944 10.2038C12.3329 10.5927 12.5273 11.0649 12.5273 11.6204C12.5273 12.176 12.3329 12.6482 11.944 13.0371C11.5551 13.426 11.0829 13.6204 10.5273 13.6204ZM10.5273 2.95378C10.7162 2.95378 10.8745 2.89 11.002 2.76244C11.13 2.63444 11.194 2.476 11.194 2.28711C11.194 2.09822 11.13 1.93978 11.002 1.81178C10.8745 1.68422 10.7162 1.62044 10.5273 1.62044C10.3385 1.62044 10.1802 1.68422 10.0527 1.81178C9.92468 1.93978 9.86068 2.09822 9.86068 2.28711C9.86068 2.476 9.92468 2.63444 10.0527 2.76244C10.1802 2.89 10.3385 2.95378 10.5273 2.95378ZM2.52734 7.62044C2.71623 7.62044 2.87468 7.55644 3.00268 7.42844C3.13023 7.30089 3.19401 7.14266 3.19401 6.95378C3.19401 6.76489 3.13023 6.60644 3.00268 6.47844C2.87468 6.35089 2.71623 6.28711 2.52734 6.28711C2.33845 6.28711 2.18001 6.35089 2.05201 6.47844C1.92446 6.60644 1.86068 6.76489 1.86068 6.95378C1.86068 7.14266 1.92446 7.30089 2.05201 7.42844C2.18001 7.55644 2.33845 7.62044 2.52734 7.62044ZM10.5273 12.2871C10.7162 12.2871 10.8745 12.2231 11.002 12.0951C11.13 11.9676 11.194 11.8093 11.194 11.6204C11.194 11.4316 11.13 11.2733 11.002 11.1458C10.8745 11.0178 10.7162 10.9538 10.5273 10.9538C10.3385 10.9538 10.1802 11.0178 10.0527 11.1458C9.92468 11.2733 9.86068 11.4316 9.86068 11.6204C9.86068 11.8093 9.92468 11.9676 10.0527 12.0951C10.1802 12.2231 10.3385 12.2871 10.5273 12.2871Z" fill="#666666"/>
</svg>
