<svg width="24" height="24" viewBox="0 0 24 24" fill="none" xmlns="http://www.w3.org/2000/svg">
<g clip-path="url(#clip0_1378_14547)">
<path d="M12 0C18.6277 0 24 5.373 24 12C24 18.6278 18.6277 24 12 24C5.37217 24 0 18.6277 0 12C0 5.373 5.37225 0 12 0Z" fill="#26A6D1"/>
<path d="M19.5025 8.08391C18.9783 8.31038 18.4142 8.46263 17.8225 8.53167C18.4271 8.17989 18.8906 7.62412 19.1088 6.96044C18.5433 7.28668 17.9178 7.52296 17.251 7.64966C16.7178 7.09843 15.958 6.75415 15.1166 6.75415C13.5026 6.75415 12.1931 8.02393 12.1931 9.59137C12.1931 9.81414 12.2186 10.0309 12.2688 10.2387C9.8388 10.1202 7.68331 8.98989 6.24184 7.27317C5.98982 7.69242 5.84582 8.17914 5.84582 8.69965C5.84582 9.68364 6.36179 10.5536 7.14633 11.0614C6.66636 11.0464 6.2163 10.9196 5.8211 10.7059V10.7419C5.8211 12.1174 6.82907 13.2642 8.16706 13.5252C7.92181 13.5897 7.66378 13.625 7.39678 13.625C7.20853 13.625 7.02555 13.6078 6.84703 13.574C7.21899 14.702 8.29904 15.5224 9.57929 15.545C8.57808 16.307 7.31727 16.76 5.94707 16.76C5.71079 16.76 5.4783 16.7465 5.24878 16.7203C6.54402 17.5258 8.08007 17.996 9.73228 17.996C15.1113 17.996 18.0528 13.67 18.0528 9.92L18.0446 9.55248C18.6145 9.15342 19.1103 8.65392 19.5025 8.08391Z" fill="white"/>
</g>
<defs>
<clipPath id="clip0_1378_14547">
<rect width="24" height="24" fill="white"/>
</clipPath>
</defs>
</svg>
