<svg width="44" height="73" viewBox="0 0 44 73" fill="none" xmlns="http://www.w3.org/2000/svg">
<path d="M1.48485 39.3005L1.48487 39.3006L8.81174 52.2158L8.81178 52.2158C9.20691 52.9118 10.0929 53.1567 10.791 52.7643L10.6685 52.5464L10.791 52.7643C11.4899 52.3715 11.7372 51.4881 11.342 50.7912L11.342 50.7912L5.0043 39.6199C5.81087 39.3109 6.55096 38.8354 7.17998 38.2093L12.3748 33.0379L17.5699 38.2093C20.013 40.6413 23.987 40.6411 26.43 38.2093L31.6248 33.0379L36.8199 38.2093C37.4492 38.8357 38.1898 39.3115 38.9969 39.6204L30.7105 54.2272H12.4433C11.9272 54.2272 11.4493 54.5 11.1885 54.9446L11.1885 54.9446C10.9278 55.3894 10.9239 55.9387 11.1782 56.3871L11.1782 56.3871L11.3957 56.2638C11.1782 56.3871 11.1782 56.3872 11.1783 56.3873L11.1786 56.3877L11.1796 56.3895L11.1836 56.3966L11.1995 56.4246L11.2614 56.5338L11.4967 56.9485L12.3369 58.4292C13.0325 59.655 13.9606 61.2903 14.8906 62.9286C16.6895 66.0974 18.5067 69.2974 18.648 69.5387L18.6479 69.5388C19.3272 70.747 20.6144 71.4944 22.0008 71.4944C23.3862 71.4944 24.6726 70.7476 25.3608 69.5421L25.3611 69.5415L42.5167 39.3006L42.5168 39.3005C42.6399 39.0833 42.7047 38.8379 42.7047 38.5883L42.7031 2.65859C42.7031 1.85802 42.0514 1.21094 41.25 1.21094H2.75C1.94856 1.21094 1.29688 1.85802 1.29688 2.65859V38.5883C1.29688 38.8379 1.36169 39.0833 1.48485 39.3005ZM21.1711 68.1152C21.088 67.9696 18.8895 64.0952 14.9338 57.1225H29.068L22.833 68.1135C22.6617 68.4134 22.3422 68.5991 22.0008 68.5991C21.6594 68.5991 21.3411 68.4138 21.1712 68.1154L21.1711 68.1152ZM5.12586 36.1611C4.85344 36.4323 4.54148 36.6491 4.20312 36.8097V4.10625H10.9219V30.3914L5.12586 36.1611ZM24.3759 36.1611C23.0662 37.4648 20.9339 37.4649 19.6241 36.1611L13.8281 30.3914V4.10625H30.1719V30.3914L24.3759 36.1611ZM38.874 36.1611L33.078 30.3914V4.10625H39.7969L39.7983 36.8105C39.4593 36.6499 39.1469 36.4328 38.874 36.1611Z" fill="#B40000" stroke="#B40000" stroke-width="0.5"/>
</svg>
