<svg width="77" height="77" viewBox="0 0 77 77" fill="none" xmlns="http://www.w3.org/2000/svg">
<path d="M46.5552 48.849C46.3444 48.7863 46.1227 48.7723 45.9063 48.804C45.881 48.8028 45.8556 48.8022 45.8303 48.8012C47.7825 46.8939 48.9977 44.2351 48.9977 41.2968V26.3184C48.9977 25.4879 48.3243 24.8145 47.4938 24.8145H36.3536C31.7491 24.8145 28.003 28.5605 28.003 33.165V41.2967C28.003 44.235 29.2182 46.8938 31.1704 48.801C31.1451 48.8021 31.1197 48.8027 31.0945 48.8039C30.8782 48.7723 30.6564 48.7861 30.4455 48.8488C22.6709 49.5468 16.5566 56.0977 16.5566 64.0509V71.4355C16.5566 72.266 17.2301 72.9395 18.0605 72.9395H58.9403C59.7708 72.9395 60.4442 72.266 60.4442 71.4355V64.0511C60.4439 56.098 54.3298 49.5469 46.5552 48.849ZM31.0105 35.2716V33.165C31.0105 30.219 33.4075 27.8223 36.3533 27.8223H45.9896V31.8469C45.9896 33.8805 44.3351 35.5349 42.3016 35.5349H31.0105V35.2716ZM31.0105 41.2968V38.5427H42.3016C43.6636 38.5427 44.9311 38.1329 45.9896 37.4316V41.2967C45.9896 45.4264 42.6297 48.7863 38.5 48.7863C34.3703 48.7863 31.0105 45.4265 31.0105 41.2968ZM42.4942 51.7941L38.5001 55.7882L34.5061 51.7941H42.4942ZM57.4361 69.9316H19.5642V65.6034H31.8366C32.6671 65.6034 33.3405 64.93 33.3405 64.0995C33.3405 63.269 32.6671 62.5956 31.8366 62.5956H19.6536C20.3184 57.006 24.7577 52.5606 30.3445 51.8863L37.4367 58.9785C37.7304 59.2721 38.1153 59.419 38.5001 59.419C38.885 59.419 39.2698 59.2721 39.5635 58.9785L46.6558 51.8863C52.72 52.6182 57.4361 57.7927 57.4361 64.0511V69.9316Z" fill="#B40000"/>
<path d="M39.5631 63.0363C39.2835 62.7566 38.8955 62.5957 38.5 62.5957C38.1045 62.5957 37.7165 62.7566 37.4367 63.0363C37.157 63.3161 36.9961 63.7041 36.9961 64.0996C36.9961 64.4951 37.1569 64.8831 37.4367 65.1629C37.7165 65.4424 38.1045 65.6035 38.5 65.6035C38.8955 65.6035 39.2835 65.4426 39.5631 65.1629C39.8428 64.8831 40.0039 64.4951 40.0039 64.0996C40.0039 63.7041 39.843 63.3161 39.5631 63.0363Z" fill="#B40000"/>
<path d="M38.5195 4.06055C35.3684 4.06055 32.8047 6.62426 32.8047 9.77539C32.8047 12.406 34.5919 14.6259 37.0156 15.288V18.9609C37.0156 19.7914 37.6891 20.4649 38.5195 20.4649C39.35 20.4649 40.0234 19.7914 40.0234 18.9609V15.288C42.4471 14.6259 44.2344 12.406 44.2344 9.77539C44.2344 6.62426 41.6707 4.06055 38.5195 4.06055ZM38.5195 12.4824C37.0269 12.4824 35.8125 11.268 35.8125 9.77539C35.8125 8.28276 37.0269 7.06836 38.5195 7.06836C40.0122 7.06836 41.2266 8.28276 41.2266 9.77539C41.2266 11.268 40.0122 12.4824 38.5195 12.4824Z" fill="#B40000"/>
<path d="M68.71 15.791C67.6305 14.7117 66.1955 14.1172 64.669 14.1172C63.1426 14.1172 61.7075 14.7117 60.628 15.7912C58.768 17.6514 58.4621 20.4847 59.7076 22.6667L57.1104 25.264C56.5231 25.8513 56.5231 26.8035 57.1104 27.391C57.4042 27.6844 57.7891 27.8313 58.1739 27.8313C58.5589 27.8313 58.9436 27.6844 59.2374 27.3908L61.8334 24.7948C62.6876 25.2846 63.6578 25.547 64.669 25.547C66.1955 25.547 67.6305 24.9525 68.7099 23.8732C69.7895 22.7938 70.384 21.3586 70.384 19.8322C70.384 18.3057 69.7895 16.8705 68.71 15.791ZM66.5833 21.7465C65.5279 22.8019 63.8104 22.8019 62.7551 21.7465C61.6996 20.6909 61.6996 18.9735 62.755 17.918C63.2827 17.3901 63.9759 17.1264 64.6692 17.1264C65.3625 17.1264 66.0556 17.3901 66.5833 17.918C67.0947 18.4293 67.3764 19.1091 67.3764 19.8323C67.3764 20.5554 67.0947 21.2352 66.5833 21.7465Z" fill="#B40000"/>
<path d="M71.2852 40.2793C68.6545 40.2793 66.4346 42.0665 65.7726 44.4902H62.0996C61.2692 44.4902 60.5957 45.1637 60.5957 45.9941C60.5957 46.8246 61.2692 47.498 62.0996 47.498H65.7726C66.4346 49.9217 68.6545 51.709 71.2852 51.709C74.4363 51.709 77 49.1453 77 45.9941C77 42.843 74.4363 40.2793 71.2852 40.2793ZM71.2852 48.7012C69.7925 48.7012 68.5781 47.4868 68.5781 45.9941C68.5781 44.5015 69.7925 43.2871 71.2852 43.2871C72.7778 43.2871 73.9922 44.5015 73.9922 45.9941C73.9922 47.4868 72.7778 48.7012 71.2852 48.7012Z" fill="#B40000"/>
<path d="M57.4596 44.9309C57.18 44.6512 56.792 44.4902 56.3965 44.4902C56.001 44.4902 55.6129 44.651 55.3332 44.9309C55.0535 45.2108 54.8926 45.5986 54.8926 45.9941C54.8926 46.3912 55.0533 46.7777 55.3332 47.0573C55.6129 47.3386 56.001 47.498 56.3965 47.498C56.792 47.498 57.18 47.3385 57.4596 47.0573C57.7393 46.7777 57.9004 46.3897 57.9004 45.9941C57.9004 45.5986 57.7395 45.2121 57.4596 44.9309Z" fill="#B40000"/>
<path d="M14.9004 44.4531H11.2274C10.5654 42.0294 8.34548 40.2422 5.71484 40.2422C2.56371 40.2422 0 42.8059 0 45.957C0 49.1082 2.56371 51.6719 5.71484 51.6719C8.34548 51.6719 10.5654 49.8846 11.2274 47.4609H14.9004C15.7309 47.4609 16.4043 46.7875 16.4043 45.957C16.4043 45.1266 15.731 44.4531 14.9004 44.4531ZM5.71484 48.6641C4.22222 48.6641 3.00781 47.4497 3.00781 45.957C3.00781 44.4644 4.22222 43.25 5.71484 43.25C7.20747 43.25 8.42188 44.4644 8.42188 45.957C8.42188 47.4497 7.20747 48.6641 5.71484 48.6641Z" fill="#B40000"/>
<path d="M19.7982 25.1193L17.2021 22.5234C17.6921 21.6692 17.9544 20.6989 17.9544 19.6877C17.9544 18.1612 17.3599 16.726 16.2804 15.6465C15.2009 14.5672 13.7658 13.9727 12.2394 13.9727C10.7129 13.9727 9.27788 14.5672 8.19837 15.6467C5.97033 17.8748 5.97033 21.5005 8.19837 23.7286C9.27788 24.808 10.7129 25.4025 12.2395 25.4025C13.2507 25.4025 14.2211 25.1401 15.0753 24.6502L17.6713 27.2463C17.965 27.5398 18.3499 27.6868 18.7347 27.6868C19.1196 27.6868 19.5044 27.5398 19.7982 27.2463C20.3854 26.659 20.3854 25.7067 19.7982 25.1193ZM14.1544 21.6012C14.1543 21.6015 14.154 21.6017 14.1537 21.602C13.0982 22.6577 11.3808 22.6577 10.3255 21.602C9.26991 20.5464 9.26991 18.8289 10.3253 17.7735C10.8531 17.2458 11.5462 16.9818 12.2395 16.9818C12.9328 16.9818 13.626 17.2458 14.1537 17.7735C14.665 18.2848 14.9467 18.9646 14.9467 19.6878C14.9467 20.4104 14.6652 21.09 14.1544 21.6012Z" fill="#B40000"/>
</svg>
