<svg width="40" height="41" viewBox="0 0 40 41" fill="none" xmlns="http://www.w3.org/2000/svg">
<g clip-path="url(#clip0_258_227)">
<path d="M40.1494 12.8595V30.3782C40.1494 32.4148 38.4985 34.0657 36.4619 34.0657H19.6724L12.9593 39.0424C12.5616 39.3373 11.9977 39.0534 11.9977 38.5583V34.0657H10.1641C8.12755 34.0657 6.47656 32.4148 6.47656 30.3782V12.8595C6.47656 10.8229 8.12755 9.17188 11.1831 9.17188H37.4808C38.4985 9.17188 40.1494 10.8229 40.1494 12.8595Z" fill="#B40000"/>
<g opacity="0.3">
<path d="M25.6326 11.6089H24.9947C24.6278 11.6089 24.3301 11.3112 24.3301 10.9442C24.3301 10.5773 24.6278 10.2795 24.9947 10.2795H25.6326C25.9995 10.2795 26.2972 10.5773 26.2972 10.9442C26.2972 11.3112 25.9995 11.6089 25.6326 11.6089Z" fill="white"/>
<path d="M34.5089 11.6091H28.442C28.0751 11.6091 27.7773 11.3114 27.7773 10.9444C27.7773 10.5775 28.0751 10.2798 28.442 10.2798H34.5089C34.8759 10.2798 35.1736 10.5775 35.1736 10.9444C35.1736 11.3114 34.8759 11.6091 34.5089 11.6091Z" fill="white"/>
</g>
<g opacity="0.3">
<path d="M8.29552 28.1015C7.92857 28.1015 7.63086 27.8038 7.63086 27.4368V23.3561C7.63086 22.9891 7.92857 22.6914 8.29552 22.6914C8.66247 22.6914 8.96019 22.9891 8.96019 23.3561V27.4368C8.96019 27.8038 8.66247 28.1015 8.29552 28.1015Z" fill="white"/>
<path d="M8.29552 21.4036C7.92857 21.4036 7.63086 21.1059 7.63086 20.739V20.0475C7.63086 19.6805 7.92857 19.3828 8.29552 19.3828C8.66247 19.3828 8.96019 19.6805 8.96019 20.0475V20.739C8.96019 21.1059 8.66247 21.4036 8.29552 21.4036Z" fill="white"/>
</g>
<path d="M40.1517 12.8588V30.3794C40.1517 32.4154 38.5012 34.066 36.4651 34.066H19.6746L12.9659 39.0466C12.5672 39.339 12 39.0555 12 38.5592V37.3539L17.846 33.0157C18.0436 32.8691 18.2833 32.7899 18.5294 32.7899H34.9407C36.9768 32.7899 38.6274 31.1393 38.6274 29.1032V11.5827C38.6274 10.8116 38.3881 10.0938 37.9805 9.5C39.2655 10.0761 40.1517 11.3611 40.1517 12.8588Z" fill="#B40000"/>
<path d="M10.0234 28.2829V14.9508C10.0234 13.7159 11.0245 12.7148 13.2783 12.7148H34.557C35.5628 12.7459 36.6072 13.7159 36.6072 14.9508V28.2829C36.6072 29.5178 35.6062 30.5188 34.3713 30.5188H12.2594C11.0245 30.5188 10.0234 29.5178 10.0234 28.2829Z" fill="white"/>
<path d="M36.6068 14.9528V28.2815C36.6068 29.5222 35.6053 30.5148 34.3735 30.5148H12.2569C11.2555 30.5148 10.4136 29.8679 10.1211 28.9551C10.254 28.9817 10.3958 28.9904 10.5376 28.9904H32.6453C33.8772 28.9904 34.8786 27.989 34.8786 26.7484V13.4196C34.8786 13.1892 34.8431 12.9588 34.7811 12.7461C35.818 12.941 36.6068 13.8539 36.6068 14.9528Z" fill="#E4E3FF"/>
<path d="M29.0561 20.9732C29.0561 24.1405 26.4862 26.7105 23.3094 26.7105C20.1421 26.7105 17.5723 24.1405 17.5723 20.9732C17.5723 17.7964 20.1421 15.2266 23.3094 15.2266C26.4862 15.2266 29.0561 17.7964 29.0561 20.9732Z" fill="#666666"/>
<g opacity="0.3">
<path d="M19.0655 21.1724C19.0615 21.1724 19.0565 21.1724 19.0525 21.1724C18.8555 21.1654 18.7022 21.0002 18.7092 20.8032C18.761 19.3812 19.4486 18.0846 20.593 17.2457C20.7512 17.1283 20.9751 17.1621 21.0915 17.3223C21.2079 17.4815 21.1731 17.7044 21.0149 17.8209C20.0466 18.5304 19.4665 19.627 19.4217 20.8291C19.4147 21.0211 19.2565 21.1724 19.0655 21.1724Z" fill="white"/>
</g>
<g opacity="0.3">
<path d="M22.0625 16.8828C22.0217 16.6907 22.1451 16.5017 22.3381 16.4599C22.6187 16.4002 22.9083 16.3663 23.1989 16.3594C23.389 16.3992 23.5591 16.5096 23.5641 16.7067C23.5691 16.9037 23.4138 17.0669 23.2168 17.0719C22.971 17.0788 22.7242 17.1077 22.4854 17.1584C22.2916 17.1972 22.1035 17.0754 22.0625 16.8828Z" fill="white"/>
</g>
<path d="M29.0547 20.9709C29.0547 24.1382 26.4848 26.7081 23.308 26.7081C21.383 26.7081 19.676 25.7503 18.6328 24.2899C19.6096 25.0581 20.8424 25.5228 22.1795 25.5228C25.3564 25.5228 27.9262 22.9528 27.9262 19.7855C27.9262 18.5433 27.528 17.3958 26.8641 16.457C28.2013 17.5095 29.0547 19.1406 29.0547 20.9709Z" fill="#FFB606"/>
<path d="M25.6491 21.7612L23.1334 23.5336C22.4903 23.9868 21.6035 23.5268 21.6035 22.74V19.1951C21.6035 18.4084 22.4903 17.9484 23.1334 18.4015L25.6491 20.174C26.198 20.5608 26.198 21.3745 25.6491 21.7612Z" fill="white"/>
<path d="M25.6424 21.7584L23.1393 23.5337C22.5427 23.9556 21.7278 23.5918 21.6113 22.9079C21.917 23.0681 22.2953 23.0827 22.6154 22.8498L25.133 21.0743C25.4677 20.8415 25.5987 20.4486 25.5259 20.0994L25.6424 20.1722C26.1954 20.5651 26.1954 21.38 25.6424 21.7584Z" fill="#E4E3FF"/>
<path d="M17.9589 2.83984L20.2935 8.35444C20.5913 9.05781 20.3809 9.86472 19.7831 10.3401C18.4269 11.4187 16.3623 13.4367 15.3518 14.9147C14.8989 15.577 14.087 15.9203 13.2962 15.784C11.534 15.4802 8.65374 15.5563 6.93754 15.7784C6.18024 15.8765 5.45465 15.466 5.15696 14.7628L2.82227 9.24791L17.9589 2.83984Z" fill="#474646"/>
<path d="M17.9577 2.84375L20.2898 8.35262C20.5904 9.06259 20.378 9.86246 19.7838 10.3365C18.4298 11.4184 16.3604 13.439 15.3531 14.9146C14.9003 15.5724 14.0826 15.9186 13.2952 15.7857C11.5346 15.482 8.65242 15.5576 6.93314 15.7768C6.48827 15.8275 6.04923 15.7166 5.70703 15.4589C5.91814 15.5072 6.14862 15.526 6.38206 15.5014C8.09752 15.2732 10.9835 15.2066 12.7441 15.5104C13.5278 15.6342 14.3455 15.2881 14.802 14.6392C15.8093 13.1637 17.8749 11.134 19.2328 10.0611C19.8269 9.58712 20.0393 8.78725 19.7388 8.07728L17.5892 2.99974L17.9577 2.84375Z" fill="#2D2C2C"/>
<path d="M18.7134 4.62109L18.9469 5.17273L12.4617 10.1289C12.294 10.2609 12.0914 10.3466 11.8799 10.3752L3.81166 11.5802L3.57812 11.0286L11.6464 9.82356C11.856 9.79072 12.0586 9.70495 12.2282 9.57724L18.7134 4.62109Z" fill="#2D2C2C"/>
<g opacity="0.2">
<path d="M6.89483 14.9112C6.71638 14.9868 6.51032 14.9033 6.43477 14.7248L6.1294 14.0035C6.05386 13.8251 6.13734 13.619 6.31579 13.5435C6.49423 13.4679 6.7003 13.5514 6.77584 13.7299L7.08121 14.4512C7.15676 14.6296 7.07327 14.8357 6.89483 14.9112Z" fill="white"/>
</g>
<g opacity="0.2">
<path d="M6.13935 13.124C5.96091 13.1996 5.75484 13.1161 5.6793 12.9376L5.5691 12.6773C5.49356 12.4989 5.57704 12.2928 5.75549 12.2173C5.93393 12.1418 6.14 12.2252 6.21554 12.4037L6.32574 12.664C6.40128 12.8424 6.3178 13.0485 6.13935 13.124Z" fill="white"/>
</g>
<path d="M20.8617 1.97046L21.1084 2.5532L21.1027 2.5556C21.1394 2.67349 21.1089 2.80649 20.9965 2.88746L12.231 9.58712C12.0659 9.71709 11.8621 9.80334 11.6482 9.83383L0.748078 11.4596C0.592269 11.4855 0.468416 11.3978 0.41245 11.2814C0.410067 11.2758 0.410067 11.2758 0.40767 11.2701L0.177734 10.727C0.228037 10.8458 0.351876 10.9334 0.515745 10.9108L11.4159 9.28506C11.6274 9.24887 11.8311 9.16262 11.9987 9.03836L20.7641 2.33866C20.8888 2.23917 20.912 2.08928 20.8617 1.97046Z" fill="#1B1B1B"/>
<path d="M20.7633 2.33915L11.9999 9.0355C11.8292 9.16598 11.6281 9.25107 11.4156 9.28283L0.513061 10.912C0.1911 10.9601 0.0165868 10.5478 0.27525 10.3502L9.03417 3.65725C9.20484 3.52683 9.40576 3.44176 9.61819 3.40996L20.5254 1.77732C20.8474 1.72913 21.022 2.14147 20.7633 2.33915Z" fill="#474646"/>
<path d="M1.69102 14.8389L0.243268 11.4177C0.00156914 10.8464 0.26931 10.184 0.840599 9.94148L10.5371 5.83667C10.6445 5.79191 10.7649 5.84236 10.8105 5.94734C10.8552 6.05314 10.8056 6.17602 10.6998 6.22078L1.00336 10.3256C0.643659 10.4778 0.474388 10.8953 0.627383 11.255L2.07514 14.6762C2.1199 14.782 2.07025 14.9049 1.96446 14.9496C1.86152 14.9933 1.73793 14.9473 1.69102 14.8389Z" fill="#F9B938"/>
<path d="M2.44544 18.5504L4.1133 17.8443C4.32447 17.7549 4.39568 17.491 4.2564 17.3061L2.90616 15.5451C2.95733 15.3658 2.94465 15.1679 2.86803 14.9869C2.6801 14.543 2.16486 14.3343 1.72102 14.5222C1.28143 14.7083 1.07263 15.2236 1.26056 15.6675C1.33718 15.8485 1.47049 15.9953 1.6348 16.0833L1.95935 18.2785C1.99526 18.5072 2.23428 18.6398 2.44544 18.5504Z" fill="#F9B938"/>
<path d="M2.44544 18.5523L2.78592 18.4082C2.57475 18.4976 2.33568 18.365 2.29983 18.1362L2.00941 16.1723C1.99093 16.0473 1.9339 15.9287 1.83726 15.8473C1.73651 15.7625 1.65482 15.6522 1.60103 15.5252C1.43865 15.1416 1.57332 14.7035 1.90248 14.4727C1.83915 14.4791 1.7813 14.4986 1.72102 14.5241C1.28143 14.7102 1.07263 15.2254 1.26056 15.6693C1.33718 15.8503 1.47049 15.9972 1.6348 16.0852L1.95935 18.2804C1.99526 18.5091 2.23428 18.6417 2.44544 18.5523Z" fill="#ECB021"/>
<path d="M11.7864 5.57282C11.9234 5.89643 11.4227 6.41575 10.6768 6.73155C9.92206 7.05106 9.20059 7.04914 9.06359 6.72552C8.92659 6.40191 9.42738 5.88254 10.1821 5.56303C10.9281 5.24723 11.6494 5.2492 11.7864 5.57282Z" fill="#F9B938"/>
</g>
<defs>
<clipPath id="clip0_258_227">
<rect width="40" height="40" fill="white" transform="translate(0 0.5)"/>
</clipPath>
</defs>
</svg>
