<svg width="40" height="41" viewBox="0 0 40 41" fill="none" xmlns="http://www.w3.org/2000/svg">
<g clip-path="url(#clip0_258_289)">
<path d="M19.313 0.530222C13.518 0.896081 9.03906 5.77436 9.03906 11.581C9.03906 13.2533 9.03906 24.3448 9.03906 25.7866C9.03906 26.2701 9.43094 26.6619 9.91437 26.6619H13.9805H16.7632H23.2805H30.3843C30.7269 26.6619 31.0046 26.3842 31.0046 26.0416C31.0046 21.012 31.0046 16.7121 31.0046 11.4906C31.0045 5.20007 25.6885 0.127722 19.313 0.530222Z" fill="#647892"/>
<path d="M14.5103 25.7857V18.5375V17.9713C14.5103 17.2969 14.5103 12.2498 14.5103 11.58C14.5103 6.47175 17.977 2.08254 22.7563 0.851442C15.7664 -0.94637 9.03906 4.38394 9.03906 11.58C9.03906 13.2523 9.03906 24.3439 9.03906 25.7857C9.03906 26.2691 9.43094 26.661 9.91437 26.661H13.9805H15.3856C14.9022 26.661 14.5103 26.2691 14.5103 25.7857Z" fill="#4D6682"/>
<path d="M34.073 38.4691C33.6091 36.1395 33.0591 33.3773 32.9265 32.711C32.5818 30.9845 31.3133 30.2824 30.6144 30.0217C30.6059 30.0192 30.1359 29.8805 30.1443 29.883C30.1305 29.8796 27.8929 29.3252 25.9572 28.8465L22.0165 33.475C20.8712 34.8202 19.1628 34.8174 18.02 33.4684L14.0937 28.834C13.5363 28.9728 12.2002 29.3021 9.8564 29.883C9.99413 29.8423 7.56866 30.235 7.07429 32.711C6.94163 33.3772 6.39163 36.1395 5.92781 38.4691C5.72523 39.4884 6.47249 40.4398 7.49335 40.4977C7.49687 40.4995 7.49882 40.5005 7.49882 40.5005H7.5982C8.70148 40.5005 31.4468 40.5005 32.5019 40.5005C32.5019 40.5005 32.5038 40.4995 32.5073 40.4977C33.5287 40.4398 34.2755 39.488 34.073 38.4691Z" fill="#B40000"/>
<path d="M16.7638 25.3165H16.7608C16.7654 25.3187 16.7359 25.3238 16.7244 25.3257C16.7408 25.3258 16.7536 25.3259 16.7639 25.3259L16.7638 25.3165Z" fill="#B40000"/>
<path d="M8.1002 38.4681C8.1002 38.4681 9.11402 32.7327 9.24668 32.0664C9.52879 30.6532 10.4297 29.9267 11.1307 29.5664C10.5332 29.7144 10.0669 29.8299 9.85637 29.8821C9.9941 29.8414 7.56863 30.2341 7.07426 32.7101C6.9416 33.3763 6.3916 36.1385 5.92777 38.4681C5.72488 39.4913 6.4759 40.4391 7.49332 40.4967C7.49684 40.4986 7.49879 40.4996 7.49879 40.4996H7.59817H9.67121C9.67121 40.4996 9.66926 40.4986 9.66574 40.4967C8.64824 40.4391 7.89731 39.4911 8.1002 38.4681Z" fill="#B40000"/>
<path d="M23.713 28.2924C23.4117 28.218 23.2001 27.9477 23.2001 27.6373C23.2001 27.6373 23.2001 26.2626 23.2001 25.3164H22.6145C20.9604 25.9228 19.0974 25.9588 17.3493 25.3164H16.7632V27.6904C16.7632 27.9698 16.5731 28.2133 16.3021 28.281L13.9805 28.862L18.0193 33.6293C19.1621 34.9783 20.8705 34.9811 22.0158 33.6359L26.0692 28.8749L23.713 28.2924Z" fill="#EDB87E"/>
<path d="M21.5416 34.0927L19.9831 32.343C19.3084 31.5856 18.9356 30.6067 18.9356 29.5923V25.7117C18.4023 25.638 17.8707 25.508 17.3493 25.3164H16.7632V27.6904C16.7632 27.9698 16.5731 28.2132 16.3021 28.281L13.9805 28.862L18.0193 33.6293C19.0132 34.8025 20.4347 34.957 21.5416 34.0927Z" fill="#E4A970"/>
<path d="M12.2987 37.121C12.2987 36.7877 12.0285 36.5176 11.6952 36.5176C11.362 36.5176 11.0918 36.7877 11.0918 37.121V40.5003H12.2987V37.121Z" fill="#B40000"/>
<path d="M28.8729 40.5003V37.121C28.8729 36.7877 28.6027 36.5176 28.2695 36.5176C27.9362 36.5176 27.666 36.7877 27.666 37.121V40.5003H28.8729Z" fill="#B40000"/>
<path d="M18.0196 33.6302C19.1624 34.9791 20.8709 34.982 22.0161 33.6367L24.118 31.168H15.9336L18.0196 33.6302Z" fill="#FAC149"/>
<path d="M18.0196 33.6302C18.4902 34.1854 19.1297 34.5867 19.863 34.6377C20.4812 34.6806 21.0627 34.4676 21.542 34.0934C20.2371 32.5538 19.6724 32.1965 19.2487 31.168H15.9336C16.6662 32.0327 17.2894 32.7683 18.0196 33.6302Z" fill="#F8A748"/>
<path d="M13.4262 15.7801C12.8356 15.7444 12.3379 16.2161 12.3379 16.8077V18.2498C12.3379 22.6531 15.9875 26.2398 20.386 26.0345C24.4605 25.8445 27.7057 22.4812 27.7057 18.3591V13.4452C27.7057 12.9418 27.3319 12.5186 26.8328 12.4531C26.1755 12.3669 25.2947 12.0172 24.7337 10.8616C24.5869 10.5592 24.1709 10.5202 23.9719 10.791C22.7938 12.3949 19.3834 16.1401 13.4262 15.7801Z" fill="#F4C48B"/>
<path d="M14.5102 18.3582V15.8002C14.1587 15.8082 13.7973 15.8017 13.4262 15.7792C12.8356 15.7435 12.3379 16.2153 12.3379 16.8069V18.2489C12.3379 22.6523 15.9875 26.2389 20.386 26.0337C20.6298 26.0223 20.8706 25.9992 21.108 25.9657C17.3787 25.438 14.5102 22.2337 14.5102 18.3582Z" fill="#EDB87E"/>
<path d="M20.0004 24.0456H15.6814C13.0129 24.0456 10.6719 22.2863 10.6719 19.5627V18.3261C10.6719 17.9928 10.942 17.7227 11.2753 17.7227C11.6086 17.7227 11.8787 17.9928 11.8787 18.3261V19.5627C11.8787 21.5832 13.6518 22.8388 15.6814 22.8388H20.0004C20.3337 22.8388 20.6038 23.1089 20.6038 23.4422C20.6038 23.7755 20.3337 24.0456 20.0004 24.0456Z" fill="#FFB606"/>
<path d="M28.8329 13.827C28.4996 13.827 28.2294 13.5569 28.2294 13.2236V11.5828C28.2294 6.99373 24.503 3.23334 19.9157 3.31365C15.5122 3.39162 11.8961 6.99029 11.8961 11.479V13.2236C11.8961 13.5569 11.6259 13.827 11.2926 13.827C10.9594 13.827 10.6892 13.5569 10.6892 13.2236V11.479C10.6892 6.40966 14.7548 2.19794 19.8944 2.10685C25.1598 2.01701 29.4364 6.31818 29.4364 11.5827V13.2235C29.4363 13.5569 29.1662 13.827 28.8329 13.827Z" fill="#FFB606"/>
<path d="M29.873 13.6465V18.7962C32.179 17.8552 32.1841 14.5895 29.873 13.6465Z" fill="#FAC149"/>
<path d="M29.873 15.9595V18.7957C31.4629 18.147 32.0793 16.2483 31.217 14.8027C30.9086 15.3198 30.4373 15.7292 29.873 15.9595Z" fill="#F8A748"/>
<path d="M10.1792 13.6465V18.7962C7.86476 17.8552 7.85952 14.5895 10.1792 13.6465Z" fill="#FAC149"/>
<path d="M8.89016 14.709C7.93829 16.1616 8.54407 18.1325 10.1786 18.797V15.7744C9.64704 15.5575 9.19884 15.1823 8.89016 14.709Z" fill="#F8A748"/>
<path d="M19.2746 24.4888H20.7287C21.3155 24.4888 21.8221 24.038 21.8479 23.4517C21.8753 22.8295 21.379 22.3164 20.7628 22.3164H19.2405C18.6244 22.3164 18.128 22.8295 18.1554 23.4517C18.1812 24.038 18.6878 24.4888 19.2746 24.4888Z" fill="#3F3E3E"/>
<path d="M20.0028 23.4517C19.9778 22.8854 20.3872 22.4109 20.9254 22.3299C20.8722 22.322 20.8183 22.3164 20.7628 22.3164H19.2405C18.6244 22.3164 18.128 22.8295 18.1554 23.4517C18.1812 24.038 18.6878 24.4888 19.2746 24.4888H20.7287C20.7956 24.4888 20.8612 24.4823 20.9253 24.471C20.4262 24.3836 20.0257 23.9712 20.0028 23.4517Z" fill="#666666"/>
<path d="M10.1699 18.7965V13.6476C10.1699 13.0609 10.6208 12.5543 11.207 12.5284C11.8293 12.501 12.3423 12.9973 12.3423 13.6136V18.8305C12.3423 19.4467 11.8293 19.9431 11.207 19.9157C10.6208 19.8898 10.1699 19.3833 10.1699 18.7965Z" fill="#F8A748"/>
<path d="M11.207 16.7364C10.6208 16.7106 10.1699 16.204 10.1699 15.6172V18.7953C10.1699 19.3821 10.6208 19.8887 11.207 19.9145C11.8293 19.942 12.3423 19.4456 12.3423 18.8294V15.6512C12.3423 16.2675 11.8293 16.7638 11.207 16.7364Z" fill="#F38D1A"/>
<path d="M27.7051 18.7965V13.6476C27.7051 13.0609 28.1563 12.5543 28.743 12.5284C29.3658 12.501 29.8793 12.9973 29.8793 13.6136V18.8305C29.8793 19.4467 29.3659 19.943 28.743 19.9157C28.1563 19.8898 27.7051 19.3833 27.7051 18.7965Z" fill="#F8A748"/>
<path d="M28.743 16.7364C28.1563 16.7106 27.7051 16.2041 27.7051 15.6172V18.7953C27.7051 19.3821 28.1563 19.8887 28.743 19.9145C29.3658 19.942 29.8793 19.4456 29.8793 18.8294V15.6512C29.8793 16.2675 29.3658 16.7638 28.743 16.7364Z" fill="#F38D1A"/>
</g>
<defs>
<clipPath id="clip0_258_289">
<rect width="40" height="40" fill="white" transform="translate(0 0.5)"/>
</clipPath>
</defs>
</svg>
