<svg width="40" height="41" viewBox="0 0 40 41" fill="none" xmlns="http://www.w3.org/2000/svg">
<g clip-path="url(#clip0_258_207)">
<path d="M11.0337 32.2252L3.86126 37.6045C3.65228 37.7613 3.37269 37.7865 3.13904 37.6696C2.9054 37.5528 2.75781 37.314 2.75781 37.0528V30.1562L11.0337 32.2252Z" fill="#F29C1F"/>
<path d="M11.0344 12.2033L0.437145 8.25915C0.171979 8.16894 -0.00462761 7.91787 9.23514e-05 7.63782C0.00481231 7.35777 0.189779 7.11279 0.457835 7.03157L19.5378 0.577084C19.8373 0.474305 20.1625 0.474305 20.462 0.577084L39.542 7.04536C39.81 7.12658 39.995 7.37156 39.9997 7.65161C40.0044 7.93166 39.8278 8.18274 39.5627 8.27295L28.9654 12.2033H11.0344Z" fill="#393F4A"/>
<path d="M28.9662 19.8103V10.1551C28.9662 8.63097 24.9524 7.39648 20.0007 7.39648C15.0489 7.39648 11.0352 8.63097 11.0352 10.1551V17.0517L28.9662 19.8103Z" fill="#464F5D"/>
<path d="M37.2407 32.9141V39.8106C37.2407 40.0718 37.0931 40.3106 36.8595 40.4275C36.6258 40.5443 36.3462 40.5191 36.1373 40.3623L28.9648 34.983L37.2407 32.9141Z" fill="#B40000"/>
<path d="M39.9995 18.4301V33.6025C39.9972 34.3633 39.381 34.9795 38.6202 34.9818H19.9995C19.2387 34.9795 18.6225 34.3633 18.6202 33.6025C18.6202 31.6535 18.2167 34.4432 21.3788 17.0508H38.6202C39.381 17.0531 39.9972 17.6693 39.9995 18.4301Z" fill="#B40000"/>
<path d="M20 14.293H1.37931C0.617538 14.293 0 14.9105 0 15.6723V30.8447C0 31.6065 0.617538 32.224 1.37931 32.224H20C20.7618 32.224 21.3793 31.6065 21.3793 30.8447V15.6723C21.3793 14.9105 20.7618 14.293 20 14.293Z" fill="#F29C1F"/>
<path d="M29.6565 32.2263C29.2756 32.2263 28.9668 31.9175 28.9668 31.5366V20.5022C28.9668 20.1213 29.2756 19.8125 29.6565 19.8125C30.0373 19.8125 30.3461 20.1213 30.3461 20.5022V31.5366C30.3461 31.9175 30.0373 32.2263 29.6565 32.2263Z" fill="white"/>
<path d="M34.4829 32.2247C34.102 32.2247 33.7932 31.9159 33.7932 31.535C33.8794 30.491 33.6337 29.4464 33.0912 28.5502C32.9125 31.7343 30.8857 32.2247 29.6553 32.2247C27.8486 32.3128 26.3091 30.9272 26.207 29.1212C26.3091 27.3153 27.8486 25.9297 29.6553 26.0178C31.9539 26.0178 31.7243 26.4398 31.7243 26.0178C31.7243 25.6369 32.033 25.3281 32.4139 25.3281C32.7948 25.3281 33.1036 25.6369 33.1036 26.0178V26.7323C34.3236 27.4502 35.1725 28.8523 35.1725 31.535C35.1725 31.7179 35.0999 31.8933 34.9706 32.0227C34.8412 32.152 34.6658 32.2247 34.4829 32.2247ZM29.6553 27.3971C28.6111 27.3122 27.6911 28.0788 27.5863 29.1212C27.6911 30.1636 28.6111 30.9303 29.6553 30.8454C31.4857 30.8454 31.7243 29.435 31.7243 27.6309C31.0495 27.4538 30.3526 27.375 29.6553 27.3971Z" fill="white"/>
<path d="M32.4139 22.5707H26.8967C26.5158 22.5707 26.207 22.2619 26.207 21.8811C26.207 21.5002 26.5158 21.1914 26.8967 21.1914H32.4139C32.7948 21.1914 33.1036 21.5002 33.1036 21.8811C33.1036 22.2619 32.7948 22.5707 32.4139 22.5707Z" fill="white"/>
<path d="M16.5526 28.7772C16.2968 28.7775 16.0619 28.6363 15.9422 28.4103L11.0243 19.1303L6.12774 28.4103C5.94948 28.747 5.53203 28.8754 5.19532 28.6972C4.85862 28.5189 4.73017 28.1015 4.90843 27.7648L9.82705 18.4841C10.059 18.0311 10.525 17.7461 11.0339 17.7461C11.5429 17.7461 12.0089 18.0311 12.2408 18.4841L17.1595 27.7648C17.2725 27.9781 17.2656 28.235 17.1415 28.4421C17.0174 28.6492 16.794 28.7763 16.5526 28.7772Z" fill="white"/>
<path d="M14.3594 24.6391H7.71114C7.33025 24.6391 7.02148 24.3303 7.02148 23.9494C7.02148 23.5685 7.33025 23.2598 7.71114 23.2598H14.3594C14.7403 23.2598 15.0491 23.5685 15.0491 23.9494C15.0491 24.3303 14.7403 24.6391 14.3594 24.6391Z" fill="white"/>
<path d="M39.3107 14.2929C38.9299 14.2929 38.6211 13.9841 38.6211 13.6032V7.65841C38.6211 7.27752 38.9299 6.96875 39.3107 6.96875C39.6916 6.96875 40.0004 7.27752 40.0004 7.65841V13.6032C40.0004 13.9841 39.6916 14.2929 39.3107 14.2929Z" fill="#F3D55B"/>
</g>
<defs>
<clipPath id="clip0_258_207">
<rect width="40" height="40" fill="white" transform="translate(0 0.5)"/>
</clipPath>
</defs>
</svg>
