<svg width="24" height="24" viewBox="0 0 24 24" fill="none" xmlns="http://www.w3.org/2000/svg">
<path d="M4.5 3.75L19.5 20.25" stroke="#838383" stroke-width="2" stroke-linecap="round" stroke-linejoin="round"/>
<path d="M14.5215 14.7749C13.8333 15.4053 12.9329 15.7534 11.9996 15.7499C11.2427 15.7498 10.5036 15.5207 9.87935 15.0926C9.25512 14.6646 8.77502 14.0577 8.50216 13.3517C8.2293 12.6458 8.17646 11.8737 8.35058 11.1372C8.5247 10.4006 8.91764 9.73393 9.47773 9.22485" stroke="#838383" stroke-width="2" stroke-linecap="round" stroke-linejoin="round"/>
<path d="M6.9375 6.4314C3.1125 8.36265 1.5 12.0001 1.5 12.0001C1.5 12.0001 4.5 18.7501 12 18.7501C13.7574 18.7645 15.4929 18.3595 17.0625 17.5689" stroke="#838383" stroke-width="2" stroke-linecap="round" stroke-linejoin="round"/>
<path d="M19.5594 15.8531C21.6031 14.025 22.5031 12 22.5031 12C22.5031 12 19.5031 5.25002 12.0031 5.25002C11.3529 5.24874 10.7038 5.30205 10.0625 5.4094" stroke="#838383" stroke-width="2" stroke-linecap="round" stroke-linejoin="round"/>
<path d="M12.7031 8.31543C13.5006 8.46653 14.2273 8.87293 14.7735 9.47329C15.3198 10.0736 15.6559 10.8354 15.7313 11.6436" stroke="#838383" stroke-width="2" stroke-linecap="round" stroke-linejoin="round"/>
</svg>
