<svg width="500" height="311" viewBox="0 0 500 311" fill="none" xmlns="http://www.w3.org/2000/svg">
<path d="M500 264.86H0V265.11H500V264.86Z" fill="#EBEBEB"/>
<path d="M449.901 280.95H416.781V281.2H449.901V280.95Z" fill="#EBEBEB"/>
<path d="M331.221 283.67H322.531V283.92H331.221V283.67Z" fill="#EBEBEB"/>
<path d="M415.78 271.67H396.59V271.92H415.78V271.67Z" fill="#EBEBEB"/>
<path d="M95.6509 273.35H52.4609V273.6H95.6509V273.35Z" fill="#EBEBEB"/>
<path d="M110.889 273.35H104.559V273.6H110.889V273.35Z" fill="#EBEBEB"/>
<path d="M225.149 277.57H131.469V277.82H225.149V277.57Z" fill="#EBEBEB"/>
<path d="M347.561 68.0696C347.718 67.454 347.812 66.8241 347.841 66.1896C348.071 62.2896 351.841 62.9096 354.961 62.3796C357.431 61.9696 350.881 55.7296 355.871 53.7096C356.841 53.4473 357.689 52.8571 358.271 52.0396C358.523 51.4274 358.552 50.7466 358.355 50.1149C358.158 49.4832 357.746 48.9401 357.191 48.5796C356.054 47.8804 354.736 47.5325 353.401 47.5796C352.591 46.5796 353.251 45.1096 354.041 44.0996C354.831 43.0896 355.791 41.9396 355.491 40.6996C355.041 38.8196 352.411 38.7496 350.491 39.1196C349.791 37.9796 349.801 36.5596 349.491 35.2696C349.181 33.9796 348.121 32.6296 346.801 32.7896C345.481 32.9496 344.801 34.3496 343.571 34.6396C342.151 34.9796 340.921 33.7196 339.801 32.7796C338.681 31.8396 336.741 31.2496 335.971 32.4896C335.511 33.2296 335.791 34.2696 335.311 34.9996C334.481 36.2696 332.521 35.4796 331.311 34.5796C330.101 33.6796 328.151 32.8696 327.311 34.1196C327.097 34.5299 326.939 34.9672 326.841 35.4196C326.261 37.0796 324.461 37.9096 323.061 38.9796C321.661 40.0496 320.551 42.1696 321.741 43.4696C322.321 44.1096 323.351 44.3696 323.641 45.1896C324.011 46.1896 322.961 47.1296 322.131 47.8296C320.761 48.9996 320.511 52.5096 322.331 53.4696C323.091 53.8696 324.211 53.9896 324.401 54.8296C324.591 55.6696 323.801 56.1696 323.291 56.7596C322.972 57.1724 322.746 57.6493 322.629 58.1576C322.511 58.6659 322.505 59.1936 322.611 59.7046C322.716 60.2155 322.931 60.6977 323.24 61.1179C323.549 61.5382 323.945 61.8867 324.401 62.1396C324.841 62.3496 325.401 62.5196 325.541 62.9796C325.605 63.3164 325.566 63.6645 325.431 63.9796C325.26 64.6144 325.202 65.2746 325.261 65.9296C325.262 66.1558 325.348 66.3736 325.501 66.5396C325.669 66.6536 325.869 66.7098 326.071 66.6996C328.701 66.8196 329.971 65.8896 331.571 68.1696C331.714 68.4004 331.901 68.6009 332.121 68.7596C332.35 68.8695 332.598 68.9307 332.851 68.9396C334.651 69.0896 335.851 67.9396 337.481 67.7496C339.781 67.4596 340.261 68.6396 342.281 69.5896C345.421 71.1496 347.001 70.2296 347.561 68.0696Z" fill="#EBEBEB"/>
<path d="M106.881 122.78C106.76 122.309 106.686 121.826 106.661 121.34C106.491 118.34 103.661 118.83 101.211 118.42C99.3115 118.11 104.331 113.32 100.511 111.77C99.7642 111.556 99.1119 111.094 98.6615 110.46C98.4692 109.99 98.4479 109.467 98.6014 108.983C98.7549 108.499 99.0734 108.084 99.5015 107.81C100.373 107.282 101.384 107.028 102.401 107.08C103.021 106.32 102.512 105.18 101.912 104.4C101.312 103.62 100.571 102.75 100.801 101.79C101.141 100.35 103.161 100.3 104.611 100.58C105.024 99.6254 105.29 98.6141 105.401 97.5801C105.661 96.5801 106.401 95.5802 107.461 95.6802C108.521 95.7802 109.011 96.8801 109.951 97.1001C111.041 97.3501 111.951 96.3902 112.831 95.6702C113.711 94.9502 115.181 94.4901 115.771 95.4401C116.131 96.0101 115.911 96.8102 116.281 97.3702C116.921 98.3702 118.421 97.7401 119.361 97.0501C120.301 96.3601 121.781 95.7301 122.441 96.6901C122.605 97.006 122.727 97.3423 122.802 97.6901C123.242 98.9701 124.621 99.6002 125.701 100.42C126.781 101.24 127.631 102.87 126.701 103.87C126.251 104.36 125.462 104.56 125.232 105.19C124.962 105.97 125.761 106.68 126.391 107.19C127.451 108.09 127.641 110.77 126.241 111.51C125.661 111.82 124.801 111.91 124.651 112.56C124.501 113.21 125.111 113.56 125.501 114.03C125.748 114.347 125.923 114.714 126.014 115.105C126.106 115.496 126.111 115.903 126.03 116.296C125.949 116.689 125.784 117.061 125.546 117.384C125.308 117.708 125.003 117.976 124.651 118.17C124.321 118.33 123.911 118.46 123.781 118.81C123.729 119.072 123.756 119.344 123.861 119.59C123.998 120.078 124.046 120.586 124.001 121.09C123.996 121.264 123.929 121.431 123.811 121.56C123.682 121.647 123.527 121.69 123.372 121.68C121.372 121.77 120.371 121.06 119.151 122.81C119.061 122.996 118.918 123.151 118.74 123.256C118.563 123.361 118.358 123.411 118.151 123.4C116.771 123.51 115.861 122.64 114.591 122.48C112.841 122.26 112.461 123.17 110.921 123.89C108.521 125.15 107.341 124.46 106.881 122.78Z" fill="#EBEBEB"/>
<path d="M109.119 107.99C108.994 107.519 108.92 107.037 108.899 106.55C108.719 103.55 105.899 104.04 103.439 103.63C101.549 103.31 106.569 98.5301 102.749 96.9801C102.003 96.7761 101.349 96.3204 100.899 95.6901C100.708 95.2207 100.686 94.6995 100.838 94.2158C100.989 93.7322 101.305 93.3164 101.729 93.0401C102.608 92.5191 103.62 92.2686 104.639 92.3201C105.259 91.5601 104.749 90.4201 104.149 89.6401C103.549 88.8601 102.809 87.9901 103.039 87.0301C103.379 85.5901 105.399 85.5401 106.849 85.8201C107.262 84.8653 107.528 83.854 107.639 82.8201C107.899 81.8201 108.639 80.8201 109.699 80.9201C110.759 81.0201 111.239 82.1101 112.179 82.3401C113.119 82.5701 114.179 81.6301 115.069 80.9001C115.959 80.1701 117.419 79.7301 118.009 80.6801C118.359 81.2501 118.149 82.0501 118.519 82.6101C119.149 83.6101 120.659 82.9801 121.599 82.2901C122.539 81.6001 124.019 80.9701 124.679 81.9301C124.842 82.2464 124.963 82.5825 125.039 82.9301C125.479 84.2101 126.859 84.8401 127.939 85.6601C129.019 86.4801 129.859 88.1101 128.939 89.1101C128.499 89.6001 127.709 89.8001 127.479 90.4301C127.249 91.0601 128.009 91.9201 128.639 92.4301C129.699 93.3201 129.889 96.0101 128.489 96.7501C127.909 97.0601 127.049 97.1501 126.899 97.7501C126.749 98.3501 127.359 98.7501 127.749 99.2201C127.996 99.5363 128.171 99.9022 128.262 100.293C128.353 100.683 128.359 101.089 128.278 101.481C128.197 101.874 128.032 102.244 127.794 102.567C127.556 102.89 127.251 103.157 126.899 103.35C126.569 103.52 126.149 103.65 126.029 104C125.977 104.262 126.004 104.534 126.109 104.78C126.248 105.264 126.292 105.77 126.239 106.27C126.243 106.357 126.229 106.443 126.198 106.524C126.167 106.604 126.12 106.678 126.059 106.74C125.933 106.834 125.777 106.88 125.619 106.87C123.619 106.96 122.619 106.24 121.399 108C121.292 108.177 121.149 108.331 120.979 108.45C120.804 108.533 120.613 108.577 120.419 108.58C119.039 108.7 118.129 107.83 116.859 107.67C115.099 107.45 114.729 108.35 113.179 109.08C110.759 110.36 109.579 109.65 109.119 107.99Z" fill="#EBEBEB"/>
<path d="M124.419 115.36C124.293 114.889 124.219 114.406 124.199 113.92C124.019 110.92 121.199 111.4 118.739 111C116.849 110.68 121.869 105.89 118.049 104.35C117.302 104.146 116.648 103.69 116.199 103.06C116.017 102.6 115.998 102.092 116.143 101.62C116.289 101.147 116.59 100.738 116.999 100.46C117.876 99.9358 118.888 99.682 119.909 99.7298C120.529 98.9798 120.019 97.8298 119.419 97.0598C118.819 96.2898 118.079 95.4098 118.309 94.4498C118.649 93.0098 120.669 92.9598 122.119 93.2398C122.526 92.3008 122.792 91.3067 122.909 90.2898C123.169 89.2898 123.909 88.2898 124.969 88.3798C126.029 88.4698 126.509 89.5798 127.449 89.7998C128.389 90.0198 129.449 89.0998 130.339 88.3698C131.229 87.6398 132.689 87.1998 133.279 88.1498C133.629 88.7198 133.419 89.5198 133.789 90.0798C134.419 91.0798 135.929 90.4498 136.869 89.7598C137.809 89.0698 139.289 88.4398 139.949 89.3998C140.111 89.7161 140.232 90.0523 140.309 90.3998C140.749 91.6698 142.129 92.3098 143.209 93.1298C144.289 93.9498 145.129 95.5798 144.209 96.5698C143.759 97.0698 142.979 97.2698 142.749 97.8998C142.469 98.6798 143.279 99.3798 143.909 99.8998C144.969 100.8 145.159 103.49 143.759 104.23C143.179 104.53 142.319 104.63 142.169 105.23C142.019 105.83 142.629 106.23 143.019 106.7C143.265 107.016 143.44 107.382 143.531 107.772C143.622 108.163 143.628 108.568 143.547 108.961C143.466 109.354 143.301 109.724 143.063 110.047C142.825 110.369 142.52 110.637 142.169 110.83C141.839 110.99 141.419 111.12 141.299 111.47C141.245 111.735 141.273 112.01 141.379 112.26C141.517 112.744 141.561 113.249 141.509 113.75C141.513 113.924 141.448 114.093 141.329 114.22C141.199 114.309 141.045 114.354 140.889 114.35C138.889 114.44 137.889 113.72 136.669 115.48C136.564 115.656 136.42 115.807 136.249 115.92C136.076 116.011 135.884 116.059 135.689 116.06C134.309 116.18 133.399 115.31 132.129 115.15C130.369 114.93 129.999 115.83 128.449 116.56C126.059 117.72 124.879 117.02 124.419 115.36Z" fill="#EBEBEB"/>
<path d="M139.882 111.96C139.767 111.487 139.693 111.006 139.662 110.52C139.492 107.52 136.662 108 134.212 107.6C132.312 107.28 137.331 102.49 133.511 100.94C132.767 100.737 132.114 100.286 131.662 99.6602C131.469 99.19 131.448 98.6672 131.601 98.183C131.755 97.6988 132.073 97.2837 132.502 97.0102C133.373 96.482 134.384 96.2277 135.401 96.2802C136.021 95.5202 135.522 94.3802 134.912 93.6102C134.302 92.8402 133.572 91.9502 133.802 91.0002C134.142 89.5602 136.162 89.5102 137.612 89.7902C138.022 88.835 138.289 87.8239 138.401 86.7902C138.661 85.7902 139.402 84.7902 140.472 84.8802C141.542 84.9702 142.011 86.0802 142.951 86.3002C144.041 86.5602 144.951 85.5902 145.841 84.8702C146.731 84.1502 148.192 83.6902 148.772 84.6502C149.132 85.2202 148.921 86.0102 149.281 86.5702C149.921 87.5702 151.422 86.9402 152.362 86.2502C153.302 85.5602 154.782 84.9402 155.442 85.9002C155.609 86.2146 155.73 86.5513 155.802 86.9002C156.252 88.1702 157.631 88.8102 158.701 89.6302C159.771 90.4502 160.631 92.0702 159.701 93.0702C159.251 93.5602 158.462 93.7602 158.242 94.3902C157.962 95.1802 158.762 95.8802 159.392 96.3902C160.451 97.2902 160.642 99.9802 159.252 100.71C158.662 101.02 157.802 101.12 157.662 101.71C157.522 102.3 158.112 102.71 158.502 103.19C158.748 103.506 158.923 103.872 159.014 104.263C159.105 104.653 159.111 105.059 159.03 105.451C158.949 105.844 158.784 106.215 158.546 106.537C158.308 106.86 158.003 107.127 157.651 107.32C157.321 107.48 156.911 107.61 156.781 107.96C156.729 108.222 156.756 108.494 156.862 108.74C156.998 109.228 157.045 109.736 157.002 110.24C157.002 110.416 156.934 110.584 156.811 110.71C156.684 110.802 156.528 110.845 156.371 110.83C154.371 110.92 153.371 110.21 152.151 111.96C152.047 112.139 151.903 112.293 151.731 112.41C151.557 112.498 151.366 112.545 151.171 112.55C149.792 112.66 148.881 111.8 147.621 111.64C145.861 111.41 145.492 112.32 143.942 113.05C141.522 114.32 140.342 113.62 139.882 111.96Z" fill="#EBEBEB"/>
<path d="M140.079 128.46C139.988 128.086 139.931 127.704 139.909 127.32C139.769 124.97 137.529 125.32 135.619 125.02C134.119 124.77 138.079 121.02 135.069 119.79C134.483 119.633 133.968 119.28 133.609 118.79C133.46 118.421 133.444 118.011 133.564 117.631C133.685 117.251 133.934 116.925 134.269 116.71C134.956 116.297 135.749 116.096 136.549 116.13C137.049 115.54 136.649 114.64 136.169 114.03C135.689 113.42 135.109 112.73 135.289 111.97C135.569 110.84 137.149 110.8 138.289 111.02C138.604 110.28 138.813 109.498 138.909 108.7C139.109 107.92 139.729 107.1 140.529 107.2C141.329 107.3 141.749 108.14 142.529 108.31C143.309 108.48 144.129 107.76 144.799 107.19C145.469 106.62 146.649 106.26 147.119 107.01C147.389 107.46 147.229 108.09 147.519 108.53C148.019 109.3 149.199 108.82 149.939 108.28C150.679 107.74 151.849 107.28 152.359 108C152.492 108.245 152.589 108.508 152.649 108.78C152.999 109.78 154.079 110.29 154.929 110.93C155.779 111.57 156.449 112.86 155.729 113.65C155.379 114.03 154.729 114.19 154.579 114.65C154.429 115.11 154.989 115.82 155.489 116.24C156.319 116.95 156.489 119.07 155.379 119.65C154.909 119.89 154.239 119.96 154.119 120.47C153.999 120.98 154.479 121.28 154.789 121.63C154.983 121.88 155.121 122.168 155.193 122.476C155.264 122.784 155.269 123.104 155.205 123.414C155.141 123.724 155.011 124.016 154.824 124.271C154.637 124.526 154.396 124.737 154.119 124.89C153.859 125.01 153.529 125.12 153.439 125.39C153.393 125.598 153.414 125.815 153.499 126.01C153.606 126.393 153.643 126.793 153.609 127.19C153.607 127.327 153.553 127.459 153.459 127.56C153.358 127.632 153.233 127.664 153.109 127.65C151.529 127.73 150.759 127.16 149.789 128.55C149.707 128.689 149.594 128.809 149.459 128.9C149.32 128.962 149.171 128.999 149.019 129.01C147.929 129.1 147.219 128.41 146.219 128.29C144.829 128.11 144.539 128.82 143.319 129.4C141.369 130.36 140.439 129.8 140.079 128.46Z" fill="#EBEBEB"/>
<path d="M148.751 122.78C148.625 122.31 148.551 121.827 148.531 121.34C148.351 118.34 145.531 118.83 143.071 118.42C141.181 118.11 146.201 113.32 142.381 111.77C141.636 111.567 140.984 111.115 140.531 110.49C140.338 110.021 140.315 109.499 140.466 109.015C140.618 108.531 140.934 108.115 141.361 107.84C142.236 107.312 143.25 107.058 144.271 107.11C144.891 106.35 144.381 105.21 143.781 104.43C143.181 103.65 142.441 102.78 142.661 101.82C143.011 100.38 145.021 100.33 146.481 100.61C146.893 99.6557 147.159 98.6444 147.271 97.6104C147.531 96.6104 148.271 95.6104 149.331 95.7104C150.391 95.8104 150.871 96.9104 151.811 97.1304C152.901 97.3804 153.811 96.4204 154.701 95.7004C155.591 94.9804 157.051 94.5204 157.641 95.4704C157.991 96.0404 157.781 96.8404 158.151 97.4004C158.781 98.4004 160.291 97.7704 161.221 97.0804C162.151 96.3904 163.651 95.7604 164.311 96.7204C164.471 97.0381 164.591 97.3738 164.671 97.7204C165.111 99.0004 166.491 99.6304 167.571 100.45C168.651 101.27 169.491 102.9 168.571 103.9C168.121 104.39 167.331 104.59 167.111 105.22C166.831 106 167.641 106.71 168.271 107.22C169.331 108.12 169.521 110.8 168.121 111.54C167.531 111.85 166.671 111.94 166.531 112.59C166.391 113.24 166.991 113.59 167.381 114.06C167.627 114.377 167.802 114.744 167.894 115.135C167.985 115.527 167.99 115.933 167.91 116.326C167.829 116.72 167.664 117.091 167.426 117.415C167.188 117.738 166.882 118.006 166.531 118.2C166.191 118.36 165.781 118.49 165.661 118.84C165.608 119.103 165.636 119.375 165.741 119.62C165.874 120.108 165.918 120.617 165.871 121.12C165.874 121.295 165.81 121.463 165.691 121.59C165.56 121.675 165.406 121.717 165.251 121.71C163.251 121.8 162.251 121.09 161.031 122.84C160.923 123.018 160.78 123.171 160.611 123.29C160.435 123.372 160.245 123.419 160.051 123.43C158.661 123.54 157.761 122.67 156.491 122.51C154.731 122.29 154.361 123.2 152.811 123.92C150.391 125.15 149.211 124.46 148.751 122.78Z" fill="#EBEBEB"/>
<path d="M124.42 97.17C124.295 96.696 124.221 96.2098 124.2 95.7199C124.02 92.7199 121.2 93.2099 118.74 92.7999C116.85 92.4899 121.87 87.7 118.05 86.15C117.304 85.95 116.65 85.4977 116.2 84.87C116.009 84.4006 115.987 83.8793 116.139 83.3957C116.29 82.9121 116.605 82.4963 117.03 82.2199C117.906 81.6915 118.919 81.4373 119.94 81.4899C120.56 80.7299 120.05 79.59 119.45 78.82C118.85 78.0499 118.11 77.1599 118.34 76.2099C118.68 74.7699 120.7 74.7099 122.15 74.9899C122.558 74.051 122.824 73.0569 122.94 72.04C123.2 71.04 123.94 70.0399 125 70.1399C126.06 70.2399 126.54 71.34 127.48 71.56C128.42 71.78 129.48 70.8499 130.37 70.1299C131.26 69.4099 132.72 68.9499 133.31 69.9099C133.66 70.4799 133.45 71.2699 133.82 71.8299C134.45 72.8299 135.96 72.2 136.9 71.51C137.84 70.82 139.32 70.2 139.98 71.15C140.14 71.4676 140.261 71.8034 140.34 72.15C140.78 73.43 142.16 74.0699 143.24 74.8899C144.32 75.7099 145.16 77.3299 144.24 78.3299C143.79 78.8199 143.01 79.02 142.78 79.65C142.5 80.44 143.31 81.14 143.94 81.65C145 82.55 145.19 85.2399 143.79 85.9699C143.21 86.2799 142.35 86.3699 142.2 87.0199C142.05 87.6699 142.66 88.0199 143.05 88.4999C143.297 88.8162 143.472 89.1821 143.563 89.5725C143.654 89.9629 143.659 90.3685 143.579 90.7612C143.498 91.1538 143.333 91.5243 143.095 91.847C142.857 92.1696 142.552 92.4368 142.2 92.6299C141.87 92.7899 141.45 92.9199 141.33 93.2699C141.277 93.532 141.305 93.8041 141.41 94.0499C141.548 94.5372 141.592 95.0462 141.54 95.5499C141.544 95.7241 141.479 95.8926 141.36 96.0199C141.23 96.1059 141.076 96.148 140.92 96.1399C138.92 96.2299 137.92 95.5199 136.7 97.2699C136.595 97.4492 136.452 97.603 136.28 97.7199C136.106 97.8061 135.915 97.8539 135.72 97.8599C134.34 97.9699 133.43 97.11 132.16 96.95C130.4 96.72 130.03 97.6299 128.48 98.3599C126.06 99.5299 124.88 98.82 124.42 97.17Z" fill="#EBEBEB"/>
<path d="M104.549 98.1795C104.432 97.7076 104.362 97.2252 104.339 96.7395C104.159 93.7395 101.339 94.2295 98.8794 93.8195C96.9794 93.4995 101.999 88.7095 98.1794 87.1695C97.4351 86.9657 96.7847 86.5097 96.3394 85.8795C96.1461 85.4104 96.1233 84.8885 96.275 84.4044C96.4266 83.9203 96.7431 83.5046 97.1694 83.2295C98.0425 82.7054 99.0525 82.4546 100.069 82.5095C100.699 81.7495 100.189 80.6095 99.5794 79.8295C98.9694 79.0495 98.2394 78.1795 98.4694 77.2195C98.8194 75.7795 100.829 75.7295 102.289 76.0095C102.694 75.0527 102.957 74.0421 103.069 73.0095C103.339 72.0095 104.119 71.0095 105.139 71.1095C106.159 71.2095 106.679 72.2995 107.619 72.5195C108.559 72.7395 109.619 71.8195 110.509 71.0895C111.399 70.3595 112.859 69.9195 113.449 70.8695C113.799 71.4395 113.589 72.2395 113.949 72.7995C114.589 73.7995 116.099 73.1695 117.029 72.4795C117.959 71.7895 119.459 71.1595 120.109 72.1195C120.275 72.4354 120.4 72.7716 120.479 73.1195C120.919 74.3995 122.299 75.0295 123.369 75.8495C124.439 76.6695 125.299 78.2995 124.369 79.2995C123.919 79.7895 123.129 79.9895 122.909 80.6195C122.629 81.3995 123.429 82.1095 124.069 82.6195C125.069 83.5095 125.309 86.1995 123.919 86.9395C123.329 87.2495 122.469 87.3395 122.329 87.9895C122.189 88.6395 122.789 88.9895 123.179 89.4595C123.424 89.7764 123.598 90.1423 123.688 90.5324C123.778 90.9225 123.783 91.3275 123.702 91.7196C123.622 92.1118 123.457 92.4819 123.22 92.8047C122.983 93.1274 122.679 93.3951 122.329 93.5895C121.989 93.7495 121.579 93.8895 121.449 94.2395C121.402 94.5019 121.429 94.7723 121.529 95.0195C121.671 95.5027 121.718 96.0085 121.669 96.5095C121.67 96.6831 121.606 96.8506 121.489 96.9795C121.357 97.0685 121.199 97.114 121.039 97.1095C119.039 97.1995 118.039 96.4795 116.819 98.2395C116.717 98.4183 116.573 98.5694 116.399 98.6795C116.231 98.7714 116.042 98.8195 115.849 98.8195C114.459 98.9395 113.549 98.0695 112.289 97.9095C110.529 97.6895 110.159 98.5895 108.609 99.3195C106.189 100.55 104.999 99.8395 104.549 98.1795Z" fill="#EBEBEB"/>
<path d="M249.999 310.02C357.082 310.02 443.889 304.952 443.889 298.7C443.889 292.448 357.082 287.38 249.999 287.38C142.917 287.38 56.1094 292.448 56.1094 298.7C56.1094 304.952 142.917 310.02 249.999 310.02Z" fill="#F5F5F5"/>
<path d="M240.012 0H109.432C105.107 0 101.602 3.50561 101.602 7.83V190.75C101.602 195.074 105.107 198.58 109.432 198.58H240.012C244.336 198.58 247.842 195.074 247.842 190.75V7.83C247.842 3.50561 244.336 0 240.012 0Z" fill="#D9D8D8"/>
<path d="M194.362 53.2501C194.364 57.135 193.214 60.9331 191.057 64.1642C188.9 67.3953 185.833 69.9142 182.245 71.4022C178.656 72.8903 174.707 73.2807 170.897 72.524C167.086 71.7673 163.586 69.8975 160.838 67.1512C158.09 64.4049 156.219 60.9054 155.46 57.0954C154.702 53.2853 155.09 49.3359 156.576 45.7465C158.062 42.1572 160.58 39.0893 163.81 36.9308C167.04 34.7722 170.837 33.6201 174.722 33.6201C177.301 33.6175 179.855 34.1234 182.239 35.1088C184.622 36.0943 186.788 37.5399 188.612 39.3631C190.436 41.1863 191.883 43.3513 192.87 45.7342C193.856 48.1171 194.363 50.6711 194.362 53.2501Z" fill="#676F73"/>
<path d="M174.721 58.4301C178.604 58.4301 181.751 55.2827 181.751 51.4001C181.751 47.5176 178.604 44.3701 174.721 44.3701C170.839 44.3701 167.691 47.5176 167.691 51.4001C167.691 55.2827 170.839 58.4301 174.721 58.4301Z" fill="white"/>
<path d="M187.192 68.4601C183.678 71.3437 179.272 72.9198 174.727 72.9198C170.181 72.9198 165.776 71.3437 162.262 68.4601C164.102 63.0701 167.892 59.0901 172.442 58.0801C173.943 57.7467 175.5 57.7467 177.002 58.0801C181.562 59.0601 185.342 63.0401 187.192 68.4601Z" fill="white"/>
<path d="M163.369 130.304C163.161 130.304 162.961 130.271 162.769 130.204C162.579 130.135 162.433 130.047 162.329 129.94L162.445 129.712C162.543 129.808 162.675 129.89 162.841 129.956C163.009 130.02 163.185 130.052 163.369 130.052C163.545 130.052 163.687 130.031 163.797 129.988C163.909 129.943 163.99 129.883 164.041 129.808C164.094 129.734 164.121 129.651 164.121 129.56C164.121 129.451 164.089 129.363 164.025 129.296C163.963 129.23 163.882 129.178 163.781 129.14C163.679 129.1 163.567 129.066 163.445 129.036C163.322 129.007 163.199 128.976 163.077 128.944C162.954 128.91 162.841 128.864 162.737 128.808C162.635 128.752 162.553 128.679 162.489 128.588C162.427 128.495 162.397 128.374 162.397 128.224C162.397 128.086 162.433 127.959 162.505 127.844C162.579 127.727 162.693 127.634 162.845 127.564C162.997 127.492 163.191 127.456 163.429 127.456C163.586 127.456 163.742 127.479 163.897 127.524C164.051 127.567 164.185 127.627 164.297 127.704L164.197 127.94C164.077 127.86 163.949 127.802 163.813 127.764C163.679 127.727 163.55 127.708 163.425 127.708C163.257 127.708 163.118 127.731 163.009 127.776C162.899 127.822 162.818 127.883 162.765 127.96C162.714 128.035 162.689 128.12 162.689 128.216C162.689 128.326 162.719 128.414 162.781 128.48C162.845 128.547 162.927 128.599 163.029 128.636C163.133 128.674 163.246 128.707 163.369 128.736C163.491 128.766 163.613 128.798 163.733 128.832C163.855 128.867 163.967 128.912 164.069 128.968C164.173 129.022 164.255 129.094 164.317 129.184C164.381 129.275 164.413 129.394 164.413 129.54C164.413 129.676 164.375 129.803 164.301 129.92C164.226 130.035 164.111 130.128 163.957 130.2C163.805 130.27 163.609 130.304 163.369 130.304ZM164.998 130.28V128.18H165.282V130.28H164.998ZM165.142 127.716C165.083 127.716 165.034 127.696 164.994 127.656C164.954 127.616 164.934 127.568 164.934 127.512C164.934 127.456 164.954 127.41 164.994 127.372C165.034 127.332 165.083 127.312 165.142 127.312C165.2 127.312 165.25 127.331 165.29 127.368C165.33 127.406 165.35 127.452 165.35 127.508C165.35 127.567 165.33 127.616 165.29 127.656C165.252 127.696 165.203 127.716 165.142 127.716ZM166.968 131.076C166.776 131.076 166.592 131.048 166.416 130.992C166.24 130.936 166.097 130.856 165.988 130.752L166.132 130.536C166.23 130.624 166.352 130.694 166.496 130.744C166.642 130.798 166.797 130.824 166.96 130.824C167.226 130.824 167.422 130.762 167.548 130.636C167.673 130.514 167.736 130.322 167.736 130.06V129.536L167.776 129.176L167.748 128.816V128.18H168.02V130.024C168.02 130.387 167.93 130.652 167.752 130.82C167.576 130.991 167.314 131.076 166.968 131.076ZM166.916 130.2C166.716 130.2 166.536 130.158 166.376 130.072C166.216 129.984 166.089 129.863 165.996 129.708C165.905 129.554 165.86 129.376 165.86 129.176C165.86 128.976 165.905 128.8 165.996 128.648C166.089 128.494 166.216 128.374 166.376 128.288C166.536 128.203 166.716 128.16 166.916 128.16C167.102 128.16 167.27 128.199 167.42 128.276C167.569 128.354 167.688 128.468 167.776 128.62C167.864 128.772 167.908 128.958 167.908 129.176C167.908 129.395 167.864 129.58 167.776 129.732C167.688 129.884 167.569 130 167.42 130.08C167.27 130.16 167.102 130.2 166.916 130.2ZM166.944 129.948C167.098 129.948 167.236 129.916 167.356 129.852C167.476 129.786 167.57 129.695 167.64 129.58C167.709 129.463 167.744 129.328 167.744 129.176C167.744 129.024 167.709 128.891 167.64 128.776C167.57 128.662 167.476 128.572 167.356 128.508C167.236 128.442 167.098 128.408 166.944 128.408C166.792 128.408 166.654 128.442 166.532 128.508C166.412 128.572 166.317 128.662 166.248 128.776C166.181 128.891 166.148 129.024 166.148 129.176C166.148 129.328 166.181 129.463 166.248 129.58C166.317 129.695 166.412 129.786 166.532 129.852C166.654 129.916 166.792 129.948 166.944 129.948ZM169.882 128.16C170.053 128.16 170.202 128.194 170.33 128.26C170.461 128.324 170.562 128.423 170.634 128.556C170.709 128.69 170.746 128.858 170.746 129.06V130.28H170.462V129.088C170.462 128.867 170.406 128.7 170.294 128.588C170.185 128.474 170.03 128.416 169.83 128.416C169.681 128.416 169.55 128.447 169.438 128.508C169.329 128.567 169.243 128.654 169.182 128.768C169.123 128.88 169.094 129.016 169.094 129.176V130.28H168.81V128.18H169.082V128.756L169.038 128.648C169.105 128.496 169.211 128.378 169.358 128.292C169.505 128.204 169.679 128.16 169.882 128.16ZM173.428 130.3C173.249 130.3 173.093 130.267 172.96 130.2C172.827 130.134 172.723 130.034 172.648 129.9C172.576 129.767 172.54 129.6 172.54 129.4V128.18H172.824V129.368C172.824 129.592 172.879 129.762 172.988 129.876C173.1 129.988 173.256 130.044 173.456 130.044C173.603 130.044 173.729 130.015 173.836 129.956C173.945 129.895 174.028 129.807 174.084 129.692C174.143 129.578 174.172 129.44 174.172 129.28V128.18H174.456V130.28H174.184V129.704L174.228 129.808C174.161 129.963 174.057 130.084 173.916 130.172C173.777 130.258 173.615 130.3 173.428 130.3ZM176.332 130.3C176.15 130.3 175.986 130.259 175.84 130.176C175.693 130.091 175.576 129.97 175.488 129.812C175.402 129.652 175.36 129.458 175.36 129.228C175.36 128.999 175.402 128.806 175.488 128.648C175.573 128.488 175.689 128.367 175.836 128.284C175.982 128.202 176.148 128.16 176.332 128.16C176.532 128.16 176.71 128.206 176.868 128.296C177.028 128.384 177.153 128.51 177.244 128.672C177.334 128.832 177.38 129.018 177.38 129.228C177.38 129.442 177.334 129.628 177.244 129.788C177.153 129.948 177.028 130.074 176.868 130.164C176.71 130.255 176.532 130.3 176.332 130.3ZM175.248 131.056V128.18H175.52V128.812L175.492 129.232L175.532 129.656V131.056H175.248ZM176.312 130.048C176.461 130.048 176.594 130.015 176.712 129.948C176.829 129.879 176.922 129.783 176.992 129.66C177.061 129.535 177.096 129.391 177.096 129.228C177.096 129.066 177.061 128.923 176.992 128.8C176.922 128.678 176.829 128.582 176.712 128.512C176.594 128.443 176.461 128.408 176.312 128.408C176.162 128.408 176.028 128.443 175.908 128.512C175.79 128.582 175.697 128.678 175.628 128.8C175.561 128.923 175.528 129.066 175.528 129.228C175.528 129.391 175.561 129.535 175.628 129.66C175.697 129.783 175.79 129.879 175.908 129.948C176.028 130.015 176.162 130.048 176.312 130.048ZM180.077 128.16C180.248 128.16 180.397 128.194 180.525 128.26C180.656 128.324 180.757 128.423 180.829 128.556C180.904 128.69 180.941 128.858 180.941 129.06V130.28H180.657V129.088C180.657 128.867 180.601 128.7 180.489 128.588C180.38 128.474 180.225 128.416 180.025 128.416C179.876 128.416 179.745 128.447 179.633 128.508C179.524 128.567 179.439 128.654 179.377 128.768C179.319 128.88 179.289 129.016 179.289 129.176V130.28H179.005V128.18H179.277V128.756L179.233 128.648C179.3 128.496 179.407 128.378 179.553 128.292C179.7 128.204 179.875 128.16 180.077 128.16ZM182.565 130.3C182.362 130.3 182.179 130.255 182.017 130.164C181.857 130.071 181.73 129.944 181.637 129.784C181.543 129.622 181.497 129.436 181.497 129.228C181.497 129.018 181.543 128.832 181.637 128.672C181.73 128.512 181.857 128.387 182.017 128.296C182.177 128.206 182.359 128.16 182.565 128.16C182.773 128.16 182.957 128.206 183.117 128.296C183.279 128.387 183.406 128.512 183.497 128.672C183.59 128.832 183.637 129.018 183.637 129.228C183.637 129.436 183.59 129.622 183.497 129.784C183.406 129.944 183.279 130.071 183.117 130.164C182.954 130.255 182.77 130.3 182.565 130.3ZM182.565 130.048C182.717 130.048 182.851 130.015 182.969 129.948C183.086 129.879 183.178 129.783 183.245 129.66C183.314 129.535 183.349 129.391 183.349 129.228C183.349 129.063 183.314 128.919 183.245 128.796C183.178 128.674 183.086 128.579 182.969 128.512C182.851 128.443 182.718 128.408 182.569 128.408C182.419 128.408 182.286 128.443 182.169 128.512C182.051 128.579 181.958 128.674 181.889 128.796C181.819 128.919 181.785 129.063 181.785 129.228C181.785 129.391 181.819 129.535 181.889 129.66C181.958 129.783 182.051 129.879 182.169 129.948C182.286 130.015 182.418 130.048 182.565 130.048ZM184.586 130.28L183.794 128.18H184.066L184.786 130.128H184.662L185.402 128.18H185.646L186.378 130.128H186.254L186.986 128.18H187.246L186.45 130.28H186.182L185.478 128.448H185.562L184.854 130.28H184.586Z" fill="black"/>
<path d="M214.292 136.04H135.162C130.65 136.04 126.992 139.698 126.992 144.21V144.22C126.992 148.732 130.65 152.39 135.162 152.39H214.292C218.804 152.39 222.462 148.732 222.462 144.22V144.21C222.462 139.698 218.804 136.04 214.292 136.04Z" fill="#900000"/>
<g opacity="0.5">
<path d="M157.45 161.876H158.93V162.132H157.45V161.876ZM157.482 163.32H157.186V160.52H159.106V160.776H157.482V163.32ZM160.443 163.34C160.241 163.34 160.058 163.295 159.895 163.204C159.735 163.111 159.609 162.984 159.515 162.824C159.422 162.662 159.375 162.476 159.375 162.268C159.375 162.058 159.422 161.872 159.515 161.712C159.609 161.552 159.735 161.427 159.895 161.336C160.055 161.246 160.238 161.2 160.443 161.2C160.651 161.2 160.835 161.246 160.995 161.336C161.158 161.427 161.285 161.552 161.375 161.712C161.469 161.872 161.515 162.058 161.515 162.268C161.515 162.476 161.469 162.662 161.375 162.824C161.285 162.984 161.158 163.111 160.995 163.204C160.833 163.295 160.649 163.34 160.443 163.34ZM160.443 163.088C160.595 163.088 160.73 163.055 160.847 162.988C160.965 162.919 161.057 162.823 161.123 162.7C161.193 162.575 161.227 162.431 161.227 162.268C161.227 162.103 161.193 161.959 161.123 161.836C161.057 161.714 160.965 161.619 160.847 161.552C160.73 161.483 160.597 161.448 160.447 161.448C160.298 161.448 160.165 161.483 160.047 161.552C159.93 161.619 159.837 161.714 159.767 161.836C159.698 161.959 159.663 162.103 159.663 162.268C159.663 162.431 159.698 162.575 159.767 162.7C159.837 162.823 159.93 162.919 160.047 162.988C160.165 163.055 160.297 163.088 160.443 163.088ZM162.095 163.32V161.22H162.367V161.792L162.339 161.692C162.398 161.532 162.497 161.411 162.635 161.328C162.774 161.243 162.946 161.2 163.151 161.2V161.476C163.141 161.476 163.13 161.476 163.119 161.476C163.109 161.474 163.098 161.472 163.087 161.472C162.866 161.472 162.693 161.54 162.567 161.676C162.442 161.81 162.379 162 162.379 162.248V163.32H162.095ZM164.546 164.116C164.354 164.116 164.17 164.088 163.994 164.032C163.818 163.976 163.675 163.896 163.566 163.792L163.71 163.576C163.809 163.664 163.93 163.734 164.074 163.784C164.221 163.838 164.375 163.864 164.538 163.864C164.805 163.864 165.001 163.802 165.126 163.676C165.251 163.554 165.314 163.362 165.314 163.1V162.576L165.354 162.216L165.326 161.856V161.22H165.598V163.064C165.598 163.427 165.509 163.692 165.33 163.86C165.154 164.031 164.893 164.116 164.546 164.116ZM164.494 163.24C164.294 163.24 164.114 163.198 163.954 163.112C163.794 163.024 163.667 162.903 163.574 162.748C163.483 162.594 163.438 162.416 163.438 162.216C163.438 162.016 163.483 161.84 163.574 161.688C163.667 161.534 163.794 161.414 163.954 161.328C164.114 161.243 164.294 161.2 164.494 161.2C164.681 161.2 164.849 161.239 164.998 161.316C165.147 161.394 165.266 161.508 165.354 161.66C165.442 161.812 165.486 161.998 165.486 162.216C165.486 162.435 165.442 162.62 165.354 162.772C165.266 162.924 165.147 163.04 164.998 163.12C164.849 163.2 164.681 163.24 164.494 163.24ZM164.522 162.988C164.677 162.988 164.814 162.956 164.934 162.892C165.054 162.826 165.149 162.735 165.218 162.62C165.287 162.503 165.322 162.368 165.322 162.216C165.322 162.064 165.287 161.931 165.218 161.816C165.149 161.702 165.054 161.612 164.934 161.548C164.814 161.482 164.677 161.448 164.522 161.448C164.37 161.448 164.233 161.482 164.11 161.548C163.99 161.612 163.895 161.702 163.826 161.816C163.759 161.931 163.726 162.064 163.726 162.216C163.726 162.368 163.759 162.503 163.826 162.62C163.895 162.735 163.99 162.826 164.11 162.892C164.233 162.956 164.37 162.988 164.522 162.988ZM167.244 163.34C167.042 163.34 166.859 163.295 166.696 163.204C166.536 163.111 166.41 162.984 166.316 162.824C166.223 162.662 166.176 162.476 166.176 162.268C166.176 162.058 166.223 161.872 166.316 161.712C166.41 161.552 166.536 161.427 166.696 161.336C166.856 161.246 167.039 161.2 167.244 161.2C167.452 161.2 167.636 161.246 167.796 161.336C167.959 161.427 168.086 161.552 168.176 161.712C168.27 161.872 168.316 162.058 168.316 162.268C168.316 162.476 168.27 162.662 168.176 162.824C168.086 162.984 167.959 163.111 167.796 163.204C167.634 163.295 167.45 163.34 167.244 163.34ZM167.244 163.088C167.396 163.088 167.531 163.055 167.648 162.988C167.766 162.919 167.858 162.823 167.924 162.7C167.994 162.575 168.028 162.431 168.028 162.268C168.028 162.103 167.994 161.959 167.924 161.836C167.858 161.714 167.766 161.619 167.648 161.552C167.531 161.483 167.398 161.448 167.248 161.448C167.099 161.448 166.966 161.483 166.848 161.552C166.731 161.619 166.638 161.714 166.568 161.836C166.499 161.959 166.464 162.103 166.464 162.268C166.464 162.431 166.499 162.575 166.568 162.7C166.638 162.823 166.731 162.919 166.848 162.988C166.966 163.055 167.098 163.088 167.244 163.088ZM169.56 163.34C169.363 163.34 169.211 163.287 169.104 163.18C168.997 163.074 168.944 162.923 168.944 162.728V160.756H169.228V162.712C169.228 162.835 169.259 162.93 169.32 162.996C169.384 163.063 169.475 163.096 169.592 163.096C169.717 163.096 169.821 163.06 169.904 162.988L170.004 163.192C169.948 163.243 169.88 163.28 169.8 163.304C169.723 163.328 169.643 163.34 169.56 163.34ZM168.568 161.456V161.22H169.868V161.456H168.568ZM171.628 163.32V160.52H172.676C172.913 160.52 173.117 160.559 173.288 160.636C173.459 160.711 173.589 160.82 173.68 160.964C173.773 161.106 173.82 161.278 173.82 161.48C173.82 161.678 173.773 161.848 173.68 161.992C173.589 162.134 173.459 162.243 173.288 162.32C173.117 162.398 172.913 162.436 172.676 162.436H171.792L171.924 162.296V163.32H171.628ZM171.924 162.32L171.792 162.176H172.668C172.948 162.176 173.16 162.116 173.304 161.996C173.451 161.874 173.524 161.702 173.524 161.48C173.524 161.256 173.451 161.083 173.304 160.96C173.16 160.838 172.948 160.776 172.668 160.776H171.792L171.924 160.636V162.32ZM175.696 163.32V162.856L175.684 162.78V162.004C175.684 161.826 175.634 161.688 175.532 161.592C175.434 161.496 175.286 161.448 175.088 161.448C174.952 161.448 174.823 161.471 174.7 161.516C174.578 161.562 174.474 161.622 174.388 161.696L174.26 161.484C174.367 161.394 174.495 161.324 174.644 161.276C174.794 161.226 174.951 161.2 175.116 161.2C175.388 161.2 175.598 161.268 175.744 161.404C175.894 161.538 175.968 161.742 175.968 162.016V163.32H175.696ZM174.972 163.34C174.815 163.34 174.678 163.315 174.56 163.264C174.446 163.211 174.358 163.139 174.296 163.048C174.235 162.955 174.204 162.848 174.204 162.728C174.204 162.619 174.23 162.52 174.28 162.432C174.334 162.342 174.419 162.27 174.536 162.216C174.656 162.16 174.816 162.132 175.016 162.132H175.74V162.344H175.024C174.822 162.344 174.68 162.38 174.6 162.452C174.523 162.524 174.484 162.614 174.484 162.72C174.484 162.84 174.531 162.936 174.624 163.008C174.718 163.08 174.848 163.116 175.016 163.116C175.176 163.116 175.314 163.08 175.428 163.008C175.546 162.934 175.631 162.827 175.684 162.688L175.748 162.884C175.695 163.023 175.602 163.134 175.468 163.216C175.338 163.299 175.172 163.34 174.972 163.34ZM177.304 163.34C177.13 163.34 176.966 163.316 176.812 163.268C176.657 163.218 176.536 163.155 176.448 163.08L176.576 162.856C176.661 162.92 176.77 162.976 176.904 163.024C177.037 163.07 177.177 163.092 177.324 163.092C177.524 163.092 177.668 163.062 177.756 163C177.844 162.936 177.888 162.852 177.888 162.748C177.888 162.671 177.862 162.611 177.812 162.568C177.764 162.523 177.7 162.49 177.62 162.468C177.54 162.444 177.45 162.424 177.352 162.408C177.253 162.392 177.154 162.374 177.056 162.352C176.96 162.331 176.872 162.3 176.792 162.26C176.712 162.218 176.646 162.16 176.596 162.088C176.548 162.016 176.524 161.92 176.524 161.8C176.524 161.686 176.556 161.583 176.62 161.492C176.684 161.402 176.777 161.331 176.9 161.28C177.025 161.227 177.177 161.2 177.356 161.2C177.492 161.2 177.628 161.219 177.764 161.256C177.9 161.291 178.012 161.338 178.1 161.396L177.976 161.624C177.882 161.56 177.782 161.515 177.676 161.488C177.569 161.459 177.462 161.444 177.356 161.444C177.166 161.444 177.026 161.478 176.936 161.544C176.848 161.608 176.804 161.691 176.804 161.792C176.804 161.872 176.828 161.935 176.876 161.98C176.926 162.026 176.992 162.062 177.072 162.088C177.154 162.112 177.244 162.132 177.34 162.148C177.438 162.164 177.536 162.184 177.632 162.208C177.73 162.23 177.82 162.26 177.9 162.3C177.982 162.338 178.048 162.392 178.096 162.464C178.146 162.534 178.172 162.626 178.172 162.74C178.172 162.863 178.137 162.97 178.068 163.06C178.001 163.148 177.902 163.218 177.772 163.268C177.644 163.316 177.488 163.34 177.304 163.34ZM179.257 163.34C179.084 163.34 178.92 163.316 178.765 163.268C178.61 163.218 178.489 163.155 178.401 163.08L178.529 162.856C178.614 162.92 178.724 162.976 178.857 163.024C178.99 163.07 179.13 163.092 179.277 163.092C179.477 163.092 179.621 163.062 179.709 163C179.797 162.936 179.841 162.852 179.841 162.748C179.841 162.671 179.816 162.611 179.765 162.568C179.717 162.523 179.653 162.49 179.573 162.468C179.493 162.444 179.404 162.424 179.305 162.408C179.206 162.392 179.108 162.374 179.009 162.352C178.913 162.331 178.825 162.3 178.745 162.26C178.665 162.218 178.6 162.16 178.549 162.088C178.501 162.016 178.477 161.92 178.477 161.8C178.477 161.686 178.509 161.583 178.573 161.492C178.637 161.402 178.73 161.331 178.853 161.28C178.978 161.227 179.13 161.2 179.309 161.2C179.445 161.2 179.581 161.219 179.717 161.256C179.853 161.291 179.965 161.338 180.053 161.396L179.929 161.624C179.836 161.56 179.736 161.515 179.629 161.488C179.522 161.459 179.416 161.444 179.309 161.444C179.12 161.444 178.98 161.478 178.889 161.544C178.801 161.608 178.757 161.691 178.757 161.792C178.757 161.872 178.781 161.935 178.829 161.98C178.88 162.026 178.945 162.062 179.025 162.088C179.108 162.112 179.197 162.132 179.293 162.148C179.392 162.164 179.489 162.184 179.585 162.208C179.684 162.23 179.773 162.26 179.853 162.3C179.936 162.338 180.001 162.392 180.049 162.464C180.1 162.534 180.125 162.626 180.125 162.74C180.125 162.863 180.09 162.97 180.021 163.06C179.954 163.148 179.856 163.218 179.725 163.268C179.597 163.316 179.441 163.34 179.257 163.34ZM181.035 163.32L180.243 161.22H180.515L181.235 163.168H181.111L181.851 161.22H182.095L182.827 163.168H182.703L183.435 161.22H183.695L182.899 163.32H182.631L181.927 161.488H182.011L181.303 163.32H181.035ZM184.92 163.34C184.717 163.34 184.535 163.295 184.372 163.204C184.212 163.111 184.085 162.984 183.992 162.824C183.899 162.662 183.852 162.476 183.852 162.268C183.852 162.058 183.899 161.872 183.992 161.712C184.085 161.552 184.212 161.427 184.372 161.336C184.532 161.246 184.715 161.2 184.92 161.2C185.128 161.2 185.312 161.246 185.472 161.336C185.635 161.427 185.761 161.552 185.852 161.712C185.945 161.872 185.992 162.058 185.992 162.268C185.992 162.476 185.945 162.662 185.852 162.824C185.761 162.984 185.635 163.111 185.472 163.204C185.309 163.295 185.125 163.34 184.92 163.34ZM184.92 163.088C185.072 163.088 185.207 163.055 185.324 162.988C185.441 162.919 185.533 162.823 185.6 162.7C185.669 162.575 185.704 162.431 185.704 162.268C185.704 162.103 185.669 161.959 185.6 161.836C185.533 161.714 185.441 161.619 185.324 161.552C185.207 161.483 185.073 161.448 184.924 161.448C184.775 161.448 184.641 161.483 184.524 161.552C184.407 161.619 184.313 161.714 184.244 161.836C184.175 161.959 184.14 162.103 184.14 162.268C184.14 162.431 184.175 162.575 184.244 162.7C184.313 162.823 184.407 162.919 184.524 162.988C184.641 163.055 184.773 163.088 184.92 163.088ZM186.572 163.32V161.22H186.844V161.792L186.816 161.692C186.874 161.532 186.973 161.411 187.112 161.328C187.25 161.243 187.422 161.2 187.628 161.2V161.476C187.617 161.476 187.606 161.476 187.596 161.476C187.585 161.474 187.574 161.472 187.564 161.472C187.342 161.472 187.169 161.54 187.044 161.676C186.918 161.81 186.856 162 186.856 162.248V163.32H186.572ZM188.962 163.34C188.762 163.34 188.582 163.295 188.422 163.204C188.265 163.114 188.141 162.988 188.05 162.828C187.96 162.666 187.914 162.479 187.914 162.268C187.914 162.055 187.96 161.868 188.05 161.708C188.141 161.548 188.265 161.424 188.422 161.336C188.582 161.246 188.762 161.2 188.962 161.2C189.146 161.2 189.31 161.242 189.454 161.324C189.601 161.407 189.717 161.528 189.802 161.688C189.89 161.846 189.934 162.039 189.934 162.268C189.934 162.495 189.892 162.688 189.806 162.848C189.721 163.008 189.605 163.131 189.458 163.216C189.314 163.299 189.149 163.34 188.962 163.34ZM188.982 163.088C189.132 163.088 189.265 163.055 189.382 162.988C189.502 162.919 189.596 162.823 189.662 162.7C189.732 162.575 189.766 162.431 189.766 162.268C189.766 162.103 189.732 161.959 189.662 161.836C189.596 161.714 189.502 161.619 189.382 161.552C189.265 161.483 189.132 161.448 188.982 161.448C188.836 161.448 188.704 161.483 188.586 161.552C188.469 161.619 188.376 161.714 188.306 161.836C188.237 161.959 188.202 162.103 188.202 162.268C188.202 162.431 188.237 162.575 188.306 162.7C188.376 162.823 188.469 162.919 188.586 162.988C188.704 163.055 188.836 163.088 188.982 163.088ZM189.774 163.32V162.688L189.802 162.264L189.762 161.84V160.352H190.046V163.32H189.774ZM191.381 162.48C191.381 162.368 191.399 162.272 191.433 162.192C191.471 162.112 191.516 162.042 191.569 161.98C191.625 161.919 191.684 161.862 191.745 161.808C191.809 161.755 191.869 161.702 191.925 161.648C191.981 161.592 192.027 161.532 192.061 161.468C192.096 161.402 192.113 161.324 192.113 161.236C192.113 161.092 192.057 160.975 191.945 160.884C191.833 160.794 191.675 160.748 191.469 160.748C191.299 160.748 191.151 160.776 191.025 160.832C190.9 160.886 190.793 160.966 190.705 161.072L190.493 160.912C190.6 160.779 190.737 160.676 190.905 160.604C191.073 160.532 191.268 160.496 191.489 160.496C191.676 160.496 191.837 160.524 191.973 160.58C192.112 160.636 192.219 160.716 192.293 160.82C192.371 160.924 192.409 161.048 192.409 161.192C192.409 161.307 192.391 161.406 192.353 161.488C192.319 161.568 192.273 161.64 192.217 161.704C192.164 161.766 192.105 161.824 192.041 161.88C191.98 161.934 191.921 161.988 191.865 162.044C191.809 162.1 191.764 162.163 191.729 162.232C191.695 162.302 191.677 162.384 191.677 162.48H191.381ZM191.529 163.34C191.473 163.34 191.424 163.32 191.381 163.28C191.341 163.238 191.321 163.188 191.321 163.132C191.321 163.074 191.341 163.026 191.381 162.988C191.424 162.948 191.473 162.928 191.529 162.928C191.591 162.928 191.641 162.948 191.681 162.988C191.721 163.026 191.741 163.074 191.741 163.132C191.741 163.188 191.721 163.238 191.681 163.28C191.641 163.32 191.591 163.34 191.529 163.34Z" fill="black"/>
</g>
<path d="M164.357 146.76V140.942H165.061V146.135H167.766V146.76H164.357ZM170.539 146.851C170.145 146.851 169.799 146.757 169.502 146.569C169.206 146.382 168.975 146.12 168.809 145.782C168.644 145.445 168.561 145.051 168.561 144.601C168.561 144.146 168.644 143.749 168.809 143.41C168.975 143.071 169.206 142.808 169.502 142.621C169.799 142.433 170.145 142.339 170.539 142.339C170.933 142.339 171.277 142.433 171.573 142.621C171.87 142.808 172.101 143.071 172.266 143.41C172.433 143.749 172.516 144.146 172.516 144.601C172.516 145.051 172.433 145.445 172.266 145.782C172.101 146.12 171.87 146.382 171.573 146.569C171.277 146.757 170.933 146.851 170.539 146.851ZM170.539 146.248C170.838 146.248 171.084 146.172 171.277 146.018C171.471 145.865 171.614 145.663 171.706 145.413C171.799 145.163 171.846 144.892 171.846 144.601C171.846 144.309 171.799 144.037 171.706 143.785C171.614 143.533 171.471 143.33 171.277 143.175C171.084 143.019 170.838 142.942 170.539 142.942C170.239 142.942 169.993 143.019 169.8 143.175C169.607 143.33 169.464 143.533 169.371 143.785C169.278 144.037 169.232 144.309 169.232 144.601C169.232 144.892 169.278 145.163 169.371 145.413C169.464 145.663 169.607 145.865 169.8 146.018C169.993 146.172 170.239 146.248 170.539 146.248ZM175.301 148.487C174.977 148.487 174.699 148.445 174.466 148.362C174.233 148.281 174.038 148.173 173.883 148.038C173.73 147.906 173.608 147.764 173.517 147.612L174.051 147.237C174.111 147.317 174.188 147.407 174.281 147.51C174.374 147.614 174.501 147.704 174.662 147.78C174.824 147.857 175.038 147.896 175.301 147.896C175.653 147.896 175.944 147.811 176.173 147.64C176.402 147.47 176.517 147.203 176.517 146.839V145.953H176.46C176.411 146.032 176.341 146.131 176.25 146.248C176.161 146.364 176.032 146.467 175.863 146.558C175.697 146.647 175.471 146.692 175.187 146.692C174.835 146.692 174.519 146.608 174.238 146.442C173.96 146.275 173.739 146.032 173.576 145.714C173.415 145.396 173.335 145.01 173.335 144.555C173.335 144.108 173.413 143.719 173.571 143.388C173.728 143.054 173.947 142.797 174.227 142.615C174.507 142.431 174.831 142.339 175.199 142.339C175.483 142.339 175.708 142.387 175.875 142.481C176.043 142.574 176.172 142.68 176.261 142.8C176.352 142.917 176.422 143.014 176.471 143.089H176.539V142.396H177.187V146.885C177.187 147.26 177.102 147.565 176.931 147.8C176.763 148.036 176.536 148.21 176.25 148.319C175.966 148.431 175.649 148.487 175.301 148.487ZM175.278 146.089C175.547 146.089 175.774 146.028 175.96 145.905C176.145 145.782 176.287 145.604 176.383 145.373C176.48 145.142 176.528 144.866 176.528 144.544C176.528 144.229 176.481 143.952 176.386 143.711C176.291 143.471 176.151 143.282 175.966 143.146C175.78 143.01 175.551 142.942 175.278 142.942C174.994 142.942 174.757 143.014 174.568 143.157C174.38 143.301 174.239 143.495 174.145 143.737C174.052 143.979 174.005 144.248 174.005 144.544C174.005 144.847 174.053 145.115 174.147 145.348C174.244 145.579 174.386 145.761 174.574 145.893C174.763 146.024 174.998 146.089 175.278 146.089ZM178.414 146.76V142.396H179.085V146.76H178.414ZM178.755 141.669C178.625 141.669 178.512 141.624 178.417 141.535C178.324 141.446 178.278 141.339 178.278 141.214C178.278 141.089 178.324 140.982 178.417 140.893C178.512 140.804 178.625 140.76 178.755 140.76C178.886 140.76 178.998 140.804 179.091 140.893C179.185 140.982 179.233 141.089 179.233 141.214C179.233 141.339 179.185 141.446 179.091 141.535C178.998 141.624 178.886 141.669 178.755 141.669ZM180.983 144.135V146.76H180.313V142.396H180.961V143.078H181.017C181.12 142.856 181.275 142.678 181.483 142.544C181.692 142.407 181.961 142.339 182.29 142.339C182.586 142.339 182.844 142.4 183.066 142.521C183.287 142.64 183.46 142.822 183.583 143.067C183.706 143.309 183.767 143.616 183.767 143.987V146.76H183.097V144.032C183.097 143.69 183.008 143.423 182.83 143.231C182.652 143.038 182.408 142.942 182.097 142.942C181.883 142.942 181.692 142.988 181.523 143.081C181.356 143.174 181.225 143.309 181.128 143.487C181.032 143.665 180.983 143.881 180.983 144.135Z" fill="white"/>
<path d="M214.292 80.8398H135.162C130.65 80.8398 126.992 84.4977 126.992 89.0098V89.0198C126.992 93.532 130.65 97.1898 135.162 97.1898H214.292C218.804 97.1898 222.462 93.532 222.462 89.0198V89.0098C222.462 84.4977 218.804 80.8398 214.292 80.8398Z" fill="white"/>
<path d="M214.292 104.02H135.162C130.65 104.02 126.992 107.677 126.992 112.19V112.2C126.992 116.712 130.65 120.37 135.162 120.37H214.292C218.804 120.37 222.462 116.712 222.462 112.2V112.19C222.462 107.677 218.804 104.02 214.292 104.02Z" fill="white"/>
<g opacity="0.5">
<path d="M138.031 90.4805V86.9805H138.336L140.751 90.0205H140.591V86.9805H140.956V90.4805H140.651L138.241 87.4405H138.401V90.4805H138.031ZM143.668 90.4805V89.9005L143.653 89.8055V88.8355C143.653 88.6121 143.59 88.4405 143.463 88.3205C143.34 88.2005 143.155 88.1405 142.908 88.1405C142.738 88.1405 142.577 88.1688 142.423 88.2255C142.27 88.2821 142.14 88.3571 142.033 88.4505L141.873 88.1855C142.007 88.0721 142.167 87.9855 142.353 87.9255C142.54 87.8621 142.737 87.8305 142.943 87.8305C143.283 87.8305 143.545 87.9155 143.728 88.0855C143.915 88.2521 144.008 88.5071 144.008 88.8505V90.4805H143.668ZM142.763 90.5055C142.567 90.5055 142.395 90.4738 142.248 90.4105C142.105 90.3438 141.995 90.2538 141.918 90.1405C141.842 90.0238 141.803 89.8905 141.803 89.7405C141.803 89.6038 141.835 89.4805 141.898 89.3705C141.965 89.2571 142.072 89.1671 142.218 89.1005C142.368 89.0305 142.568 88.9955 142.818 88.9955H143.723V89.2605H142.828C142.575 89.2605 142.398 89.3055 142.298 89.3955C142.202 89.4855 142.153 89.5971 142.153 89.7305C142.153 89.8805 142.212 90.0005 142.328 90.0905C142.445 90.1805 142.608 90.2255 142.818 90.2255C143.018 90.2255 143.19 90.1805 143.333 90.0905C143.48 89.9971 143.587 89.8638 143.653 89.6905L143.733 89.9355C143.667 90.1088 143.55 90.2471 143.383 90.3505C143.22 90.4538 143.013 90.5055 142.763 90.5055ZM148.253 87.8305C148.466 87.8305 148.651 87.8721 148.808 87.9555C148.968 88.0355 149.091 88.1588 149.178 88.3255C149.268 88.4921 149.313 88.7021 149.313 88.9555V90.4805H148.958V88.9905C148.958 88.7138 148.891 88.5055 148.758 88.3655C148.628 88.2221 148.443 88.1505 148.203 88.1505C148.023 88.1505 147.866 88.1888 147.733 88.2655C147.603 88.3388 147.501 88.4471 147.428 88.5905C147.358 88.7305 147.323 88.9005 147.323 89.1005V90.4805H146.968V88.9905C146.968 88.7138 146.901 88.5055 146.768 88.3655C146.634 88.2221 146.448 88.1505 146.208 88.1505C146.031 88.1505 145.876 88.1888 145.743 88.2655C145.609 88.3388 145.506 88.4471 145.433 88.5905C145.363 88.7305 145.328 88.9005 145.328 89.1005V90.4805H144.973V87.8555H145.313V88.5655L145.258 88.4405C145.338 88.2505 145.466 88.1021 145.643 87.9955C145.823 87.8855 146.034 87.8305 146.278 87.8305C146.534 87.8305 146.753 87.8955 146.933 88.0255C147.113 88.1521 147.229 88.3438 147.283 88.6005L147.143 88.5455C147.219 88.3321 147.354 88.1605 147.548 88.0305C147.744 87.8971 147.979 87.8305 148.253 87.8305ZM151.39 90.5055C151.117 90.5055 150.877 90.4488 150.67 90.3355C150.464 90.2188 150.302 90.0605 150.185 89.8605C150.069 89.6571 150.01 89.4255 150.01 89.1655C150.01 88.9055 150.065 88.6755 150.175 88.4755C150.289 88.2755 150.442 88.1188 150.635 88.0055C150.832 87.8888 151.052 87.8305 151.295 87.8305C151.542 87.8305 151.76 87.8871 151.95 88.0005C152.144 88.1105 152.295 88.2671 152.405 88.4705C152.515 88.6705 152.57 88.9021 152.57 89.1655C152.57 89.1821 152.569 89.2005 152.565 89.2205C152.565 89.2371 152.565 89.2555 152.565 89.2755H150.28V89.0105H152.375L152.235 89.1155C152.235 88.9255 152.194 88.7571 152.11 88.6105C152.03 88.4605 151.92 88.3438 151.78 88.2605C151.64 88.1771 151.479 88.1355 151.295 88.1355C151.115 88.1355 150.954 88.1771 150.81 88.2605C150.667 88.3438 150.555 88.4605 150.475 88.6105C150.395 88.7605 150.355 88.9321 150.355 89.1255V89.1805C150.355 89.3805 150.399 89.5571 150.485 89.7105C150.575 89.8605 150.699 89.9788 150.855 90.0655C151.015 90.1488 151.197 90.1905 151.4 90.1905C151.56 90.1905 151.709 90.1621 151.845 90.1055C151.985 90.0488 152.105 89.9621 152.205 89.8455L152.405 90.0755C152.289 90.2155 152.142 90.3221 151.965 90.3955C151.792 90.4688 151.6 90.5055 151.39 90.5055ZM155.373 91.4805C155.03 91.4805 154.716 91.4238 154.433 91.3105C154.15 91.2005 153.905 91.0438 153.698 90.8405C153.495 90.6405 153.336 90.4021 153.223 90.1255C153.113 89.8455 153.058 89.5405 153.058 89.2105C153.058 88.8771 153.113 88.5738 153.223 88.3005C153.336 88.0238 153.496 87.7855 153.703 87.5855C153.913 87.3821 154.161 87.2255 154.448 87.1155C154.735 87.0055 155.05 86.9505 155.393 86.9505C155.733 86.9505 156.043 87.0038 156.323 87.1105C156.606 87.2171 156.851 87.3688 157.058 87.5655C157.265 87.7588 157.423 87.9905 157.533 88.2605C157.646 88.5305 157.703 88.8288 157.703 89.1555C157.703 89.4355 157.67 89.6771 157.603 89.8805C157.54 90.0805 157.446 90.2355 157.323 90.3455C157.2 90.4521 157.051 90.5055 156.878 90.5055C156.708 90.5055 156.571 90.4538 156.468 90.3505C156.365 90.2471 156.313 90.1021 156.313 89.9155V89.5205L156.353 89.2005L156.303 88.7005V87.9455H156.628V89.8405C156.628 89.9805 156.658 90.0788 156.718 90.1355C156.778 90.1921 156.851 90.2205 156.938 90.2205C157.041 90.2205 157.131 90.1788 157.208 90.0955C157.285 90.0121 157.343 89.8921 157.383 89.7355C157.426 89.5755 157.448 89.3838 157.448 89.1605C157.448 88.8671 157.398 88.6005 157.298 88.3605C157.198 88.1205 157.056 87.9138 156.873 87.7405C156.69 87.5671 156.473 87.4355 156.223 87.3455C155.973 87.2521 155.696 87.2055 155.393 87.2055C155.09 87.2055 154.811 87.2538 154.558 87.3505C154.305 87.4471 154.086 87.5855 153.903 87.7655C153.723 87.9421 153.583 88.1538 153.483 88.4005C153.383 88.6438 153.333 88.9138 153.333 89.2105C153.333 89.5071 153.381 89.7788 153.478 90.0255C153.578 90.2721 153.718 90.4838 153.898 90.6605C154.078 90.8405 154.293 90.9788 154.543 91.0755C154.793 91.1755 155.07 91.2255 155.373 91.2255C155.523 91.2255 155.683 91.2071 155.853 91.1705C156.026 91.1338 156.186 91.0788 156.333 91.0055L156.418 91.2505C156.268 91.3271 156.098 91.3838 155.908 91.4205C155.718 91.4605 155.54 91.4805 155.373 91.4805ZM155.313 90.5055C155.076 90.5055 154.865 90.4505 154.678 90.3405C154.491 90.2271 154.343 90.0738 154.233 89.8805C154.126 89.6838 154.073 89.4605 154.073 89.2105C154.073 88.9605 154.126 88.7388 154.233 88.5455C154.343 88.3521 154.491 88.2005 154.678 88.0905C154.865 87.9805 155.076 87.9255 155.313 87.9255C155.543 87.9255 155.746 87.9771 155.923 88.0805C156.103 88.1838 156.243 88.3321 156.343 88.5255C156.446 88.7155 156.498 88.9438 156.498 89.2105C156.498 89.4771 156.446 89.7071 156.343 89.9005C156.243 90.0938 156.105 90.2438 155.928 90.3505C155.751 90.4538 155.546 90.5055 155.313 90.5055ZM155.358 90.2155C155.538 90.2155 155.7 90.1738 155.843 90.0905C155.99 90.0071 156.103 89.8905 156.183 89.7405C156.266 89.5871 156.308 89.4105 156.308 89.2105C156.308 89.0071 156.266 88.8321 156.183 88.6855C156.103 88.5355 155.99 88.4205 155.843 88.3405C155.7 88.2571 155.538 88.2155 155.358 88.2155C155.171 88.2155 155.006 88.2571 154.863 88.3405C154.72 88.4205 154.606 88.5355 154.523 88.6855C154.443 88.8355 154.403 89.0105 154.403 89.2105C154.403 89.4105 154.443 89.5855 154.523 89.7355C154.606 89.8855 154.72 90.0038 154.863 90.0905C155.006 90.1738 155.171 90.2155 155.358 90.2155ZM161.739 87.8305C161.952 87.8305 162.137 87.8721 162.294 87.9555C162.454 88.0355 162.577 88.1588 162.664 88.3255C162.754 88.4921 162.799 88.7021 162.799 88.9555V90.4805H162.444V88.9905C162.444 88.7138 162.377 88.5055 162.244 88.3655C162.114 88.2221 161.929 88.1505 161.689 88.1505C161.509 88.1505 161.352 88.1888 161.219 88.2655C161.089 88.3388 160.987 88.4471 160.914 88.5905C160.844 88.7305 160.809 88.9005 160.809 89.1005V90.4805H160.454V88.9905C160.454 88.7138 160.387 88.5055 160.254 88.3655C160.121 88.2221 159.934 88.1505 159.694 88.1505C159.517 88.1505 159.362 88.1888 159.229 88.2655C159.096 88.3388 158.992 88.4471 158.919 88.5905C158.849 88.7305 158.814 88.9005 158.814 89.1005V90.4805H158.459V87.8555H158.799V88.5655L158.744 88.4405C158.824 88.2505 158.952 88.1021 159.129 87.9955C159.309 87.8855 159.521 87.8305 159.764 87.8305C160.021 87.8305 160.239 87.8955 160.419 88.0255C160.599 88.1521 160.716 88.3438 160.769 88.6005L160.629 88.5455C160.706 88.3321 160.841 88.1605 161.034 88.0305C161.231 87.8971 161.466 87.8305 161.739 87.8305ZM165.407 90.4805V89.9005L165.392 89.8055V88.8355C165.392 88.6121 165.328 88.4405 165.202 88.3205C165.078 88.2005 164.893 88.1405 164.647 88.1405C164.477 88.1405 164.315 88.1688 164.162 88.2255C164.008 88.2821 163.878 88.3571 163.772 88.4505L163.612 88.1855C163.745 88.0721 163.905 87.9855 164.092 87.9255C164.278 87.8621 164.475 87.8305 164.682 87.8305C165.022 87.8305 165.283 87.9155 165.467 88.0855C165.653 88.2521 165.747 88.5071 165.747 88.8505V90.4805H165.407ZM164.502 90.5055C164.305 90.5055 164.133 90.4738 163.987 90.4105C163.843 90.3438 163.733 90.2538 163.657 90.1405C163.58 90.0238 163.542 89.8905 163.542 89.7405C163.542 89.6038 163.573 89.4805 163.637 89.3705C163.703 89.2571 163.81 89.1671 163.957 89.1005C164.107 89.0305 164.307 88.9955 164.557 88.9955H165.462V89.2605H164.567C164.313 89.2605 164.137 89.3055 164.037 89.3955C163.94 89.4855 163.892 89.5971 163.892 89.7305C163.892 89.8805 163.95 90.0005 164.067 90.0905C164.183 90.1805 164.347 90.2255 164.557 90.2255C164.757 90.2255 164.928 90.1805 165.072 90.0905C165.218 89.9971 165.325 89.8638 165.392 89.6905L165.472 89.9355C165.405 90.1088 165.288 90.2471 165.122 90.3505C164.958 90.4538 164.752 90.5055 164.502 90.5055ZM166.711 90.4805V87.8555H167.066V90.4805H166.711ZM166.891 87.2755C166.817 87.2755 166.756 87.2505 166.706 87.2005C166.656 87.1505 166.631 87.0905 166.631 87.0205C166.631 86.9505 166.656 86.8921 166.706 86.8455C166.756 86.7955 166.817 86.7705 166.891 86.7705C166.964 86.7705 167.026 86.7938 167.076 86.8405C167.126 86.8871 167.151 86.9455 167.151 87.0155C167.151 87.0888 167.126 87.1505 167.076 87.2005C167.029 87.2505 166.967 87.2755 166.891 87.2755ZM168.054 90.4805V86.7705H168.409V90.4805H168.054ZM169.431 90.5055C169.358 90.5055 169.295 90.4788 169.241 90.4255C169.191 90.3721 169.166 90.3071 169.166 90.2305C169.166 90.1505 169.191 90.0855 169.241 90.0355C169.295 89.9855 169.358 89.9605 169.431 89.9605C169.505 89.9605 169.566 89.9855 169.616 90.0355C169.67 90.0855 169.696 90.1505 169.696 90.2305C169.696 90.3071 169.67 90.3721 169.616 90.4255C169.566 90.4788 169.505 90.5055 169.431 90.5055ZM171.473 90.5055C171.213 90.5055 170.979 90.4488 170.773 90.3355C170.569 90.2188 170.409 90.0605 170.293 89.8605C170.176 89.6571 170.118 89.4255 170.118 89.1655C170.118 88.9021 170.176 88.6705 170.293 88.4705C170.409 88.2705 170.569 88.1138 170.773 88.0005C170.979 87.8871 171.213 87.8305 171.473 87.8305C171.696 87.8305 171.898 87.8738 172.078 87.9605C172.258 88.0471 172.399 88.1771 172.503 88.3505L172.238 88.5305C172.148 88.3971 172.036 88.2988 171.903 88.2355C171.769 88.1721 171.624 88.1405 171.468 88.1405C171.281 88.1405 171.113 88.1838 170.963 88.2705C170.813 88.3538 170.694 88.4721 170.608 88.6255C170.521 88.7788 170.478 88.9588 170.478 89.1655C170.478 89.3721 170.521 89.5521 170.608 89.7055C170.694 89.8588 170.813 89.9788 170.963 90.0655C171.113 90.1488 171.281 90.1905 171.468 90.1905C171.624 90.1905 171.769 90.1588 171.903 90.0955C172.036 90.0321 172.148 89.9355 172.238 89.8055L172.503 89.9855C172.399 90.1555 172.258 90.2855 172.078 90.3755C171.898 90.4621 171.696 90.5055 171.473 90.5055ZM174.226 90.5055C173.973 90.5055 173.744 90.4488 173.541 90.3355C173.341 90.2188 173.183 90.0605 173.066 89.8605C172.949 89.6571 172.891 89.4255 172.891 89.1655C172.891 88.9021 172.949 88.6705 173.066 88.4705C173.183 88.2705 173.341 88.1138 173.541 88.0005C173.741 87.8871 173.969 87.8305 174.226 87.8305C174.486 87.8305 174.716 87.8871 174.916 88.0005C175.119 88.1138 175.278 88.2705 175.391 88.4705C175.508 88.6705 175.566 88.9021 175.566 89.1655C175.566 89.4255 175.508 89.6571 175.391 89.8605C175.278 90.0605 175.119 90.2188 174.916 90.3355C174.713 90.4488 174.483 90.5055 174.226 90.5055ZM174.226 90.1905C174.416 90.1905 174.584 90.1488 174.731 90.0655C174.878 89.9788 174.993 89.8588 175.076 89.7055C175.163 89.5488 175.206 89.3688 175.206 89.1655C175.206 88.9588 175.163 88.7788 175.076 88.6255C174.993 88.4721 174.878 88.3538 174.731 88.2705C174.584 88.1838 174.418 88.1405 174.231 88.1405C174.044 88.1405 173.878 88.1838 173.731 88.2705C173.584 88.3538 173.468 88.4721 173.381 88.6255C173.294 88.7788 173.251 88.9588 173.251 89.1655C173.251 89.3688 173.294 89.5488 173.381 89.7055C173.468 89.8588 173.584 89.9788 173.731 90.0655C173.878 90.1488 174.043 90.1905 174.226 90.1905ZM179.571 87.8305C179.784 87.8305 179.969 87.8721 180.126 87.9555C180.286 88.0355 180.409 88.1588 180.496 88.3255C180.586 88.4921 180.631 88.7021 180.631 88.9555V90.4805H180.276V88.9905C180.276 88.7138 180.209 88.5055 180.076 88.3655C179.946 88.2221 179.761 88.1505 179.521 88.1505C179.341 88.1505 179.184 88.1888 179.051 88.2655C178.921 88.3388 178.819 88.4471 178.746 88.5905C178.676 88.7305 178.641 88.9005 178.641 89.1005V90.4805H178.286V88.9905C178.286 88.7138 178.219 88.5055 178.086 88.3655C177.953 88.2221 177.766 88.1505 177.526 88.1505C177.349 88.1505 177.194 88.1888 177.061 88.2655C176.928 88.3388 176.824 88.4471 176.751 88.5905C176.681 88.7305 176.646 88.9005 176.646 89.1005V90.4805H176.291V87.8555H176.631V88.5655L176.576 88.4405C176.656 88.2505 176.784 88.1021 176.961 87.9955C177.141 87.8855 177.353 87.8305 177.596 87.8305C177.853 87.8305 178.071 87.8955 178.251 88.0255C178.431 88.1521 178.548 88.3438 178.601 88.6005L178.461 88.5455C178.538 88.3321 178.673 88.1605 178.866 88.0305C179.063 87.8971 179.298 87.8305 179.571 87.8305Z" fill="black"/>
</g>
<path d="M140.009 112.223L139.043 112.769V112.657L140.009 113.203L139.848 113.497L138.896 112.944L138.973 112.909V113.98H138.651L138.658 112.909L138.728 112.944L137.783 113.497L137.615 113.203L138.588 112.657V112.769L137.615 112.223L137.783 111.929L138.728 112.482L138.658 112.517L138.651 111.446H138.973V112.517L138.896 112.482L139.848 111.929L140.009 112.223ZM142.846 112.223L141.88 112.769V112.657L142.846 113.203L142.685 113.497L141.733 112.944L141.81 112.909V113.98H141.488L141.495 112.909L141.565 112.944L140.62 113.497L140.452 113.203L141.425 112.657V112.769L140.452 112.223L140.62 111.929L141.565 112.482L141.495 112.517L141.488 111.446H141.81V112.517L141.733 112.482L142.685 111.929L142.846 112.223ZM145.683 112.223L144.717 112.769V112.657L145.683 113.203L145.522 113.497L144.57 112.944L144.647 112.909V113.98H144.325L144.332 112.909L144.402 112.944L143.457 113.497L143.289 113.203L144.262 112.657V112.769L143.289 112.223L143.457 111.929L144.402 112.482L144.332 112.517L144.325 111.446H144.647V112.517L144.57 112.482L145.522 111.929L145.683 112.223ZM148.52 112.223L147.554 112.769V112.657L148.52 113.203L148.359 113.497L147.407 112.944L147.484 112.909V113.98H147.162L147.169 112.909L147.239 112.944L146.294 113.497L146.126 113.203L147.099 112.657V112.769L146.126 112.223L146.294 111.929L147.239 112.482L147.169 112.517L147.162 111.446H147.484V112.517L147.407 112.482L148.359 111.929L148.52 112.223ZM151.357 112.223L150.391 112.769V112.657L151.357 113.203L151.196 113.497L150.244 112.944L150.321 112.909V113.98H149.999L150.006 112.909L150.076 112.944L149.131 113.497L148.963 113.203L149.936 112.657V112.769L148.963 112.223L149.131 111.929L150.076 112.482L150.006 112.517L149.999 111.446H150.321V112.517L150.244 112.482L151.196 111.929L151.357 112.223ZM154.194 112.223L153.228 112.769V112.657L154.194 113.203L154.033 113.497L153.081 112.944L153.158 112.909V113.98H152.836L152.843 112.909L152.913 112.944L151.968 113.497L151.8 113.203L152.773 112.657V112.769L151.8 112.223L151.968 111.929L152.913 112.482L152.843 112.517L152.836 111.446H153.158V112.517L153.081 112.482L154.033 111.929L154.194 112.223ZM157.03 112.223L156.064 112.769V112.657L157.03 113.203L156.869 113.497L155.917 112.944L155.994 112.909V113.98H155.672L155.679 112.909L155.749 112.944L154.804 113.497L154.636 113.203L155.609 112.657V112.769L154.636 112.223L154.804 111.929L155.749 112.482L155.679 112.517L155.672 111.446H155.994V112.517L155.917 112.482L156.869 111.929L157.03 112.223Z" fill="black"/>
<path opacity="0.2" d="M205.66 85.1699V92.8499H216.54V85.1699H205.66ZM214.76 86.0099L211.1 88.5099L207.43 86.0099H214.76ZM206.49 92.0099V86.3799L211.1 89.5199L215.7 86.3799V92.0099H206.49Z" fill="black"/>
<g opacity="0.2">
<path d="M213.67 110.92V109.99C213.667 109.426 213.442 108.886 213.043 108.487C212.644 108.088 212.104 107.863 211.54 107.86H210.38C209.816 107.863 209.276 108.088 208.877 108.487C208.478 108.886 208.253 109.426 208.25 109.99V110.92H206.5V117.31H215.69V110.92H213.67ZM209.09 109.99C209.09 109.648 209.226 109.32 209.468 109.078C209.71 108.836 210.038 108.7 210.38 108.7H211.54C211.882 108.7 212.21 108.836 212.452 109.078C212.694 109.32 212.83 109.648 212.83 109.99V110.92H209.09V109.99ZM214.86 116.47H207.34V111.76H214.86V116.47Z" fill="black"/>
<path d="M210.858 114.37V115.13H211.338V114.37C211.408 114.329 211.467 114.271 211.507 114.201C211.547 114.131 211.569 114.051 211.568 113.97C211.578 113.902 211.573 113.832 211.554 113.766C211.535 113.7 211.501 113.639 211.456 113.587C211.411 113.535 211.356 113.493 211.293 113.464C211.23 113.436 211.162 113.421 211.093 113.421C211.024 113.421 210.956 113.436 210.894 113.464C210.831 113.493 210.775 113.535 210.73 113.587C210.685 113.639 210.652 113.7 210.633 113.766C210.613 113.832 210.608 113.902 210.618 113.97C210.62 114.052 210.643 114.132 210.685 114.202C210.727 114.272 210.787 114.33 210.858 114.37Z" fill="black"/>
</g>
<path d="M351.658 28.1104H322.928C320.581 28.1104 318.33 29.0428 316.67 30.7025C315.011 32.3622 314.078 34.6132 314.078 36.9604V61.9604C314.078 64.3075 315.011 66.5585 316.67 68.2182C318.33 69.8779 320.581 70.8104 322.928 70.8104H334.288L337.288 78.7004L340.288 70.8104H351.648C352.81 70.8104 353.96 70.5814 355.033 70.1365C356.107 69.6916 357.081 69.0396 357.902 68.2177C358.723 67.3957 359.374 66.42 359.818 65.3463C360.262 64.2727 360.489 63.1221 360.488 61.9604V36.9604C360.489 35.7995 360.262 34.6497 359.819 33.5767C359.376 32.5037 358.726 31.5284 357.906 30.7066C357.086 29.8848 356.112 29.2326 355.04 28.7871C353.968 28.3416 352.819 28.1117 351.658 28.1104Z" fill="#B40000"/>
<path d="M335.799 55.7202C335.609 55.7206 335.421 55.6797 335.248 55.6003C335.076 55.5209 334.922 55.4048 334.799 55.2602L329.199 48.6702C328.974 48.405 328.863 48.0611 328.891 47.7141C328.919 47.3672 329.084 47.0456 329.349 46.8202C329.614 46.5947 329.958 46.4839 330.305 46.512C330.652 46.5402 330.974 46.705 331.199 46.9702L335.799 52.3902L343.389 43.3902C343.615 43.125 343.936 42.9602 344.283 42.932C344.63 42.9039 344.974 43.0147 345.239 43.2402C345.504 43.4656 345.669 43.7872 345.697 44.1341C345.725 44.4811 345.615 44.825 345.389 45.0902L336.799 55.2602C336.675 55.4038 336.521 55.5191 336.349 55.5985C336.177 55.6778 335.989 55.7193 335.799 55.7202Z" fill="white"/>
<path d="M347.371 59.4329C352.94 53.8641 352.94 44.8351 347.371 39.2663C341.802 33.6974 332.773 33.6974 327.204 39.2663C321.636 44.8351 321.636 53.8641 327.204 59.4329C332.773 65.0018 341.802 65.0018 347.371 59.4329Z" fill="white"/>
<path d="M390.688 299.21H397.288L383.788 223.02H377.188L390.688 299.21Z" fill="#263238"/>
<path d="M245.527 299.21H252.137L238.637 223.02H232.027L245.527 299.21Z" fill="#263238"/>
<path opacity="0.3" d="M390.688 299.21H397.288L383.788 223.02H377.188L390.688 299.21Z" fill="white"/>
<path opacity="0.3" d="M245.527 299.21H252.137L238.637 223.02H232.027L245.527 299.21Z" fill="white"/>
<path d="M188.088 267.8H387.238V261.11H188.088V267.8Z" fill="#263238"/>
<path opacity="0.5" d="M188.088 267.8H387.238V261.11H188.088V267.8Z" fill="white"/>
<path d="M329.788 299.21H323.188L336.688 223.02H343.288L329.788 299.21Z" fill="#263238"/>
<path d="M184.637 299.21H178.027L191.527 223.02H198.137L184.637 299.21Z" fill="#263238"/>
<path opacity="0.3" d="M329.788 299.21H323.188L336.688 223.02H343.288L329.788 299.21Z" fill="white"/>
<path opacity="0.3" d="M184.637 299.21H178.027L191.527 223.02H198.137L184.637 299.21Z" fill="white"/>
<path d="M244.52 220.049H251.09L262.09 158.899H255.52L244.52 220.049Z" fill="#263238"/>
<path opacity="0.3" d="M244.52 220.049H251.09L262.09 158.899H255.52L244.52 220.049Z" fill="white"/>
<path d="M375.008 220.049H381.578L392.578 158.899H386.008L375.008 220.049Z" fill="#263238"/>
<path d="M309.758 220.049H316.328L327.328 158.899H320.758L309.758 220.049Z" fill="#263238"/>
<path opacity="0.3" d="M375.008 220.049H381.578L392.578 158.899H386.008L375.008 220.049Z" fill="white"/>
<path opacity="0.3" d="M309.758 220.049H316.328L327.328 158.899H320.758L309.758 220.049Z" fill="white"/>
<path d="M233.168 163.08H405.738L407.798 151.64H235.228L233.168 163.08Z" fill="#263238"/>
<path d="M229.449 183.78H402.019L404.079 172.34H231.509L229.449 183.78Z" fill="#263238"/>
<path d="M225.719 204.48H398.289L400.349 193.04H227.779L225.719 204.48Z" fill="#263238"/>
<path d="M176.648 226.17L396.578 226.17V218.25L176.648 218.25V226.17Z" fill="#263238"/>
<path opacity="0.5" d="M233.168 163.08H405.738L407.798 151.64H235.228L233.168 163.08Z" fill="white"/>
<path opacity="0.5" d="M229.449 183.78H402.019L404.079 172.34H231.509L229.449 183.78Z" fill="white"/>
<path opacity="0.5" d="M225.719 204.48H398.289L400.349 193.04H227.779L225.719 204.48Z" fill="white"/>
<path opacity="0.5" d="M176.648 226.17L396.578 226.17V218.25L176.648 218.25V226.17Z" fill="white"/>
<path opacity="0.2" d="M176.648 226.17L342.578 226.17V218.25L176.648 218.25V226.17Z" fill="white"/>
<path d="M325.587 136.669C320.937 141.579 309.787 153.609 302.887 153.399C295.607 152.619 287.467 141.399 283.587 135.719C283.268 135.216 283.14 134.616 283.225 134.027C283.309 133.437 283.602 132.897 284.049 132.504C284.496 132.111 285.069 131.891 285.665 131.883C286.26 131.874 286.839 132.079 287.297 132.459C292.037 136.399 298.757 142.569 303.227 144.369C302.547 144.369 302.417 144.509 303.037 144.119C308.657 140.119 313.407 134.699 318.287 129.839C322.937 125.309 329.797 131.719 325.587 136.669Z" fill="#E9B376"/>
<path d="M323.047 127.71V142.04C323.047 142.04 320.047 144.56 316.297 147.34C314.437 148.73 312.407 150.18 310.507 151.41C307.617 153.29 305.017 154.67 303.697 154.59C299.757 154.35 291.207 148.24 291.207 148.24L296.827 138.88C296.827 138.88 303.287 142.83 303.697 143.1C304.107 143.37 317.657 127.8 323.047 127.71Z" fill="#B40000"/>
<path opacity="0.2" d="M316.298 147.339C314.438 148.729 312.408 150.179 310.508 151.409C310.958 143.189 314.828 140.029 314.828 140.029C315.957 142.293 316.464 144.815 316.298 147.339Z" fill="black"/>
<path d="M328.507 90.0297C321.607 95.6597 322.427 111.86 330.177 122.49C330.177 122.49 346.737 123.88 355.937 119.76C365.137 115.64 354.937 89.4097 345.247 87.3497C339.529 86.0983 333.549 87.0556 328.507 90.0297Z" fill="#263238"/>
<path d="M328.919 106.86C326.389 102.5 323.919 90.7297 334.389 87.0997C347.519 82.5597 353.389 90.9298 354.539 99.2298C355.689 107.53 350.999 113.8 342.319 113.18C333.639 112.56 330.659 109.88 328.919 106.86Z" fill="#263238"/>
<path d="M314.82 140.029C313.54 146.099 315.82 160.399 316.16 171.179L347.08 174.739C347.08 171.359 347.71 166.459 349.73 158.669C350.88 154.109 352.54 148.549 354.81 141.729C355.14 140.729 355.49 139.729 355.81 138.619C356.217 137.549 356.38 136.402 356.286 135.261C356.193 134.12 355.847 133.014 355.272 132.025C354.697 131.035 353.908 130.186 352.963 129.54C352.018 128.893 350.941 128.466 349.81 128.289C348.51 128.079 347.13 127.899 345.72 127.759C340.746 127.135 335.733 126.871 330.72 126.969C329.09 127.019 327.39 127.139 325.77 127.279C320 127.769 316 134.349 314.82 140.029Z" fill="#E19999"/>
<path d="M345.569 110.87C344.019 115.61 341.949 124.34 344.909 127.71C344.909 127.71 340.389 126.79 330.399 132.25C327.809 128.09 329.958 126.92 329.958 126.92C335.489 125.92 335.849 121.92 335.399 118.19L345.569 110.87Z" fill="#EBB376"/>
<path opacity="0.2" d="M341.43 113.85L335.43 118.18C335.549 119.064 335.589 119.958 335.55 120.85C337.64 120.66 340.74 118.57 341.23 116.45C341.455 115.602 341.522 114.721 341.43 113.85Z" fill="black"/>
<path d="M347.638 99.7997C347.748 107.71 347.958 111.06 344.278 115.4C338.758 121.93 329.008 120.33 326.538 112.61C324.318 105.61 324.538 93.8797 331.998 90.1697C333.643 89.3452 335.471 88.9545 337.309 89.0347C339.147 89.1149 340.934 89.6633 342.501 90.6279C344.067 91.5925 345.362 92.9414 346.261 94.5465C347.16 96.1517 347.634 97.9599 347.638 99.7997Z" fill="#FFB573"/>
<path d="M340.929 92.3996C338.739 95.1496 343.729 103.81 347.669 105.28C355.319 102.76 347.479 84.1896 340.929 92.3996Z" fill="#263238"/>
<path d="M331.559 88.7102C328.649 89.9902 325.919 95.4602 325.559 97.5002C329.889 97.8302 341.039 92.8302 341.039 92.8302C341.039 92.8302 348.889 94.2702 344.669 90.7302C340.449 87.1902 331.559 88.7102 331.559 88.7102Z" fill="#263238"/>
<path d="M334.478 103.019C334.478 103.659 334.228 104.199 333.808 104.239C333.388 104.279 333.008 103.769 332.958 103.129C332.908 102.489 333.218 101.949 333.638 101.909C334.058 101.869 334.428 102.379 334.478 103.019Z" fill="#263238"/>
<path d="M327.228 103.559C327.228 104.199 326.978 104.749 326.558 104.779C326.138 104.809 325.758 104.319 325.708 103.679C325.658 103.039 325.968 102.489 326.388 102.459C326.808 102.429 327.178 102.919 327.228 103.559Z" fill="#263238"/>
<path d="M326.57 102.46L325 102.13C325 102.13 325.88 103.29 326.57 102.46Z" fill="#263238"/>
<path d="M330.309 104.359C329.836 105.866 329.163 107.302 328.309 108.629C328.654 108.837 329.041 108.966 329.441 109.01C329.842 109.053 330.247 109.008 330.629 108.879L330.309 104.359Z" fill="#ED893E"/>
<path d="M334.329 111.13C334.02 111.203 333.706 111.253 333.389 111.28C333.339 111.28 333.29 111.26 333.255 111.224C333.219 111.189 333.199 111.14 333.199 111.09C333.199 111.039 333.219 110.991 333.255 110.955C333.29 110.92 333.339 110.9 333.389 110.9C334.19 110.86 334.971 110.631 335.666 110.231C336.361 109.831 336.952 109.272 337.389 108.6C337.401 108.578 337.416 108.56 337.435 108.544C337.454 108.529 337.476 108.518 337.499 108.512C337.523 108.505 337.547 108.503 337.571 108.506C337.595 108.51 337.618 108.517 337.639 108.53C337.682 108.553 337.714 108.592 337.729 108.639C337.744 108.685 337.741 108.736 337.719 108.78C337.341 109.379 336.846 109.896 336.264 110.3C335.681 110.704 335.023 110.986 334.329 111.13Z" fill="#263238"/>
<path d="M350.307 106.859C350.096 107.588 349.744 108.267 349.27 108.859C348.797 109.451 348.211 109.944 347.547 110.309C345.767 111.309 344.427 109.779 344.547 107.859C344.657 106.139 345.717 103.559 347.697 103.379C348.127 103.352 348.558 103.432 348.95 103.613C349.342 103.793 349.683 104.069 349.942 104.414C350.201 104.759 350.37 105.164 350.433 105.591C350.497 106.017 350.454 106.453 350.307 106.859Z" fill="#FFB573"/>
<path d="M338 101.14C337.921 101.156 337.84 101.147 337.767 101.115C337.693 101.083 337.632 101.029 337.59 100.96C336.69 99.4701 334.45 99.2901 334.43 99.2901C334.329 99.2835 334.235 99.2371 334.169 99.1611C334.102 99.0852 334.068 98.9859 334.075 98.8851C334.082 98.7843 334.128 98.6903 334.204 98.6237C334.28 98.5572 334.379 98.5235 334.48 98.5301C334.59 98.5301 337.14 98.7501 338.24 100.53C338.291 100.616 338.307 100.719 338.282 100.817C338.258 100.914 338.196 100.998 338.11 101.05L338 101.14Z" fill="#263238"/>
<path d="M325.558 100.19C325.493 100.205 325.426 100.203 325.363 100.184C325.299 100.164 325.242 100.128 325.198 100.08C325.162 100.045 325.134 100.004 325.115 99.9584C325.096 99.9129 325.086 99.864 325.086 99.8146C325.086 99.7652 325.096 99.7163 325.115 99.6708C325.134 99.6253 325.162 99.5841 325.198 99.5496C325.619 99.1225 326.137 98.8038 326.708 98.621C327.28 98.4381 327.887 98.3965 328.478 98.4996C328.526 98.5108 328.571 98.5313 328.611 98.5599C328.651 98.5886 328.685 98.6249 328.711 98.6666C328.737 98.7084 328.754 98.7549 328.762 98.8035C328.77 98.852 328.769 98.9017 328.758 98.9496C328.747 98.9976 328.726 99.0428 328.697 99.0828C328.669 99.1229 328.632 99.1568 328.591 99.1828C328.549 99.2088 328.502 99.2263 328.454 99.2344C328.405 99.2424 328.356 99.2408 328.308 99.2296C327.839 99.158 327.359 99.1986 326.909 99.3481C326.459 99.4976 326.051 99.7517 325.718 100.09C325.673 100.135 325.618 100.169 325.558 100.19Z" fill="#263238"/>
<path d="M333.82 101.939L332.25 101.609C332.25 101.609 333.13 102.749 333.82 101.939Z" fill="#263238"/>
<path d="M305.718 131.15L306.468 133.49C306.606 133.923 306.846 134.317 307.168 134.639C307.49 134.961 307.884 135.201 308.318 135.34L312.438 136.66C313.249 136.921 314.111 136.984 314.952 136.843C315.792 136.702 316.587 136.362 317.268 135.85L318.118 135.21C317.118 131.21 313.168 127.67 313.168 127.67L312.168 126.52C311.965 126.28 311.716 126.084 311.436 125.941C311.157 125.798 310.852 125.711 310.539 125.686C310.226 125.661 309.911 125.698 309.612 125.795C309.314 125.891 309.037 126.046 308.798 126.25L306.508 128.25C306.107 128.603 305.818 129.066 305.678 129.581C305.538 130.097 305.552 130.642 305.718 131.15Z" fill="#EBB376"/>
<path d="M277.997 133.289L278.747 135.639C278.889 136.073 279.131 136.467 279.454 136.788C279.778 137.11 280.173 137.35 280.607 137.489L284.717 138.809C285.529 139.069 286.39 139.13 287.23 138.989C288.071 138.849 288.865 138.509 289.547 137.999L290.407 137.359C289.407 133.359 285.407 129.809 285.407 129.809L284.407 128.669C284.205 128.428 283.956 128.229 283.675 128.084C283.395 127.939 283.088 127.852 282.774 127.827C282.459 127.802 282.143 127.839 281.843 127.938C281.543 128.036 281.266 128.193 281.027 128.399L278.737 130.399C278.349 130.759 278.073 131.223 277.941 131.735C277.81 132.248 277.83 132.787 277.997 133.289Z" fill="#EBB376"/>
<path opacity="0.2" d="M337.8 145.849C339.8 151.709 344.87 156.079 349.73 158.669C350.88 154.109 352.54 148.549 354.81 141.729C351.76 137.469 347.49 134.439 342.05 135.259C342.05 135.259 335.79 139.919 337.8 145.849Z" fill="black"/>
<path d="M228.07 262.109L233.29 264.219C233.29 264.219 277.64 197.319 281.75 199.829C296.62 208.939 327.19 225.219 341.66 215.359C356.13 205.499 347.54 179.509 347.54 179.509C347.54 179.509 319.4 169.629 315.92 175.739C315.003 177.562 314.205 179.443 313.53 181.369C312.81 183.299 312.25 184.929 312.25 184.929C311.4 184.529 283.82 171.259 270.83 176.729C257.62 182.279 228.07 262.109 228.07 262.109Z" fill="#EBB376"/>
<path d="M324.248 218.93C324.248 218.93 310.298 219.84 291.188 213.35C291.188 213.35 286.478 266.63 283.308 295.55L276.908 294.65C276.908 294.65 266.018 215.71 268.168 206.09C270.318 196.47 281.998 195.83 281.998 195.83C281.998 195.83 304.268 212.2 324.248 218.93Z" fill="#EBB376"/>
<path d="M324.25 218.93C314.832 219.045 305.443 217.877 296.34 215.46L298.16 207.88C305.19 212.53 315 215.36 324.25 218.93Z" fill="#B40000"/>
<path d="M296.979 207.109L295.309 215.549L297.849 216.419L299.809 208.969L296.979 207.109Z" fill="#B40000"/>
<path opacity="0.2" d="M270.49 239.64C269.49 218.64 269.05 207.8 272.49 203.47C274.761 200.794 277.888 198.985 281.34 198.35C285.82 209.7 305.34 216.78 305.88 216.97C313.17 218.48 323.97 218.87 324.24 218.97C314.9 217.069 306.031 213.33 298.15 207.97C292.523 204.261 287.13 200.21 282 195.84C282 195.84 270.35 196.47 268.2 206.09C267.32 210.03 268.62 225.55 270.46 242.54C270.523 241.574 270.533 240.606 270.49 239.64Z" fill="black"/>
<path d="M222.857 257.72C222.789 257.562 222.771 257.386 222.807 257.218C222.843 257.049 222.93 256.896 223.057 256.78C223.138 256.678 223.24 256.594 223.355 256.534C223.47 256.473 223.597 256.438 223.727 256.43C224.403 256.462 225.057 256.68 225.617 257.06C225.127 256.42 224.747 255.73 224.917 255.3C225.027 255.02 225.307 254.87 225.757 254.87C225.954 254.864 226.15 254.901 226.332 254.979C226.513 255.057 226.675 255.173 226.807 255.32C227.677 256.27 227.487 258.44 227.487 258.54C227.493 258.573 227.493 258.607 227.487 258.64C227.491 258.656 227.491 258.673 227.487 258.69C227.464 258.694 227.44 258.694 227.417 258.69H227.337C226.402 258.711 225.468 258.641 224.547 258.48C223.717 258.39 223.057 258.14 222.857 257.72ZM223.767 256.9C223.7 256.901 223.634 256.917 223.574 256.947C223.513 256.976 223.46 257.018 223.417 257.07C223.187 257.35 223.247 257.48 223.267 257.52C223.507 258 225.177 258.24 226.587 258.28C225.777 257.67 224.507 256.83 223.767 256.9ZM225.767 255.33C225.637 255.33 225.407 255.33 225.357 255.47C225.217 255.84 226.077 256.99 227.047 257.99C227.118 257.161 226.914 256.331 226.467 255.63C226.342 255.487 226.173 255.389 225.987 255.35L225.767 255.33Z" fill="#263238"/>
<path d="M270.65 290.08C270.522 289.964 270.433 289.812 270.393 289.644C270.354 289.476 270.367 289.301 270.43 289.14C270.461 289.014 270.518 288.895 270.597 288.792C270.676 288.689 270.776 288.603 270.89 288.54C271.521 288.275 272.214 288.192 272.89 288.3C272.17 287.93 271.54 287.47 271.51 287.01C271.51 286.71 271.7 286.46 272.08 286.26C272.258 286.176 272.453 286.133 272.65 286.133C272.847 286.133 273.042 286.176 273.22 286.26C274.42 286.74 275.22 288.78 275.22 288.87C275.229 288.906 275.229 288.944 275.22 288.98C275.213 289.012 275.195 289.04 275.17 289.06L275.12 289.11C273.975 289.711 272.732 290.104 271.45 290.27C271.169 290.302 270.886 290.235 270.65 290.08ZM271.13 288.94C271.068 288.97 271.014 289.014 270.97 289.067C270.927 289.121 270.896 289.183 270.88 289.25C270.79 289.6 270.88 289.69 270.94 289.72C271.36 290.05 272.94 289.55 274.26 288.98C273.27 288.78 271.76 288.57 271.13 288.94ZM272.25 286.68C272.13 286.74 271.93 286.85 271.94 286.98C271.94 287.37 273.23 288.04 274.55 288.52C274.253 287.746 273.713 287.09 273.01 286.65C272.903 286.603 272.787 286.579 272.67 286.58C272.524 286.58 272.38 286.614 272.25 286.68Z" fill="#263238"/>
<path d="M236.58 261.97C236.87 261.31 228.58 258.13 228.58 258.13C228.58 258.13 221.35 260.87 216.04 259.79C210.73 258.71 212.04 262.79 217.44 265.27L230.66 271.37C234.51 273.12 233.63 268.79 236.58 261.97Z" fill="#B40000"/>
<path d="M284.869 288.02C284.869 287.3 276.039 287.97 276.039 287.97C276.039 287.97 270.679 293.55 265.429 294.85C260.179 296.15 263.159 299.28 269.049 299.21L283.609 299.03C287.789 298.98 285.129 295.46 284.869 288.02Z" fill="#B40000"/>
<path d="M347.54 179.509C347.54 179.509 319.4 169.629 315.92 175.739C315.006 177.564 314.208 179.445 313.53 181.369C312.81 183.299 312.25 184.929 312.25 184.929L309.94 183.869L300.52 211.999C315.52 220.319 336.69 221.279 345.37 215.369C359.81 205.509 347.54 179.509 347.54 179.509Z" fill="#E19999"/>
<path opacity="0.3" d="M312.25 184.93L328.48 191.82C328.48 191.82 320.15 184.82 313.48 181.37C312.81 183.3 312.25 184.93 312.25 184.93Z" fill="black"/>
<path d="M315.52 176.509L316.09 169.569L347.54 173.749L347.95 180.449L315.52 176.509Z" fill="#666666"/>
<path d="M316.15 170.25L317.8 170.49L317.29 175.9L315.93 175.74L316.15 170.25Z" fill="#263238"/>
<path d="M319.359 170.71L337.089 173.29L336.629 178.21L318.859 176.09L319.359 170.71Z" fill="#263238"/>
<path d="M347.538 179.51L338.188 178.4L338.647 173.52L347.087 174.74L347.538 179.51Z" fill="#263238"/>
<path opacity="0.2" d="M316.15 170.25L317.8 170.49L317.29 175.9L315.93 175.74L316.15 170.25Z" fill="black"/>
<path opacity="0.2" d="M319.359 170.71L337.089 173.29L336.629 178.21L318.859 176.09L319.359 170.71Z" fill="black"/>
<path opacity="0.2" d="M347.538 179.51L338.188 178.4L338.647 173.52L347.087 174.74L347.538 179.51Z" fill="black"/>
<path d="M328.75 177.919H328.56L323.51 177.249C323.324 177.225 323.143 177.164 322.98 177.069C322.817 176.975 322.675 176.849 322.56 176.699C322.443 176.551 322.358 176.381 322.308 176.199C322.258 176.017 322.245 175.826 322.27 175.639L322.72 172.259C322.741 172.065 322.801 171.876 322.895 171.704C322.989 171.533 323.117 171.381 323.27 171.259C323.573 171.03 323.954 170.929 324.33 170.979L329.38 171.649C329.568 171.673 329.749 171.733 329.913 171.827C330.077 171.921 330.221 172.046 330.336 172.196C330.451 172.346 330.536 172.517 330.585 172.699C330.633 172.882 330.646 173.072 330.62 173.259L330.17 176.639C330.133 176.99 329.968 177.315 329.706 177.552C329.444 177.788 329.103 177.919 328.75 177.919ZM324.14 171.999C324.046 172 323.955 172.032 323.88 172.089C323.789 172.161 323.728 172.265 323.71 172.379L323.27 175.759C323.261 175.815 323.263 175.873 323.277 175.928C323.29 175.983 323.316 176.034 323.35 176.079C323.422 176.171 323.526 176.231 323.64 176.249L328.69 176.919C328.806 176.934 328.922 176.902 329.014 176.83C329.105 176.759 329.165 176.655 329.18 176.539L329.63 173.159C329.642 173.045 329.61 172.931 329.54 172.839C329.469 172.748 329.365 172.687 329.25 172.669L324.2 171.999H324.14Z" fill="white"/>
<path d="M329 175.24H328.92L327.14 174.95C327.075 174.94 327.013 174.917 326.957 174.883C326.902 174.849 326.853 174.804 326.815 174.751C326.777 174.698 326.749 174.638 326.735 174.574C326.72 174.51 326.719 174.444 326.73 174.38C326.752 174.249 326.824 174.133 326.93 174.055C327.037 173.976 327.169 173.942 327.3 173.96L329.08 174.25C329.213 174.26 329.336 174.323 329.422 174.424C329.508 174.526 329.551 174.657 329.54 174.79C329.53 174.922 329.467 175.045 329.365 175.131C329.264 175.218 329.133 175.26 329 175.25V175.24Z" fill="white"/>
<path d="M308.578 181.92L311.198 183.3L302.308 213.52L298.578 212.78L308.578 181.92Z" fill="#B40000"/>
<path d="M306.479 151.46H284.479C284.06 151.452 283.659 151.291 283.351 151.007C283.043 150.724 282.85 150.337 282.809 149.92L279.739 120.67C279.717 120.474 279.738 120.277 279.799 120.09C279.86 119.902 279.96 119.73 280.092 119.585C280.224 119.439 280.386 119.323 280.566 119.245C280.747 119.167 280.942 119.127 281.139 119.13H303.139C303.558 119.137 303.961 119.298 304.27 119.582C304.58 119.865 304.775 120.253 304.819 120.67L307.879 149.92C307.902 150.116 307.882 150.314 307.822 150.502C307.762 150.69 307.662 150.863 307.529 151.009C307.396 151.155 307.234 151.27 307.053 151.348C306.872 151.426 306.676 151.464 306.479 151.46Z" fill="#263238"/>
<path opacity="0.6" d="M306.479 151.46H284.479C284.06 151.452 283.659 151.291 283.351 151.007C283.043 150.724 282.85 150.337 282.809 149.92L279.739 120.67C279.717 120.474 279.738 120.277 279.799 120.09C279.86 119.902 279.96 119.73 280.092 119.585C280.224 119.439 280.386 119.323 280.566 119.245C280.747 119.167 280.942 119.127 281.139 119.13H303.139C303.558 119.137 303.961 119.298 304.27 119.582C304.58 119.865 304.775 120.253 304.819 120.67L307.879 149.92C307.902 150.116 307.882 150.314 307.822 150.502C307.762 150.69 307.662 150.863 307.529 151.009C307.396 151.155 307.234 151.27 307.053 151.348C306.872 151.426 306.676 151.464 306.479 151.46Z" fill="white"/>
<path opacity="0.2" d="M305.557 151.46H284.447C284.029 151.452 283.627 151.291 283.32 151.007C283.012 150.724 282.819 150.337 282.777 149.92L279.707 120.67C279.686 120.474 279.707 120.277 279.768 120.09C279.828 119.902 279.928 119.73 280.061 119.585C280.193 119.439 280.355 119.323 280.535 119.245C280.716 119.167 280.911 119.127 281.107 119.13H302.217C302.636 119.138 303.037 119.299 303.345 119.583C303.653 119.866 303.846 120.253 303.887 120.67L306.997 149.87C307.029 150.073 307.015 150.281 306.956 150.478C306.897 150.675 306.795 150.856 306.657 151.008C306.519 151.161 306.348 151.281 306.158 151.359C305.968 151.437 305.763 151.471 305.557 151.46Z" fill="white"/>
<path d="M292.707 132.85C292.401 132.845 292.099 132.905 291.818 133.027C291.538 133.148 291.287 133.328 291.082 133.554C290.876 133.78 290.722 134.048 290.628 134.338C290.534 134.629 290.503 134.936 290.537 135.24C290.598 135.888 290.896 136.491 291.374 136.934C291.852 137.377 292.476 137.628 293.127 137.64C293.433 137.643 293.736 137.581 294.016 137.459C294.296 137.336 294.547 137.156 294.752 136.929C294.958 136.702 295.112 136.434 295.206 136.143C295.3 135.852 295.331 135.544 295.297 135.24C294.648 135.226 294.026 134.976 293.549 134.535C293.072 134.095 292.773 133.496 292.707 132.85Z" fill="#263238"/>
<path opacity="0.3" d="M297.477 121.4H285.837C285.551 121.394 285.273 121.309 285.032 121.153C284.792 120.998 284.6 120.779 284.477 120.52L283.777 119.08H299.137L298.687 120.52C298.609 120.779 298.448 121.004 298.23 121.163C298.012 121.322 297.747 121.405 297.477 121.4Z" fill="black"/>
<path d="M353.66 188.33H349.57C349.57 188.33 344.46 172.99 341.48 159.99C340.648 156.552 340.01 153.069 339.57 149.56C339.142 145.672 339.482 141.737 340.57 137.98C341.599 134.262 343.36 130.788 345.75 127.76L344.92 127.71C352.66 127.63 356.84 130.31 357.36 135.13C357.88 139.95 349.36 168.55 348.92 172.37C348.48 176.19 353.66 188.33 353.66 188.33Z" fill="#B40000"/>
<path d="M327.238 127.17C327.238 127.17 319.048 140.07 316.858 145.55C314.668 151.03 315.928 166.73 315.928 166.73C315.928 166.73 311.738 147.84 314.428 138.48C317.118 129.12 321.788 127.2 327.238 127.17Z" fill="#B40000"/>
<path d="M355.278 138.8C350.968 144.98 340.678 159.49 331.818 156.09C327.148 153.96 323.818 150.09 320.728 146.34C318.036 142.949 315.625 139.343 313.518 135.56C313.175 135.028 313.048 134.385 313.162 133.762C313.276 133.139 313.624 132.583 314.133 132.207C314.643 131.831 315.277 131.664 315.906 131.738C316.534 131.813 317.111 132.125 317.518 132.61C320.358 135.56 323.318 138.52 326.268 141.26C328.838 143.58 332.138 146.6 335.118 147.69C334.91 147.594 334.687 147.537 334.458 147.52C334.288 147.52 334.328 147.52 334.458 147.41C339.458 143.99 343.298 138.11 347.008 133.22C350.868 127.89 358.778 133.22 355.298 138.8H355.278Z" fill="#E9B376"/>
<path opacity="0.2" d="M354.2 142.46C354.2 142.46 347 154.74 341.48 159.95C340.648 156.512 340.01 153.03 339.57 149.52C339.142 145.632 339.482 141.698 340.57 137.94L346.27 133.24C349.1 130.91 354.2 142.46 354.2 142.46Z" fill="black"/>
<path d="M354.71 131.14C358.48 133.14 357.34 138.61 352.4 145.07C347.46 151.53 338.52 160.26 333.82 158.67C329.12 157.08 323.82 150.83 323.82 150.83L327.25 141.15C327.25 141.15 333.98 146.26 335.38 146C336.78 145.74 343.64 136.86 345.62 134.11C347.6 131.36 350.62 128.93 354.71 131.14Z" fill="#B40000"/>
<path d="M284.429 131.71L284.289 133.63C284.249 134.125 284.042 134.593 283.703 134.956C283.363 135.319 282.91 135.557 282.419 135.63L279.809 136.02L280.429 129.02L282.609 129.4C283.145 129.49 283.628 129.777 283.964 130.204C284.3 130.631 284.466 131.167 284.429 131.71Z" fill="#FFB573"/>
</svg>
